%TF.GenerationSoftware,KiCad,Pcbnew,9.0.2*%
%TF.CreationDate,2025-12-27T16:53:07-07:00*%
%TF.ProjectId,LED Holder Logic Gates,4c454420-486f-46c6-9465-72204c6f6769,rev?*%
%TF.SameCoordinates,Original*%
%TF.FileFunction,Copper,L2,Bot*%
%TF.FilePolarity,Positive*%
%FSLAX46Y46*%
G04 Gerber Fmt 4.6, Leading zero omitted, Abs format (unit mm)*
G04 Created by KiCad (PCBNEW 9.0.2) date 2025-12-27 16:53:07*
%MOMM*%
%LPD*%
G01*
G04 APERTURE LIST*
G04 Aperture macros list*
%AMRoundRect*
0 Rectangle with rounded corners*
0 $1 Rounding radius*
0 $2 $3 $4 $5 $6 $7 $8 $9 X,Y pos of 4 corners*
0 Add a 4 corners polygon primitive as box body*
4,1,4,$2,$3,$4,$5,$6,$7,$8,$9,$2,$3,0*
0 Add four circle primitives for the rounded corners*
1,1,$1+$1,$2,$3*
1,1,$1+$1,$4,$5*
1,1,$1+$1,$6,$7*
1,1,$1+$1,$8,$9*
0 Add four rect primitives between the rounded corners*
20,1,$1+$1,$2,$3,$4,$5,0*
20,1,$1+$1,$4,$5,$6,$7,0*
20,1,$1+$1,$6,$7,$8,$9,0*
20,1,$1+$1,$8,$9,$2,$3,0*%
G04 Aperture macros list end*
%TA.AperFunction,ComponentPad*%
%ADD10C,1.600000*%
%TD*%
%TA.AperFunction,ComponentPad*%
%ADD11RoundRect,0.250000X-0.600000X-0.725000X0.600000X-0.725000X0.600000X0.725000X-0.600000X0.725000X0*%
%TD*%
%TA.AperFunction,ComponentPad*%
%ADD12O,1.700000X1.950000*%
%TD*%
%TA.AperFunction,ComponentPad*%
%ADD13RoundRect,0.450000X-0.450000X-0.450000X0.450000X-0.450000X0.450000X0.450000X-0.450000X0.450000X0*%
%TD*%
%TA.AperFunction,ComponentPad*%
%ADD14C,1.800000*%
%TD*%
G04 APERTURE END LIST*
D10*
%TO.P,C4,1*%
%TO.N,+5V*%
X135000000Y-163750000D03*
%TO.P,C4,2*%
%TO.N,GND*%
X137500000Y-163750000D03*
%TD*%
%TO.P,C3,1*%
%TO.N,+5V*%
X132000000Y-142000000D03*
%TO.P,C3,2*%
%TO.N,GND*%
X134500000Y-142000000D03*
%TD*%
%TO.P,C2,1*%
%TO.N,+5V*%
X132000000Y-119000000D03*
%TO.P,C2,2*%
%TO.N,GND*%
X134500000Y-119000000D03*
%TD*%
%TO.P,C1,1*%
%TO.N,+5V*%
X132000000Y-96000000D03*
%TO.P,C1,2*%
%TO.N,GND*%
X134500000Y-96000000D03*
%TD*%
D11*
%TO.P,J2,1,Pin_1*%
%TO.N,+5V*%
X130000000Y-169000000D03*
D12*
%TO.P,J2,2,Pin_2*%
%TO.N,Net-(D4-DOUT)*%
X132500000Y-169000000D03*
%TO.P,J2,3,Pin_3*%
%TO.N,GND*%
X135000000Y-169000000D03*
%TD*%
D11*
%TO.P,J1,1,Pin_1*%
%TO.N,+5V*%
X130000000Y-80000000D03*
D12*
%TO.P,J1,2,Pin_2*%
%TO.N,Net-(D1-DIN)*%
X132500000Y-80000000D03*
%TO.P,J1,3,Pin_3*%
%TO.N,GND*%
X135000000Y-80000000D03*
%TD*%
D13*
%TO.P,D4,1,DOUT*%
%TO.N,Net-(D4-DOUT)*%
X130000000Y-159000000D03*
D14*
%TO.P,D4,2,VCC*%
%TO.N,+5V*%
X131778000Y-160524000D03*
%TO.P,D4,3,GND*%
%TO.N,GND*%
X133302000Y-159000000D03*
%TO.P,D4,4,DIN*%
%TO.N,Net-(D3-DOUT)*%
X134826000Y-160524000D03*
%TD*%
D13*
%TO.P,D3,1,DOUT*%
%TO.N,Net-(D3-DOUT)*%
X130000000Y-136000000D03*
D14*
%TO.P,D3,2,VCC*%
%TO.N,+5V*%
X131778000Y-137524000D03*
%TO.P,D3,3,GND*%
%TO.N,GND*%
X133302000Y-136000000D03*
%TO.P,D3,4,DIN*%
%TO.N,Net-(D2-DOUT)*%
X134826000Y-137524000D03*
%TD*%
D13*
%TO.P,D2,1,DOUT*%
%TO.N,Net-(D2-DOUT)*%
X130000000Y-113000000D03*
D14*
%TO.P,D2,2,VCC*%
%TO.N,+5V*%
X131778000Y-114524000D03*
%TO.P,D2,3,GND*%
%TO.N,GND*%
X133302000Y-113000000D03*
%TO.P,D2,4,DIN*%
%TO.N,Net-(D1-DOUT)*%
X134826000Y-114524000D03*
%TD*%
D13*
%TO.P,D1,1,DOUT*%
%TO.N,Net-(D1-DOUT)*%
X130000000Y-90000000D03*
D14*
%TO.P,D1,2,VCC*%
%TO.N,+5V*%
X131778000Y-91524000D03*
%TO.P,D1,3,GND*%
%TO.N,GND*%
X133302000Y-90000000D03*
%TO.P,D1,4,DIN*%
%TO.N,Net-(D1-DIN)*%
X134826000Y-91524000D03*
%TD*%
%TA.AperFunction,Conductor*%
%TO.N,GND*%
G36*
X138442539Y-76520185D02*
G01*
X138488294Y-76572989D01*
X138499500Y-76624500D01*
X138499500Y-162625926D01*
X138479815Y-162692965D01*
X138427011Y-162738720D01*
X138357853Y-162748664D01*
X138302615Y-162726244D01*
X138181352Y-162638142D01*
X137999031Y-162545244D01*
X137804417Y-162482009D01*
X137602317Y-162450000D01*
X137397683Y-162450000D01*
X137195581Y-162482010D01*
X137195578Y-162482010D01*
X137000976Y-162545241D01*
X137000965Y-162545246D01*
X136955041Y-162568644D01*
X136955040Y-162568645D01*
X137730516Y-163344121D01*
X137764001Y-163405444D01*
X137761139Y-163445453D01*
X137745606Y-163429920D01*
X137654394Y-163377259D01*
X137552661Y-163350000D01*
X137447339Y-163350000D01*
X137345606Y-163377259D01*
X137254394Y-163429920D01*
X137179920Y-163504394D01*
X137127259Y-163595606D01*
X137100000Y-163697339D01*
X137100000Y-163802661D01*
X137127259Y-163904394D01*
X137179920Y-163995606D01*
X137254394Y-164070080D01*
X137345606Y-164122741D01*
X137447339Y-164150000D01*
X137552661Y-164150000D01*
X137654394Y-164122741D01*
X137745606Y-164070080D01*
X137763242Y-164052443D01*
X137759017Y-164111531D01*
X137730516Y-164155878D01*
X136955040Y-164931354D01*
X137000975Y-164954758D01*
X137195580Y-165017989D01*
X137397683Y-165050000D01*
X137602317Y-165050000D01*
X137804417Y-165017990D01*
X137999031Y-164954755D01*
X138181349Y-164861859D01*
X138302614Y-164773755D01*
X138368420Y-164750275D01*
X138436474Y-164766100D01*
X138485169Y-164816206D01*
X138499500Y-164874073D01*
X138499500Y-173375500D01*
X138479815Y-173442539D01*
X138427011Y-173488294D01*
X138375500Y-173499500D01*
X126624500Y-173499500D01*
X126557461Y-173479815D01*
X126511706Y-173427011D01*
X126500500Y-173375500D01*
X126500500Y-170916228D01*
X127549500Y-170916228D01*
X127549500Y-171083771D01*
X127582182Y-171248074D01*
X127582184Y-171248082D01*
X127646295Y-171402860D01*
X127739373Y-171542162D01*
X127857837Y-171660626D01*
X127950494Y-171722537D01*
X127997137Y-171753703D01*
X128151918Y-171817816D01*
X128316228Y-171850499D01*
X128316232Y-171850500D01*
X128316233Y-171850500D01*
X128483768Y-171850500D01*
X128483769Y-171850499D01*
X128648082Y-171817816D01*
X128802863Y-171753703D01*
X128942162Y-171660626D01*
X129060626Y-171542162D01*
X129153703Y-171402863D01*
X129217816Y-171248082D01*
X129250500Y-171083767D01*
X129250500Y-170916233D01*
X129217816Y-170751918D01*
X129171916Y-170641108D01*
X129164448Y-170571641D01*
X129195723Y-170509162D01*
X129255811Y-170473509D01*
X129299081Y-170470299D01*
X129302300Y-170470627D01*
X129349991Y-170475500D01*
X130650008Y-170475499D01*
X130752797Y-170464999D01*
X130919334Y-170409814D01*
X131068656Y-170317712D01*
X131192712Y-170193656D01*
X131284814Y-170044334D01*
X131284814Y-170044331D01*
X131288178Y-170038879D01*
X131340126Y-169992154D01*
X131409088Y-169980931D01*
X131473170Y-170008774D01*
X131481398Y-170016294D01*
X131620213Y-170155109D01*
X131792179Y-170280048D01*
X131792181Y-170280049D01*
X131792184Y-170280051D01*
X131981588Y-170376557D01*
X132183757Y-170442246D01*
X132393713Y-170475500D01*
X132393714Y-170475500D01*
X132606286Y-170475500D01*
X132606287Y-170475500D01*
X132816243Y-170442246D01*
X133018412Y-170376557D01*
X133207816Y-170280051D01*
X133254275Y-170246297D01*
X133379786Y-170155109D01*
X133379788Y-170155106D01*
X133379792Y-170155104D01*
X133530104Y-170004792D01*
X133649991Y-169839779D01*
X133705320Y-169797115D01*
X133774933Y-169791136D01*
X133836729Y-169823741D01*
X133850627Y-169839781D01*
X133970272Y-170004459D01*
X133970276Y-170004464D01*
X134120535Y-170154723D01*
X134120540Y-170154727D01*
X134292442Y-170279620D01*
X134481779Y-170376094D01*
X134481785Y-170376096D01*
X134549999Y-170398259D01*
X134550000Y-170398259D01*
X135450000Y-170398259D01*
X135518214Y-170376096D01*
X135518220Y-170376094D01*
X135707557Y-170279620D01*
X135879459Y-170154727D01*
X135879464Y-170154723D01*
X136029723Y-170004464D01*
X136029727Y-170004459D01*
X136154620Y-169832557D01*
X136251092Y-169643222D01*
X136313875Y-169450000D01*
X135450000Y-169450000D01*
X135450000Y-170398259D01*
X134550000Y-170398259D01*
X134550000Y-169155837D01*
X134557370Y-169183343D01*
X134619905Y-169291657D01*
X134708343Y-169380095D01*
X134816657Y-169442630D01*
X134937465Y-169475000D01*
X135062535Y-169475000D01*
X135183343Y-169442630D01*
X135291657Y-169380095D01*
X135380095Y-169291657D01*
X135442630Y-169183343D01*
X135475000Y-169062535D01*
X135475000Y-168937465D01*
X135442630Y-168816657D01*
X135380095Y-168708343D01*
X135291657Y-168619905D01*
X135183343Y-168557370D01*
X135155837Y-168550000D01*
X135450000Y-168550000D01*
X136313875Y-168550000D01*
X136313874Y-168549999D01*
X136251092Y-168356777D01*
X136154620Y-168167442D01*
X136029727Y-167995540D01*
X136029723Y-167995535D01*
X135879464Y-167845276D01*
X135879459Y-167845272D01*
X135707557Y-167720379D01*
X135518222Y-167623907D01*
X135450000Y-167601740D01*
X135450000Y-168550000D01*
X135155837Y-168550000D01*
X135062535Y-168525000D01*
X134937465Y-168525000D01*
X134816657Y-168557370D01*
X134708343Y-168619905D01*
X134619905Y-168708343D01*
X134557370Y-168816657D01*
X134550000Y-168844162D01*
X134550000Y-167601740D01*
X134549999Y-167601740D01*
X134481777Y-167623907D01*
X134292442Y-167720379D01*
X134120540Y-167845272D01*
X134120535Y-167845276D01*
X133970276Y-167995535D01*
X133970272Y-167995540D01*
X133850627Y-168160218D01*
X133795297Y-168202884D01*
X133725684Y-168208863D01*
X133663889Y-168176257D01*
X133649991Y-168160218D01*
X133530109Y-167995214D01*
X133530105Y-167995209D01*
X133379786Y-167844890D01*
X133207820Y-167719951D01*
X133018414Y-167623444D01*
X133018413Y-167623443D01*
X133018412Y-167623443D01*
X132816243Y-167557754D01*
X132816241Y-167557753D01*
X132816240Y-167557753D01*
X132654957Y-167532208D01*
X132606287Y-167524500D01*
X132393713Y-167524500D01*
X132345042Y-167532208D01*
X132183760Y-167557753D01*
X131981585Y-167623444D01*
X131792179Y-167719951D01*
X131620215Y-167844889D01*
X131481398Y-167983706D01*
X131420075Y-168017190D01*
X131350383Y-168012206D01*
X131294450Y-167970334D01*
X131288178Y-167961120D01*
X131192712Y-167806344D01*
X131068657Y-167682289D01*
X131068656Y-167682288D01*
X130919334Y-167590186D01*
X130752797Y-167535001D01*
X130752795Y-167535000D01*
X130650010Y-167524500D01*
X129349998Y-167524500D01*
X129349981Y-167524501D01*
X129247203Y-167535000D01*
X129247200Y-167535001D01*
X129080668Y-167590185D01*
X129080663Y-167590187D01*
X128931342Y-167682289D01*
X128807289Y-167806342D01*
X128715187Y-167955663D01*
X128715185Y-167955668D01*
X128710325Y-167970334D01*
X128660001Y-168122203D01*
X128660001Y-168122204D01*
X128660000Y-168122204D01*
X128649500Y-168224983D01*
X128649500Y-169775001D01*
X128649501Y-169775018D01*
X128660000Y-169877796D01*
X128660001Y-169877799D01*
X128701830Y-170004028D01*
X128704232Y-170073856D01*
X128668500Y-170133898D01*
X128605980Y-170165091D01*
X128559934Y-170164650D01*
X128508015Y-170154323D01*
X128483767Y-170149500D01*
X128316233Y-170149500D01*
X128316228Y-170149500D01*
X128151925Y-170182182D01*
X128151917Y-170182184D01*
X127997139Y-170246295D01*
X127857837Y-170339373D01*
X127739373Y-170457837D01*
X127646295Y-170597139D01*
X127582184Y-170751917D01*
X127582182Y-170751925D01*
X127549500Y-170916228D01*
X126500500Y-170916228D01*
X126500500Y-163647648D01*
X133699500Y-163647648D01*
X133699500Y-163852351D01*
X133731522Y-164054534D01*
X133794781Y-164249223D01*
X133887715Y-164431613D01*
X134008028Y-164597213D01*
X134152786Y-164741971D01*
X134254964Y-164816206D01*
X134318390Y-164862287D01*
X134434607Y-164921503D01*
X134500776Y-164955218D01*
X134500778Y-164955218D01*
X134500781Y-164955220D01*
X134605137Y-164989127D01*
X134695465Y-165018477D01*
X134796557Y-165034488D01*
X134897648Y-165050500D01*
X134897649Y-165050500D01*
X135102351Y-165050500D01*
X135102352Y-165050500D01*
X135304534Y-165018477D01*
X135499219Y-164955220D01*
X135681610Y-164862287D01*
X135803465Y-164773755D01*
X135847213Y-164741971D01*
X135847215Y-164741968D01*
X135847219Y-164741966D01*
X135991966Y-164597219D01*
X135991968Y-164597215D01*
X135991971Y-164597213D01*
X136112286Y-164431611D01*
X136151224Y-164355191D01*
X136199198Y-164304395D01*
X136267019Y-164287599D01*
X136281109Y-164289012D01*
X136318646Y-164294958D01*
X136863604Y-163750000D01*
X136863604Y-163749999D01*
X136318645Y-163205040D01*
X136281108Y-163210986D01*
X136211814Y-163202032D01*
X136158362Y-163157036D01*
X136151224Y-163144808D01*
X136150276Y-163142949D01*
X136112287Y-163068390D01*
X136104556Y-163057749D01*
X135991971Y-162902786D01*
X135847213Y-162758028D01*
X135681613Y-162637715D01*
X135681612Y-162637714D01*
X135681610Y-162637713D01*
X135624653Y-162608691D01*
X135499223Y-162544781D01*
X135304534Y-162481522D01*
X135129995Y-162453878D01*
X135102352Y-162449500D01*
X134897648Y-162449500D01*
X134873329Y-162453351D01*
X134695465Y-162481522D01*
X134500776Y-162544781D01*
X134318386Y-162637715D01*
X134152786Y-162758028D01*
X134008028Y-162902786D01*
X133887715Y-163068386D01*
X133794781Y-163250776D01*
X133731522Y-163445465D01*
X133699500Y-163647648D01*
X126500500Y-163647648D01*
X126500500Y-158494863D01*
X128599500Y-158494863D01*
X128599500Y-159505136D01*
X128609582Y-159618548D01*
X128662762Y-159804405D01*
X128662763Y-159804406D01*
X128752266Y-159975751D01*
X128760946Y-159986396D01*
X128874428Y-160125571D01*
X128949339Y-160186652D01*
X129024249Y-160247734D01*
X129195594Y-160337237D01*
X129381448Y-160390417D01*
X129494862Y-160400500D01*
X130253500Y-160400500D01*
X130320539Y-160420185D01*
X130366294Y-160472989D01*
X130377500Y-160524500D01*
X130377500Y-160634221D01*
X130411985Y-160851952D01*
X130480103Y-161061603D01*
X130480104Y-161061606D01*
X130580187Y-161258025D01*
X130709752Y-161436358D01*
X130709756Y-161436363D01*
X130865636Y-161592243D01*
X130865641Y-161592247D01*
X131021192Y-161705260D01*
X131043978Y-161721815D01*
X131172375Y-161787237D01*
X131240393Y-161821895D01*
X131240396Y-161821896D01*
X131345221Y-161855955D01*
X131450049Y-161890015D01*
X131667778Y-161924500D01*
X131667779Y-161924500D01*
X131888221Y-161924500D01*
X131888222Y-161924500D01*
X132105951Y-161890015D01*
X132315606Y-161821895D01*
X132512022Y-161721815D01*
X132690365Y-161592242D01*
X132846242Y-161436365D01*
X132975815Y-161258022D01*
X133075895Y-161061606D01*
X133144015Y-160851951D01*
X133178500Y-160634222D01*
X133178500Y-160634220D01*
X133179262Y-160629410D01*
X133180697Y-160629637D01*
X133203270Y-160570421D01*
X133259503Y-160528953D01*
X133329229Y-160524469D01*
X133390309Y-160558394D01*
X133423353Y-160619957D01*
X133424712Y-160629414D01*
X133424738Y-160629410D01*
X133459985Y-160851952D01*
X133528103Y-161061603D01*
X133528104Y-161061606D01*
X133628187Y-161258025D01*
X133757752Y-161436358D01*
X133757756Y-161436363D01*
X133913636Y-161592243D01*
X133913641Y-161592247D01*
X134069192Y-161705260D01*
X134091978Y-161721815D01*
X134220375Y-161787237D01*
X134288393Y-161821895D01*
X134288396Y-161821896D01*
X134393221Y-161855955D01*
X134498049Y-161890015D01*
X134715778Y-161924500D01*
X134715779Y-161924500D01*
X134936221Y-161924500D01*
X134936222Y-161924500D01*
X135153951Y-161890015D01*
X135363606Y-161821895D01*
X135560022Y-161721815D01*
X135738365Y-161592242D01*
X135894242Y-161436365D01*
X136023815Y-161258022D01*
X136123895Y-161061606D01*
X136192015Y-160851951D01*
X136226500Y-160634222D01*
X136226500Y-160413778D01*
X136192015Y-160196049D01*
X136123895Y-159986394D01*
X136123895Y-159986393D01*
X136089237Y-159918375D01*
X136023815Y-159789978D01*
X136007260Y-159767192D01*
X135894247Y-159611641D01*
X135894243Y-159611636D01*
X135738363Y-159455756D01*
X135738358Y-159455752D01*
X135560025Y-159326187D01*
X135560024Y-159326186D01*
X135560022Y-159326185D01*
X135462130Y-159276306D01*
X135363606Y-159226104D01*
X135363603Y-159226103D01*
X135153952Y-159157985D01*
X135003558Y-159134165D01*
X134936222Y-159123500D01*
X134826000Y-159123500D01*
X134758961Y-159103815D01*
X134713206Y-159051011D01*
X134702000Y-158999500D01*
X134702000Y-158889818D01*
X134667526Y-158672164D01*
X134599429Y-158462584D01*
X134557702Y-158380691D01*
X133707878Y-159230516D01*
X133679617Y-159245947D01*
X133721333Y-159173694D01*
X133752000Y-159059244D01*
X133752000Y-158940756D01*
X133721333Y-158826306D01*
X133662090Y-158723694D01*
X133578306Y-158639910D01*
X133475694Y-158580667D01*
X133361244Y-158550000D01*
X133242756Y-158550000D01*
X133128306Y-158580667D01*
X133025694Y-158639910D01*
X132941910Y-158723694D01*
X132882667Y-158826306D01*
X132852000Y-158940756D01*
X132852000Y-159059244D01*
X132882667Y-159173694D01*
X132926891Y-159250292D01*
X132896121Y-159230517D01*
X132046295Y-158380691D01*
X132004568Y-158462587D01*
X131936473Y-158672164D01*
X131902000Y-158889818D01*
X131902000Y-158999500D01*
X131882315Y-159066539D01*
X131829511Y-159112294D01*
X131778000Y-159123500D01*
X131667778Y-159123500D01*
X131543897Y-159143120D01*
X131474604Y-159134165D01*
X131421152Y-159089169D01*
X131400513Y-159022417D01*
X131400500Y-159020647D01*
X131400500Y-158494869D01*
X131400500Y-158494862D01*
X131390417Y-158381448D01*
X131337237Y-158195594D01*
X131247734Y-158024249D01*
X131186652Y-157949339D01*
X131125571Y-157874428D01*
X131033700Y-157799518D01*
X130975751Y-157752266D01*
X130960491Y-157744295D01*
X132682691Y-157744295D01*
X133302000Y-158363604D01*
X133302001Y-158363604D01*
X133921306Y-157744296D01*
X133839413Y-157702568D01*
X133839410Y-157702567D01*
X133629835Y-157634473D01*
X133412181Y-157600000D01*
X133191819Y-157600000D01*
X132974164Y-157634473D01*
X132764587Y-157702568D01*
X132682691Y-157744295D01*
X130960491Y-157744295D01*
X130880607Y-157702567D01*
X130804405Y-157662762D01*
X130649845Y-157618537D01*
X130618552Y-157609583D01*
X130618551Y-157609582D01*
X130618548Y-157609582D01*
X130529662Y-157601680D01*
X130505138Y-157599500D01*
X129494862Y-157599500D01*
X129482599Y-157600590D01*
X129381451Y-157609582D01*
X129195594Y-157662762D01*
X129024250Y-157752265D01*
X128874428Y-157874428D01*
X128752265Y-158024250D01*
X128662762Y-158195594D01*
X128609582Y-158381451D01*
X128599500Y-158494863D01*
X126500500Y-158494863D01*
X126500500Y-141897648D01*
X130699500Y-141897648D01*
X130699500Y-142102351D01*
X130731522Y-142304534D01*
X130794781Y-142499223D01*
X130887715Y-142681613D01*
X131008028Y-142847213D01*
X131152786Y-142991971D01*
X131307749Y-143104556D01*
X131318390Y-143112287D01*
X131434607Y-143171503D01*
X131500776Y-143205218D01*
X131500778Y-143205218D01*
X131500781Y-143205220D01*
X131605137Y-143239127D01*
X131695465Y-143268477D01*
X131796557Y-143284488D01*
X131897648Y-143300500D01*
X131897649Y-143300500D01*
X132102351Y-143300500D01*
X132102352Y-143300500D01*
X132304534Y-143268477D01*
X132499219Y-143205220D01*
X132546059Y-143181354D01*
X133955040Y-143181354D01*
X134000975Y-143204758D01*
X134195580Y-143267989D01*
X134397683Y-143300000D01*
X134602317Y-143300000D01*
X134804417Y-143267990D01*
X134999031Y-143204755D01*
X135044958Y-143181353D01*
X134500001Y-142636396D01*
X134500000Y-142636396D01*
X133955040Y-143181354D01*
X132546059Y-143181354D01*
X132681610Y-143112287D01*
X132783817Y-143038030D01*
X132783819Y-143038029D01*
X132847212Y-142991971D01*
X132847210Y-142991971D01*
X132847219Y-142991966D01*
X132991966Y-142847219D01*
X132991968Y-142847215D01*
X132991971Y-142847213D01*
X133112286Y-142681611D01*
X133135325Y-142636396D01*
X133151225Y-142605189D01*
X133199198Y-142554395D01*
X133267019Y-142537599D01*
X133281109Y-142539012D01*
X133318646Y-142544958D01*
X133863604Y-142000000D01*
X133863604Y-141999999D01*
X133810944Y-141947339D01*
X134100000Y-141947339D01*
X134100000Y-142052661D01*
X134127259Y-142154394D01*
X134179920Y-142245606D01*
X134254394Y-142320080D01*
X134345606Y-142372741D01*
X134447339Y-142400000D01*
X134552661Y-142400000D01*
X134654394Y-142372741D01*
X134745606Y-142320080D01*
X134820080Y-142245606D01*
X134872741Y-142154394D01*
X134900000Y-142052661D01*
X134900000Y-141999999D01*
X135136396Y-141999999D01*
X135136396Y-142000000D01*
X135681353Y-142544957D01*
X135704755Y-142499031D01*
X135767990Y-142304417D01*
X135800000Y-142102317D01*
X135800000Y-141897682D01*
X135767989Y-141695581D01*
X135767989Y-141695578D01*
X135704758Y-141500976D01*
X135704758Y-141500975D01*
X135681354Y-141455040D01*
X135136396Y-141999999D01*
X134900000Y-141999999D01*
X134900000Y-141947339D01*
X134872741Y-141845606D01*
X134820080Y-141754394D01*
X134745606Y-141679920D01*
X134654394Y-141627259D01*
X134552661Y-141600000D01*
X134447339Y-141600000D01*
X134345606Y-141627259D01*
X134254394Y-141679920D01*
X134179920Y-141754394D01*
X134127259Y-141845606D01*
X134100000Y-141947339D01*
X133810944Y-141947339D01*
X133318645Y-141455040D01*
X133281108Y-141460986D01*
X133211814Y-141452032D01*
X133158362Y-141407036D01*
X133151224Y-141394808D01*
X133150276Y-141392949D01*
X133112287Y-141318390D01*
X133104556Y-141307749D01*
X132991971Y-141152786D01*
X132847219Y-141008034D01*
X132783815Y-140961969D01*
X132783813Y-140961966D01*
X132681613Y-140887715D01*
X132681612Y-140887714D01*
X132681610Y-140887713D01*
X132624653Y-140858691D01*
X132546059Y-140818645D01*
X133955040Y-140818645D01*
X134500000Y-141363604D01*
X134500001Y-141363604D01*
X135044958Y-140818645D01*
X134999024Y-140795242D01*
X134999022Y-140795241D01*
X134804419Y-140732010D01*
X134602317Y-140700000D01*
X134397683Y-140700000D01*
X134195581Y-140732010D01*
X134195578Y-140732010D01*
X134000976Y-140795241D01*
X134000965Y-140795246D01*
X133955041Y-140818644D01*
X133955040Y-140818645D01*
X132546059Y-140818645D01*
X132499223Y-140794781D01*
X132304534Y-140731522D01*
X132129995Y-140703878D01*
X132102352Y-140699500D01*
X131897648Y-140699500D01*
X131873329Y-140703351D01*
X131695465Y-140731522D01*
X131500776Y-140794781D01*
X131318386Y-140887715D01*
X131152786Y-141008028D01*
X131008028Y-141152786D01*
X130887715Y-141318386D01*
X130794781Y-141500776D01*
X130731522Y-141695465D01*
X130699500Y-141897648D01*
X126500500Y-141897648D01*
X126500500Y-135494863D01*
X128599500Y-135494863D01*
X128599500Y-136505136D01*
X128609582Y-136618548D01*
X128662762Y-136804405D01*
X128662763Y-136804406D01*
X128752266Y-136975751D01*
X128760946Y-136986396D01*
X128874428Y-137125571D01*
X128949339Y-137186652D01*
X129024249Y-137247734D01*
X129195594Y-137337237D01*
X129381448Y-137390417D01*
X129494862Y-137400500D01*
X130253500Y-137400500D01*
X130320539Y-137420185D01*
X130366294Y-137472989D01*
X130377500Y-137524500D01*
X130377500Y-137634221D01*
X130411985Y-137851952D01*
X130480103Y-138061603D01*
X130480104Y-138061606D01*
X130580187Y-138258025D01*
X130709752Y-138436358D01*
X130709756Y-138436363D01*
X130865636Y-138592243D01*
X130865641Y-138592247D01*
X131021192Y-138705260D01*
X131043978Y-138721815D01*
X131172375Y-138787237D01*
X131240393Y-138821895D01*
X131240396Y-138821896D01*
X131345221Y-138855955D01*
X131450049Y-138890015D01*
X131667778Y-138924500D01*
X131667779Y-138924500D01*
X131888221Y-138924500D01*
X131888222Y-138924500D01*
X132105951Y-138890015D01*
X132315606Y-138821895D01*
X132512022Y-138721815D01*
X132690365Y-138592242D01*
X132846242Y-138436365D01*
X132975815Y-138258022D01*
X133075895Y-138061606D01*
X133144015Y-137851951D01*
X133178500Y-137634222D01*
X133178500Y-137634220D01*
X133179262Y-137629410D01*
X133180697Y-137629637D01*
X133203270Y-137570421D01*
X133259503Y-137528953D01*
X133329229Y-137524469D01*
X133390309Y-137558394D01*
X133423353Y-137619957D01*
X133424712Y-137629414D01*
X133424738Y-137629410D01*
X133459985Y-137851952D01*
X133528103Y-138061603D01*
X133528104Y-138061606D01*
X133628187Y-138258025D01*
X133757752Y-138436358D01*
X133757756Y-138436363D01*
X133913636Y-138592243D01*
X133913641Y-138592247D01*
X134069192Y-138705260D01*
X134091978Y-138721815D01*
X134220375Y-138787237D01*
X134288393Y-138821895D01*
X134288396Y-138821896D01*
X134393221Y-138855955D01*
X134498049Y-138890015D01*
X134715778Y-138924500D01*
X134715779Y-138924500D01*
X134936221Y-138924500D01*
X134936222Y-138924500D01*
X135153951Y-138890015D01*
X135363606Y-138821895D01*
X135560022Y-138721815D01*
X135738365Y-138592242D01*
X135894242Y-138436365D01*
X136023815Y-138258022D01*
X136123895Y-138061606D01*
X136192015Y-137851951D01*
X136226500Y-137634222D01*
X136226500Y-137413778D01*
X136192015Y-137196049D01*
X136123895Y-136986394D01*
X136123895Y-136986393D01*
X136089237Y-136918375D01*
X136023815Y-136789978D01*
X136007260Y-136767192D01*
X135894247Y-136611641D01*
X135894243Y-136611636D01*
X135738363Y-136455756D01*
X135738358Y-136455752D01*
X135560025Y-136326187D01*
X135560024Y-136326186D01*
X135560022Y-136326185D01*
X135462130Y-136276306D01*
X135363606Y-136226104D01*
X135363603Y-136226103D01*
X135153952Y-136157985D01*
X135003558Y-136134165D01*
X134936222Y-136123500D01*
X134826000Y-136123500D01*
X134758961Y-136103815D01*
X134713206Y-136051011D01*
X134702000Y-135999500D01*
X134702000Y-135889818D01*
X134667526Y-135672164D01*
X134599429Y-135462584D01*
X134557702Y-135380691D01*
X133707878Y-136230516D01*
X133679617Y-136245947D01*
X133721333Y-136173694D01*
X133752000Y-136059244D01*
X133752000Y-135940756D01*
X133721333Y-135826306D01*
X133662090Y-135723694D01*
X133578306Y-135639910D01*
X133475694Y-135580667D01*
X133361244Y-135550000D01*
X133242756Y-135550000D01*
X133128306Y-135580667D01*
X133025694Y-135639910D01*
X132941910Y-135723694D01*
X132882667Y-135826306D01*
X132852000Y-135940756D01*
X132852000Y-136059244D01*
X132882667Y-136173694D01*
X132926891Y-136250292D01*
X132896121Y-136230517D01*
X132046295Y-135380691D01*
X132004568Y-135462587D01*
X131936473Y-135672164D01*
X131902000Y-135889818D01*
X131902000Y-135999500D01*
X131882315Y-136066539D01*
X131829511Y-136112294D01*
X131778000Y-136123500D01*
X131667778Y-136123500D01*
X131543897Y-136143120D01*
X131474604Y-136134165D01*
X131421152Y-136089169D01*
X131400513Y-136022417D01*
X131400500Y-136020647D01*
X131400500Y-135494869D01*
X131400500Y-135494862D01*
X131390417Y-135381448D01*
X131337237Y-135195594D01*
X131247734Y-135024249D01*
X131186652Y-134949339D01*
X131125571Y-134874428D01*
X131033700Y-134799518D01*
X130975751Y-134752266D01*
X130960491Y-134744295D01*
X132682691Y-134744295D01*
X133302000Y-135363604D01*
X133302001Y-135363604D01*
X133921306Y-134744296D01*
X133839413Y-134702568D01*
X133839410Y-134702567D01*
X133629835Y-134634473D01*
X133412181Y-134600000D01*
X133191819Y-134600000D01*
X132974164Y-134634473D01*
X132764587Y-134702568D01*
X132682691Y-134744295D01*
X130960491Y-134744295D01*
X130880607Y-134702567D01*
X130804405Y-134662762D01*
X130649845Y-134618537D01*
X130618552Y-134609583D01*
X130618551Y-134609582D01*
X130618548Y-134609582D01*
X130529662Y-134601680D01*
X130505138Y-134599500D01*
X129494862Y-134599500D01*
X129482599Y-134600590D01*
X129381451Y-134609582D01*
X129195594Y-134662762D01*
X129024250Y-134752265D01*
X128874428Y-134874428D01*
X128752265Y-135024250D01*
X128662762Y-135195594D01*
X128609582Y-135381451D01*
X128599500Y-135494863D01*
X126500500Y-135494863D01*
X126500500Y-118897648D01*
X130699500Y-118897648D01*
X130699500Y-119102351D01*
X130731522Y-119304534D01*
X130794781Y-119499223D01*
X130887715Y-119681613D01*
X131008028Y-119847213D01*
X131152786Y-119991971D01*
X131307749Y-120104556D01*
X131318390Y-120112287D01*
X131434607Y-120171503D01*
X131500776Y-120205218D01*
X131500778Y-120205218D01*
X131500781Y-120205220D01*
X131605137Y-120239127D01*
X131695465Y-120268477D01*
X131796557Y-120284488D01*
X131897648Y-120300500D01*
X131897649Y-120300500D01*
X132102351Y-120300500D01*
X132102352Y-120300500D01*
X132304534Y-120268477D01*
X132499219Y-120205220D01*
X132546059Y-120181354D01*
X133955040Y-120181354D01*
X134000975Y-120204758D01*
X134195580Y-120267989D01*
X134397683Y-120300000D01*
X134602317Y-120300000D01*
X134804417Y-120267990D01*
X134999031Y-120204755D01*
X135044958Y-120181353D01*
X134500001Y-119636396D01*
X134500000Y-119636396D01*
X133955040Y-120181354D01*
X132546059Y-120181354D01*
X132681610Y-120112287D01*
X132783817Y-120038030D01*
X132783819Y-120038029D01*
X132847212Y-119991971D01*
X132847210Y-119991971D01*
X132847219Y-119991966D01*
X132991966Y-119847219D01*
X132991968Y-119847215D01*
X132991971Y-119847213D01*
X133112286Y-119681611D01*
X133135325Y-119636396D01*
X133151225Y-119605189D01*
X133199198Y-119554395D01*
X133267019Y-119537599D01*
X133281109Y-119539012D01*
X133318646Y-119544958D01*
X133863604Y-119000000D01*
X133863604Y-118999999D01*
X133810944Y-118947339D01*
X134100000Y-118947339D01*
X134100000Y-119052661D01*
X134127259Y-119154394D01*
X134179920Y-119245606D01*
X134254394Y-119320080D01*
X134345606Y-119372741D01*
X134447339Y-119400000D01*
X134552661Y-119400000D01*
X134654394Y-119372741D01*
X134745606Y-119320080D01*
X134820080Y-119245606D01*
X134872741Y-119154394D01*
X134900000Y-119052661D01*
X134900000Y-118999999D01*
X135136396Y-118999999D01*
X135136396Y-119000000D01*
X135681353Y-119544957D01*
X135704755Y-119499031D01*
X135767990Y-119304417D01*
X135800000Y-119102317D01*
X135800000Y-118897682D01*
X135767989Y-118695581D01*
X135767989Y-118695578D01*
X135704758Y-118500976D01*
X135704758Y-118500975D01*
X135681354Y-118455040D01*
X135136396Y-118999999D01*
X134900000Y-118999999D01*
X134900000Y-118947339D01*
X134872741Y-118845606D01*
X134820080Y-118754394D01*
X134745606Y-118679920D01*
X134654394Y-118627259D01*
X134552661Y-118600000D01*
X134447339Y-118600000D01*
X134345606Y-118627259D01*
X134254394Y-118679920D01*
X134179920Y-118754394D01*
X134127259Y-118845606D01*
X134100000Y-118947339D01*
X133810944Y-118947339D01*
X133318645Y-118455040D01*
X133281108Y-118460986D01*
X133211814Y-118452032D01*
X133158362Y-118407036D01*
X133151224Y-118394808D01*
X133150276Y-118392949D01*
X133112287Y-118318390D01*
X133104556Y-118307749D01*
X132991971Y-118152786D01*
X132847219Y-118008034D01*
X132783815Y-117961969D01*
X132783813Y-117961966D01*
X132681613Y-117887715D01*
X132681612Y-117887714D01*
X132681610Y-117887713D01*
X132624653Y-117858691D01*
X132546059Y-117818645D01*
X133955040Y-117818645D01*
X134500000Y-118363604D01*
X134500001Y-118363604D01*
X135044958Y-117818645D01*
X134999024Y-117795242D01*
X134999022Y-117795241D01*
X134804419Y-117732010D01*
X134602317Y-117700000D01*
X134397683Y-117700000D01*
X134195581Y-117732010D01*
X134195578Y-117732010D01*
X134000976Y-117795241D01*
X134000965Y-117795246D01*
X133955041Y-117818644D01*
X133955040Y-117818645D01*
X132546059Y-117818645D01*
X132499223Y-117794781D01*
X132304534Y-117731522D01*
X132129995Y-117703878D01*
X132102352Y-117699500D01*
X131897648Y-117699500D01*
X131873329Y-117703351D01*
X131695465Y-117731522D01*
X131500776Y-117794781D01*
X131318386Y-117887715D01*
X131152786Y-118008028D01*
X131008028Y-118152786D01*
X130887715Y-118318386D01*
X130794781Y-118500776D01*
X130731522Y-118695465D01*
X130699500Y-118897648D01*
X126500500Y-118897648D01*
X126500500Y-112494863D01*
X128599500Y-112494863D01*
X128599500Y-113505136D01*
X128609582Y-113618548D01*
X128662762Y-113804405D01*
X128662763Y-113804406D01*
X128752266Y-113975751D01*
X128760946Y-113986396D01*
X128874428Y-114125571D01*
X128949339Y-114186652D01*
X129024249Y-114247734D01*
X129195594Y-114337237D01*
X129381448Y-114390417D01*
X129494862Y-114400500D01*
X130253500Y-114400500D01*
X130320539Y-114420185D01*
X130366294Y-114472989D01*
X130377500Y-114524500D01*
X130377500Y-114634221D01*
X130411985Y-114851952D01*
X130480103Y-115061603D01*
X130480104Y-115061606D01*
X130580187Y-115258025D01*
X130709752Y-115436358D01*
X130709756Y-115436363D01*
X130865636Y-115592243D01*
X130865641Y-115592247D01*
X131021192Y-115705260D01*
X131043978Y-115721815D01*
X131172375Y-115787237D01*
X131240393Y-115821895D01*
X131240396Y-115821896D01*
X131345221Y-115855955D01*
X131450049Y-115890015D01*
X131667778Y-115924500D01*
X131667779Y-115924500D01*
X131888221Y-115924500D01*
X131888222Y-115924500D01*
X132105951Y-115890015D01*
X132315606Y-115821895D01*
X132512022Y-115721815D01*
X132690365Y-115592242D01*
X132846242Y-115436365D01*
X132975815Y-115258022D01*
X133075895Y-115061606D01*
X133144015Y-114851951D01*
X133178500Y-114634222D01*
X133178500Y-114634220D01*
X133179262Y-114629410D01*
X133180697Y-114629637D01*
X133203270Y-114570421D01*
X133259503Y-114528953D01*
X133329229Y-114524469D01*
X133390309Y-114558394D01*
X133423353Y-114619957D01*
X133424712Y-114629414D01*
X133424738Y-114629410D01*
X133459985Y-114851952D01*
X133528103Y-115061603D01*
X133528104Y-115061606D01*
X133628187Y-115258025D01*
X133757752Y-115436358D01*
X133757756Y-115436363D01*
X133913636Y-115592243D01*
X133913641Y-115592247D01*
X134069192Y-115705260D01*
X134091978Y-115721815D01*
X134220375Y-115787237D01*
X134288393Y-115821895D01*
X134288396Y-115821896D01*
X134393221Y-115855955D01*
X134498049Y-115890015D01*
X134715778Y-115924500D01*
X134715779Y-115924500D01*
X134936221Y-115924500D01*
X134936222Y-115924500D01*
X135153951Y-115890015D01*
X135363606Y-115821895D01*
X135560022Y-115721815D01*
X135738365Y-115592242D01*
X135894242Y-115436365D01*
X136023815Y-115258022D01*
X136123895Y-115061606D01*
X136192015Y-114851951D01*
X136226500Y-114634222D01*
X136226500Y-114413778D01*
X136192015Y-114196049D01*
X136123895Y-113986394D01*
X136123895Y-113986393D01*
X136089237Y-113918375D01*
X136023815Y-113789978D01*
X136007260Y-113767192D01*
X135894247Y-113611641D01*
X135894243Y-113611636D01*
X135738363Y-113455756D01*
X135738358Y-113455752D01*
X135560025Y-113326187D01*
X135560024Y-113326186D01*
X135560022Y-113326185D01*
X135462130Y-113276306D01*
X135363606Y-113226104D01*
X135363603Y-113226103D01*
X135153952Y-113157985D01*
X135003558Y-113134165D01*
X134936222Y-113123500D01*
X134826000Y-113123500D01*
X134758961Y-113103815D01*
X134713206Y-113051011D01*
X134702000Y-112999500D01*
X134702000Y-112889818D01*
X134667526Y-112672164D01*
X134599429Y-112462584D01*
X134557702Y-112380691D01*
X133707878Y-113230516D01*
X133679617Y-113245947D01*
X133721333Y-113173694D01*
X133752000Y-113059244D01*
X133752000Y-112940756D01*
X133721333Y-112826306D01*
X133662090Y-112723694D01*
X133578306Y-112639910D01*
X133475694Y-112580667D01*
X133361244Y-112550000D01*
X133242756Y-112550000D01*
X133128306Y-112580667D01*
X133025694Y-112639910D01*
X132941910Y-112723694D01*
X132882667Y-112826306D01*
X132852000Y-112940756D01*
X132852000Y-113059244D01*
X132882667Y-113173694D01*
X132926891Y-113250292D01*
X132896121Y-113230517D01*
X132046295Y-112380691D01*
X132004568Y-112462587D01*
X131936473Y-112672164D01*
X131902000Y-112889818D01*
X131902000Y-112999500D01*
X131882315Y-113066539D01*
X131829511Y-113112294D01*
X131778000Y-113123500D01*
X131667778Y-113123500D01*
X131543897Y-113143120D01*
X131474604Y-113134165D01*
X131421152Y-113089169D01*
X131400513Y-113022417D01*
X131400500Y-113020647D01*
X131400500Y-112494869D01*
X131400500Y-112494862D01*
X131390417Y-112381448D01*
X131337237Y-112195594D01*
X131247734Y-112024249D01*
X131186652Y-111949339D01*
X131125571Y-111874428D01*
X131033700Y-111799518D01*
X130975751Y-111752266D01*
X130960491Y-111744295D01*
X132682691Y-111744295D01*
X133302000Y-112363604D01*
X133302001Y-112363604D01*
X133921306Y-111744296D01*
X133839413Y-111702568D01*
X133839410Y-111702567D01*
X133629835Y-111634473D01*
X133412181Y-111600000D01*
X133191819Y-111600000D01*
X132974164Y-111634473D01*
X132764587Y-111702568D01*
X132682691Y-111744295D01*
X130960491Y-111744295D01*
X130880607Y-111702567D01*
X130804405Y-111662762D01*
X130649845Y-111618537D01*
X130618552Y-111609583D01*
X130618551Y-111609582D01*
X130618548Y-111609582D01*
X130529662Y-111601680D01*
X130505138Y-111599500D01*
X129494862Y-111599500D01*
X129482599Y-111600590D01*
X129381451Y-111609582D01*
X129195594Y-111662762D01*
X129024250Y-111752265D01*
X128874428Y-111874428D01*
X128752265Y-112024250D01*
X128662762Y-112195594D01*
X128609582Y-112381451D01*
X128599500Y-112494863D01*
X126500500Y-112494863D01*
X126500500Y-95897648D01*
X130699500Y-95897648D01*
X130699500Y-96102351D01*
X130731522Y-96304534D01*
X130794781Y-96499223D01*
X130887715Y-96681613D01*
X131008028Y-96847213D01*
X131152786Y-96991971D01*
X131307749Y-97104556D01*
X131318390Y-97112287D01*
X131434607Y-97171503D01*
X131500776Y-97205218D01*
X131500778Y-97205218D01*
X131500781Y-97205220D01*
X131605137Y-97239127D01*
X131695465Y-97268477D01*
X131796557Y-97284488D01*
X131897648Y-97300500D01*
X131897649Y-97300500D01*
X132102351Y-97300500D01*
X132102352Y-97300500D01*
X132304534Y-97268477D01*
X132499219Y-97205220D01*
X132546059Y-97181354D01*
X133955040Y-97181354D01*
X134000975Y-97204758D01*
X134195580Y-97267989D01*
X134397683Y-97300000D01*
X134602317Y-97300000D01*
X134804417Y-97267990D01*
X134999031Y-97204755D01*
X135044958Y-97181353D01*
X134500001Y-96636396D01*
X134500000Y-96636396D01*
X133955040Y-97181354D01*
X132546059Y-97181354D01*
X132681610Y-97112287D01*
X132783817Y-97038030D01*
X132783819Y-97038029D01*
X132847212Y-96991971D01*
X132847210Y-96991971D01*
X132847219Y-96991966D01*
X132991966Y-96847219D01*
X132991968Y-96847215D01*
X132991971Y-96847213D01*
X133112286Y-96681611D01*
X133135325Y-96636396D01*
X133151225Y-96605189D01*
X133199198Y-96554395D01*
X133267019Y-96537599D01*
X133281109Y-96539012D01*
X133318646Y-96544958D01*
X133863604Y-96000000D01*
X133863604Y-95999999D01*
X133810944Y-95947339D01*
X134100000Y-95947339D01*
X134100000Y-96052661D01*
X134127259Y-96154394D01*
X134179920Y-96245606D01*
X134254394Y-96320080D01*
X134345606Y-96372741D01*
X134447339Y-96400000D01*
X134552661Y-96400000D01*
X134654394Y-96372741D01*
X134745606Y-96320080D01*
X134820080Y-96245606D01*
X134872741Y-96154394D01*
X134900000Y-96052661D01*
X134900000Y-95999999D01*
X135136396Y-95999999D01*
X135136396Y-96000000D01*
X135681353Y-96544957D01*
X135704755Y-96499031D01*
X135767990Y-96304417D01*
X135800000Y-96102317D01*
X135800000Y-95897682D01*
X135767989Y-95695581D01*
X135767989Y-95695578D01*
X135704758Y-95500976D01*
X135704758Y-95500975D01*
X135681354Y-95455040D01*
X135136396Y-95999999D01*
X134900000Y-95999999D01*
X134900000Y-95947339D01*
X134872741Y-95845606D01*
X134820080Y-95754394D01*
X134745606Y-95679920D01*
X134654394Y-95627259D01*
X134552661Y-95600000D01*
X134447339Y-95600000D01*
X134345606Y-95627259D01*
X134254394Y-95679920D01*
X134179920Y-95754394D01*
X134127259Y-95845606D01*
X134100000Y-95947339D01*
X133810944Y-95947339D01*
X133318645Y-95455040D01*
X133281108Y-95460986D01*
X133211814Y-95452032D01*
X133158362Y-95407036D01*
X133151224Y-95394808D01*
X133150276Y-95392949D01*
X133112287Y-95318390D01*
X133104556Y-95307749D01*
X132991971Y-95152786D01*
X132847219Y-95008034D01*
X132783815Y-94961969D01*
X132783813Y-94961966D01*
X132681613Y-94887715D01*
X132681612Y-94887714D01*
X132681610Y-94887713D01*
X132624653Y-94858691D01*
X132546059Y-94818645D01*
X133955040Y-94818645D01*
X134500000Y-95363604D01*
X134500001Y-95363604D01*
X135044958Y-94818645D01*
X134999024Y-94795242D01*
X134999022Y-94795241D01*
X134804419Y-94732010D01*
X134602317Y-94700000D01*
X134397683Y-94700000D01*
X134195581Y-94732010D01*
X134195578Y-94732010D01*
X134000976Y-94795241D01*
X134000965Y-94795246D01*
X133955041Y-94818644D01*
X133955040Y-94818645D01*
X132546059Y-94818645D01*
X132499223Y-94794781D01*
X132304534Y-94731522D01*
X132129995Y-94703878D01*
X132102352Y-94699500D01*
X131897648Y-94699500D01*
X131873329Y-94703351D01*
X131695465Y-94731522D01*
X131500776Y-94794781D01*
X131318386Y-94887715D01*
X131152786Y-95008028D01*
X131008028Y-95152786D01*
X130887715Y-95318386D01*
X130794781Y-95500776D01*
X130731522Y-95695465D01*
X130699500Y-95897648D01*
X126500500Y-95897648D01*
X126500500Y-89494863D01*
X128599500Y-89494863D01*
X128599500Y-90505136D01*
X128609582Y-90618548D01*
X128662762Y-90804405D01*
X128662763Y-90804406D01*
X128752266Y-90975751D01*
X128760946Y-90986396D01*
X128874428Y-91125571D01*
X128949339Y-91186652D01*
X129024249Y-91247734D01*
X129195594Y-91337237D01*
X129381448Y-91390417D01*
X129494862Y-91400500D01*
X130253500Y-91400500D01*
X130320539Y-91420185D01*
X130366294Y-91472989D01*
X130377500Y-91524500D01*
X130377500Y-91634221D01*
X130411985Y-91851952D01*
X130480103Y-92061603D01*
X130480104Y-92061606D01*
X130580187Y-92258025D01*
X130709752Y-92436358D01*
X130709756Y-92436363D01*
X130865636Y-92592243D01*
X130865641Y-92592247D01*
X131021192Y-92705260D01*
X131043978Y-92721815D01*
X131172375Y-92787237D01*
X131240393Y-92821895D01*
X131240396Y-92821896D01*
X131345221Y-92855955D01*
X131450049Y-92890015D01*
X131667778Y-92924500D01*
X131667779Y-92924500D01*
X131888221Y-92924500D01*
X131888222Y-92924500D01*
X132105951Y-92890015D01*
X132315606Y-92821895D01*
X132512022Y-92721815D01*
X132690365Y-92592242D01*
X132846242Y-92436365D01*
X132975815Y-92258022D01*
X133075895Y-92061606D01*
X133144015Y-91851951D01*
X133178500Y-91634222D01*
X133178500Y-91634220D01*
X133179262Y-91629410D01*
X133180697Y-91629637D01*
X133203270Y-91570421D01*
X133259503Y-91528953D01*
X133329229Y-91524469D01*
X133390309Y-91558394D01*
X133423353Y-91619957D01*
X133424712Y-91629414D01*
X133424738Y-91629410D01*
X133459985Y-91851952D01*
X133528103Y-92061603D01*
X133528104Y-92061606D01*
X133628187Y-92258025D01*
X133757752Y-92436358D01*
X133757756Y-92436363D01*
X133913636Y-92592243D01*
X133913641Y-92592247D01*
X134069192Y-92705260D01*
X134091978Y-92721815D01*
X134220375Y-92787237D01*
X134288393Y-92821895D01*
X134288396Y-92821896D01*
X134393221Y-92855955D01*
X134498049Y-92890015D01*
X134715778Y-92924500D01*
X134715779Y-92924500D01*
X134936221Y-92924500D01*
X134936222Y-92924500D01*
X135153951Y-92890015D01*
X135363606Y-92821895D01*
X135560022Y-92721815D01*
X135738365Y-92592242D01*
X135894242Y-92436365D01*
X136023815Y-92258022D01*
X136123895Y-92061606D01*
X136192015Y-91851951D01*
X136226500Y-91634222D01*
X136226500Y-91413778D01*
X136192015Y-91196049D01*
X136123895Y-90986394D01*
X136123895Y-90986393D01*
X136089237Y-90918375D01*
X136023815Y-90789978D01*
X136007260Y-90767192D01*
X135894247Y-90611641D01*
X135894243Y-90611636D01*
X135738363Y-90455756D01*
X135738358Y-90455752D01*
X135560025Y-90326187D01*
X135560024Y-90326186D01*
X135560022Y-90326185D01*
X135462130Y-90276306D01*
X135363606Y-90226104D01*
X135363603Y-90226103D01*
X135153952Y-90157985D01*
X135003558Y-90134165D01*
X134936222Y-90123500D01*
X134826000Y-90123500D01*
X134758961Y-90103815D01*
X134713206Y-90051011D01*
X134702000Y-89999500D01*
X134702000Y-89889818D01*
X134667526Y-89672164D01*
X134599429Y-89462584D01*
X134557702Y-89380691D01*
X133707878Y-90230516D01*
X133679617Y-90245947D01*
X133721333Y-90173694D01*
X133752000Y-90059244D01*
X133752000Y-89940756D01*
X133721333Y-89826306D01*
X133662090Y-89723694D01*
X133578306Y-89639910D01*
X133475694Y-89580667D01*
X133361244Y-89550000D01*
X133242756Y-89550000D01*
X133128306Y-89580667D01*
X133025694Y-89639910D01*
X132941910Y-89723694D01*
X132882667Y-89826306D01*
X132852000Y-89940756D01*
X132852000Y-90059244D01*
X132882667Y-90173694D01*
X132926891Y-90250292D01*
X132896121Y-90230517D01*
X132046295Y-89380691D01*
X132004568Y-89462587D01*
X131936473Y-89672164D01*
X131902000Y-89889818D01*
X131902000Y-89999500D01*
X131882315Y-90066539D01*
X131829511Y-90112294D01*
X131778000Y-90123500D01*
X131667778Y-90123500D01*
X131543897Y-90143120D01*
X131474604Y-90134165D01*
X131421152Y-90089169D01*
X131400513Y-90022417D01*
X131400500Y-90020647D01*
X131400500Y-89494869D01*
X131400500Y-89494862D01*
X131390417Y-89381448D01*
X131337237Y-89195594D01*
X131247734Y-89024249D01*
X131186652Y-88949339D01*
X131125571Y-88874428D01*
X131033700Y-88799518D01*
X130975751Y-88752266D01*
X130960491Y-88744295D01*
X132682691Y-88744295D01*
X133302000Y-89363604D01*
X133302001Y-89363604D01*
X133921306Y-88744296D01*
X133839413Y-88702568D01*
X133839410Y-88702567D01*
X133629835Y-88634473D01*
X133412181Y-88600000D01*
X133191819Y-88600000D01*
X132974164Y-88634473D01*
X132764587Y-88702568D01*
X132682691Y-88744295D01*
X130960491Y-88744295D01*
X130880607Y-88702567D01*
X130804405Y-88662762D01*
X130649845Y-88618537D01*
X130618552Y-88609583D01*
X130618551Y-88609582D01*
X130618548Y-88609582D01*
X130529662Y-88601680D01*
X130505138Y-88599500D01*
X129494862Y-88599500D01*
X129482599Y-88600590D01*
X129381451Y-88609582D01*
X129195594Y-88662762D01*
X129024250Y-88752265D01*
X128874428Y-88874428D01*
X128752265Y-89024250D01*
X128662762Y-89195594D01*
X128609582Y-89381451D01*
X128599500Y-89494863D01*
X126500500Y-89494863D01*
X126500500Y-81916228D01*
X127549500Y-81916228D01*
X127549500Y-82083771D01*
X127582182Y-82248074D01*
X127582184Y-82248082D01*
X127646295Y-82402860D01*
X127739373Y-82542162D01*
X127857837Y-82660626D01*
X127950494Y-82722537D01*
X127997137Y-82753703D01*
X128151918Y-82817816D01*
X128316228Y-82850499D01*
X128316232Y-82850500D01*
X128316233Y-82850500D01*
X128483768Y-82850500D01*
X128483769Y-82850499D01*
X128648082Y-82817816D01*
X128802863Y-82753703D01*
X128942162Y-82660626D01*
X129060626Y-82542162D01*
X129153703Y-82402863D01*
X129217816Y-82248082D01*
X129250500Y-82083767D01*
X129250500Y-81916233D01*
X129217816Y-81751918D01*
X129171916Y-81641108D01*
X129164448Y-81571641D01*
X129195723Y-81509162D01*
X129255811Y-81473509D01*
X129299081Y-81470299D01*
X129302300Y-81470627D01*
X129349991Y-81475500D01*
X130650008Y-81475499D01*
X130752797Y-81464999D01*
X130919334Y-81409814D01*
X131068656Y-81317712D01*
X131192712Y-81193656D01*
X131284814Y-81044334D01*
X131284814Y-81044331D01*
X131288178Y-81038879D01*
X131340126Y-80992154D01*
X131409088Y-80980931D01*
X131473170Y-81008774D01*
X131481398Y-81016294D01*
X131620213Y-81155109D01*
X131792179Y-81280048D01*
X131792181Y-81280049D01*
X131792184Y-81280051D01*
X131981588Y-81376557D01*
X132183757Y-81442246D01*
X132393713Y-81475500D01*
X132393714Y-81475500D01*
X132606286Y-81475500D01*
X132606287Y-81475500D01*
X132816243Y-81442246D01*
X133018412Y-81376557D01*
X133207816Y-81280051D01*
X133254275Y-81246297D01*
X133379786Y-81155109D01*
X133379788Y-81155106D01*
X133379792Y-81155104D01*
X133530104Y-81004792D01*
X133649991Y-80839779D01*
X133705320Y-80797115D01*
X133774933Y-80791136D01*
X133836729Y-80823741D01*
X133850627Y-80839781D01*
X133970272Y-81004459D01*
X133970276Y-81004464D01*
X134120535Y-81154723D01*
X134120540Y-81154727D01*
X134292442Y-81279620D01*
X134481779Y-81376094D01*
X134481785Y-81376096D01*
X134549999Y-81398259D01*
X134550000Y-81398259D01*
X135450000Y-81398259D01*
X135518214Y-81376096D01*
X135518220Y-81376094D01*
X135707557Y-81279620D01*
X135879459Y-81154727D01*
X135879464Y-81154723D01*
X136029723Y-81004464D01*
X136029727Y-81004459D01*
X136154620Y-80832557D01*
X136251092Y-80643222D01*
X136313875Y-80450000D01*
X135450000Y-80450000D01*
X135450000Y-81398259D01*
X134550000Y-81398259D01*
X134550000Y-80155837D01*
X134557370Y-80183343D01*
X134619905Y-80291657D01*
X134708343Y-80380095D01*
X134816657Y-80442630D01*
X134937465Y-80475000D01*
X135062535Y-80475000D01*
X135183343Y-80442630D01*
X135291657Y-80380095D01*
X135380095Y-80291657D01*
X135442630Y-80183343D01*
X135475000Y-80062535D01*
X135475000Y-79937465D01*
X135442630Y-79816657D01*
X135380095Y-79708343D01*
X135291657Y-79619905D01*
X135183343Y-79557370D01*
X135155837Y-79550000D01*
X135450000Y-79550000D01*
X136313875Y-79550000D01*
X136313874Y-79549999D01*
X136251092Y-79356777D01*
X136154620Y-79167442D01*
X136029727Y-78995540D01*
X136029723Y-78995535D01*
X135879464Y-78845276D01*
X135879459Y-78845272D01*
X135707557Y-78720379D01*
X135518222Y-78623907D01*
X135450000Y-78601740D01*
X135450000Y-79550000D01*
X135155837Y-79550000D01*
X135062535Y-79525000D01*
X134937465Y-79525000D01*
X134816657Y-79557370D01*
X134708343Y-79619905D01*
X134619905Y-79708343D01*
X134557370Y-79816657D01*
X134550000Y-79844162D01*
X134550000Y-78601740D01*
X134549999Y-78601740D01*
X134481777Y-78623907D01*
X134292442Y-78720379D01*
X134120540Y-78845272D01*
X134120535Y-78845276D01*
X133970276Y-78995535D01*
X133970272Y-78995540D01*
X133850627Y-79160218D01*
X133795297Y-79202884D01*
X133725684Y-79208863D01*
X133663889Y-79176257D01*
X133649991Y-79160218D01*
X133530109Y-78995214D01*
X133530105Y-78995209D01*
X133379786Y-78844890D01*
X133207820Y-78719951D01*
X133018414Y-78623444D01*
X133018413Y-78623443D01*
X133018412Y-78623443D01*
X132816243Y-78557754D01*
X132816241Y-78557753D01*
X132816240Y-78557753D01*
X132654957Y-78532208D01*
X132606287Y-78524500D01*
X132393713Y-78524500D01*
X132345042Y-78532208D01*
X132183760Y-78557753D01*
X131981585Y-78623444D01*
X131792179Y-78719951D01*
X131620215Y-78844889D01*
X131481398Y-78983706D01*
X131420075Y-79017190D01*
X131350383Y-79012206D01*
X131294450Y-78970334D01*
X131288178Y-78961120D01*
X131192712Y-78806344D01*
X131068657Y-78682289D01*
X131068656Y-78682288D01*
X130919334Y-78590186D01*
X130752797Y-78535001D01*
X130752795Y-78535000D01*
X130650010Y-78524500D01*
X129349998Y-78524500D01*
X129349981Y-78524501D01*
X129247203Y-78535000D01*
X129247200Y-78535001D01*
X129080668Y-78590185D01*
X129080663Y-78590187D01*
X128931342Y-78682289D01*
X128807289Y-78806342D01*
X128715187Y-78955663D01*
X128715185Y-78955668D01*
X128710325Y-78970334D01*
X128660001Y-79122203D01*
X128660001Y-79122204D01*
X128660000Y-79122204D01*
X128649500Y-79224983D01*
X128649500Y-80775001D01*
X128649501Y-80775018D01*
X128660000Y-80877796D01*
X128660001Y-80877799D01*
X128701830Y-81004028D01*
X128704232Y-81073856D01*
X128668500Y-81133898D01*
X128605980Y-81165091D01*
X128559934Y-81164650D01*
X128508015Y-81154323D01*
X128483767Y-81149500D01*
X128316233Y-81149500D01*
X128316228Y-81149500D01*
X128151925Y-81182182D01*
X128151917Y-81182184D01*
X127997139Y-81246295D01*
X127857837Y-81339373D01*
X127739373Y-81457837D01*
X127646295Y-81597139D01*
X127582184Y-81751917D01*
X127582182Y-81751925D01*
X127549500Y-81916228D01*
X126500500Y-81916228D01*
X126500500Y-76624500D01*
X126520185Y-76557461D01*
X126572989Y-76511706D01*
X126624500Y-76500500D01*
X138375500Y-76500500D01*
X138442539Y-76520185D01*
G37*
%TD.AperFunction*%
%TD*%
M02*
