%TF.GenerationSoftware,KiCad,Pcbnew,9.0.2*%
%TF.CreationDate,2025-12-27T16:53:08-07:00*%
%TF.ProjectId,LED Holder Logic Gates,4c454420-486f-46c6-9465-72204c6f6769,rev?*%
%TF.SameCoordinates,Original*%
%TF.FileFunction,Legend,Bot*%
%TF.FilePolarity,Positive*%
%FSLAX46Y46*%
G04 Gerber Fmt 4.6, Leading zero omitted, Abs format (unit mm)*
G04 Created by KiCad (PCBNEW 9.0.2) date 2025-12-27 16:53:08*
%MOMM*%
%LPD*%
G01*
G04 APERTURE LIST*
%ADD10C,0.250000*%
%ADD11C,0.200000*%
%ADD12C,0.150000*%
%ADD13C,0.120000*%
G04 APERTURE END LIST*
D10*
X137364619Y-159652568D02*
X136364619Y-159652568D01*
X136364619Y-159652568D02*
X136364619Y-159890663D01*
X136364619Y-159890663D02*
X136412238Y-160033520D01*
X136412238Y-160033520D02*
X136507476Y-160128758D01*
X136507476Y-160128758D02*
X136602714Y-160176377D01*
X136602714Y-160176377D02*
X136793190Y-160223996D01*
X136793190Y-160223996D02*
X136936047Y-160223996D01*
X136936047Y-160223996D02*
X137126523Y-160176377D01*
X137126523Y-160176377D02*
X137221761Y-160128758D01*
X137221761Y-160128758D02*
X137317000Y-160033520D01*
X137317000Y-160033520D02*
X137364619Y-159890663D01*
X137364619Y-159890663D02*
X137364619Y-159652568D01*
X137364619Y-160652568D02*
X136364619Y-160652568D01*
X137364619Y-161128758D02*
X136364619Y-161128758D01*
X136364619Y-161128758D02*
X137364619Y-161700186D01*
X137364619Y-161700186D02*
X136364619Y-161700186D01*
X131364619Y-162628758D02*
X131364619Y-162152568D01*
X131364619Y-162152568D02*
X131840809Y-162104949D01*
X131840809Y-162104949D02*
X131793190Y-162152568D01*
X131793190Y-162152568D02*
X131745571Y-162247806D01*
X131745571Y-162247806D02*
X131745571Y-162485901D01*
X131745571Y-162485901D02*
X131793190Y-162581139D01*
X131793190Y-162581139D02*
X131840809Y-162628758D01*
X131840809Y-162628758D02*
X131936047Y-162676377D01*
X131936047Y-162676377D02*
X132174142Y-162676377D01*
X132174142Y-162676377D02*
X132269380Y-162628758D01*
X132269380Y-162628758D02*
X132317000Y-162581139D01*
X132317000Y-162581139D02*
X132364619Y-162485901D01*
X132364619Y-162485901D02*
X132364619Y-162247806D01*
X132364619Y-162247806D02*
X132317000Y-162152568D01*
X132317000Y-162152568D02*
X132269380Y-162104949D01*
X131364619Y-162962092D02*
X132364619Y-163295425D01*
X132364619Y-163295425D02*
X131364619Y-163628758D01*
X128114619Y-157402568D02*
X127114619Y-157402568D01*
X127114619Y-157402568D02*
X127114619Y-157640663D01*
X127114619Y-157640663D02*
X127162238Y-157783520D01*
X127162238Y-157783520D02*
X127257476Y-157878758D01*
X127257476Y-157878758D02*
X127352714Y-157926377D01*
X127352714Y-157926377D02*
X127543190Y-157973996D01*
X127543190Y-157973996D02*
X127686047Y-157973996D01*
X127686047Y-157973996D02*
X127876523Y-157926377D01*
X127876523Y-157926377D02*
X127971761Y-157878758D01*
X127971761Y-157878758D02*
X128067000Y-157783520D01*
X128067000Y-157783520D02*
X128114619Y-157640663D01*
X128114619Y-157640663D02*
X128114619Y-157402568D01*
X127114619Y-158593044D02*
X127114619Y-158783520D01*
X127114619Y-158783520D02*
X127162238Y-158878758D01*
X127162238Y-158878758D02*
X127257476Y-158973996D01*
X127257476Y-158973996D02*
X127447952Y-159021615D01*
X127447952Y-159021615D02*
X127781285Y-159021615D01*
X127781285Y-159021615D02*
X127971761Y-158973996D01*
X127971761Y-158973996D02*
X128067000Y-158878758D01*
X128067000Y-158878758D02*
X128114619Y-158783520D01*
X128114619Y-158783520D02*
X128114619Y-158593044D01*
X128114619Y-158593044D02*
X128067000Y-158497806D01*
X128067000Y-158497806D02*
X127971761Y-158402568D01*
X127971761Y-158402568D02*
X127781285Y-158354949D01*
X127781285Y-158354949D02*
X127447952Y-158354949D01*
X127447952Y-158354949D02*
X127257476Y-158402568D01*
X127257476Y-158402568D02*
X127162238Y-158497806D01*
X127162238Y-158497806D02*
X127114619Y-158593044D01*
X127114619Y-159450187D02*
X127924142Y-159450187D01*
X127924142Y-159450187D02*
X128019380Y-159497806D01*
X128019380Y-159497806D02*
X128067000Y-159545425D01*
X128067000Y-159545425D02*
X128114619Y-159640663D01*
X128114619Y-159640663D02*
X128114619Y-159831139D01*
X128114619Y-159831139D02*
X128067000Y-159926377D01*
X128067000Y-159926377D02*
X128019380Y-159973996D01*
X128019380Y-159973996D02*
X127924142Y-160021615D01*
X127924142Y-160021615D02*
X127114619Y-160021615D01*
X127114619Y-160354949D02*
X127114619Y-160926377D01*
X128114619Y-160640663D02*
X127114619Y-160640663D01*
X132912238Y-155176377D02*
X132864619Y-155081139D01*
X132864619Y-155081139D02*
X132864619Y-154938282D01*
X132864619Y-154938282D02*
X132912238Y-154795425D01*
X132912238Y-154795425D02*
X133007476Y-154700187D01*
X133007476Y-154700187D02*
X133102714Y-154652568D01*
X133102714Y-154652568D02*
X133293190Y-154604949D01*
X133293190Y-154604949D02*
X133436047Y-154604949D01*
X133436047Y-154604949D02*
X133626523Y-154652568D01*
X133626523Y-154652568D02*
X133721761Y-154700187D01*
X133721761Y-154700187D02*
X133817000Y-154795425D01*
X133817000Y-154795425D02*
X133864619Y-154938282D01*
X133864619Y-154938282D02*
X133864619Y-155033520D01*
X133864619Y-155033520D02*
X133817000Y-155176377D01*
X133817000Y-155176377D02*
X133769380Y-155223996D01*
X133769380Y-155223996D02*
X133436047Y-155223996D01*
X133436047Y-155223996D02*
X133436047Y-155033520D01*
X133864619Y-155652568D02*
X132864619Y-155652568D01*
X132864619Y-155652568D02*
X133864619Y-156223996D01*
X133864619Y-156223996D02*
X132864619Y-156223996D01*
X133864619Y-156700187D02*
X132864619Y-156700187D01*
X132864619Y-156700187D02*
X132864619Y-156938282D01*
X132864619Y-156938282D02*
X132912238Y-157081139D01*
X132912238Y-157081139D02*
X133007476Y-157176377D01*
X133007476Y-157176377D02*
X133102714Y-157223996D01*
X133102714Y-157223996D02*
X133293190Y-157271615D01*
X133293190Y-157271615D02*
X133436047Y-157271615D01*
X133436047Y-157271615D02*
X133626523Y-157223996D01*
X133626523Y-157223996D02*
X133721761Y-157176377D01*
X133721761Y-157176377D02*
X133817000Y-157081139D01*
X133817000Y-157081139D02*
X133864619Y-156938282D01*
X133864619Y-156938282D02*
X133864619Y-156700187D01*
X137364619Y-136652568D02*
X136364619Y-136652568D01*
X136364619Y-136652568D02*
X136364619Y-136890663D01*
X136364619Y-136890663D02*
X136412238Y-137033520D01*
X136412238Y-137033520D02*
X136507476Y-137128758D01*
X136507476Y-137128758D02*
X136602714Y-137176377D01*
X136602714Y-137176377D02*
X136793190Y-137223996D01*
X136793190Y-137223996D02*
X136936047Y-137223996D01*
X136936047Y-137223996D02*
X137126523Y-137176377D01*
X137126523Y-137176377D02*
X137221761Y-137128758D01*
X137221761Y-137128758D02*
X137317000Y-137033520D01*
X137317000Y-137033520D02*
X137364619Y-136890663D01*
X137364619Y-136890663D02*
X137364619Y-136652568D01*
X137364619Y-137652568D02*
X136364619Y-137652568D01*
X137364619Y-138128758D02*
X136364619Y-138128758D01*
X136364619Y-138128758D02*
X137364619Y-138700186D01*
X137364619Y-138700186D02*
X136364619Y-138700186D01*
X131364619Y-139628758D02*
X131364619Y-139152568D01*
X131364619Y-139152568D02*
X131840809Y-139104949D01*
X131840809Y-139104949D02*
X131793190Y-139152568D01*
X131793190Y-139152568D02*
X131745571Y-139247806D01*
X131745571Y-139247806D02*
X131745571Y-139485901D01*
X131745571Y-139485901D02*
X131793190Y-139581139D01*
X131793190Y-139581139D02*
X131840809Y-139628758D01*
X131840809Y-139628758D02*
X131936047Y-139676377D01*
X131936047Y-139676377D02*
X132174142Y-139676377D01*
X132174142Y-139676377D02*
X132269380Y-139628758D01*
X132269380Y-139628758D02*
X132317000Y-139581139D01*
X132317000Y-139581139D02*
X132364619Y-139485901D01*
X132364619Y-139485901D02*
X132364619Y-139247806D01*
X132364619Y-139247806D02*
X132317000Y-139152568D01*
X132317000Y-139152568D02*
X132269380Y-139104949D01*
X131364619Y-139962092D02*
X132364619Y-140295425D01*
X132364619Y-140295425D02*
X131364619Y-140628758D01*
X128114619Y-134402568D02*
X127114619Y-134402568D01*
X127114619Y-134402568D02*
X127114619Y-134640663D01*
X127114619Y-134640663D02*
X127162238Y-134783520D01*
X127162238Y-134783520D02*
X127257476Y-134878758D01*
X127257476Y-134878758D02*
X127352714Y-134926377D01*
X127352714Y-134926377D02*
X127543190Y-134973996D01*
X127543190Y-134973996D02*
X127686047Y-134973996D01*
X127686047Y-134973996D02*
X127876523Y-134926377D01*
X127876523Y-134926377D02*
X127971761Y-134878758D01*
X127971761Y-134878758D02*
X128067000Y-134783520D01*
X128067000Y-134783520D02*
X128114619Y-134640663D01*
X128114619Y-134640663D02*
X128114619Y-134402568D01*
X127114619Y-135593044D02*
X127114619Y-135783520D01*
X127114619Y-135783520D02*
X127162238Y-135878758D01*
X127162238Y-135878758D02*
X127257476Y-135973996D01*
X127257476Y-135973996D02*
X127447952Y-136021615D01*
X127447952Y-136021615D02*
X127781285Y-136021615D01*
X127781285Y-136021615D02*
X127971761Y-135973996D01*
X127971761Y-135973996D02*
X128067000Y-135878758D01*
X128067000Y-135878758D02*
X128114619Y-135783520D01*
X128114619Y-135783520D02*
X128114619Y-135593044D01*
X128114619Y-135593044D02*
X128067000Y-135497806D01*
X128067000Y-135497806D02*
X127971761Y-135402568D01*
X127971761Y-135402568D02*
X127781285Y-135354949D01*
X127781285Y-135354949D02*
X127447952Y-135354949D01*
X127447952Y-135354949D02*
X127257476Y-135402568D01*
X127257476Y-135402568D02*
X127162238Y-135497806D01*
X127162238Y-135497806D02*
X127114619Y-135593044D01*
X127114619Y-136450187D02*
X127924142Y-136450187D01*
X127924142Y-136450187D02*
X128019380Y-136497806D01*
X128019380Y-136497806D02*
X128067000Y-136545425D01*
X128067000Y-136545425D02*
X128114619Y-136640663D01*
X128114619Y-136640663D02*
X128114619Y-136831139D01*
X128114619Y-136831139D02*
X128067000Y-136926377D01*
X128067000Y-136926377D02*
X128019380Y-136973996D01*
X128019380Y-136973996D02*
X127924142Y-137021615D01*
X127924142Y-137021615D02*
X127114619Y-137021615D01*
X127114619Y-137354949D02*
X127114619Y-137926377D01*
X128114619Y-137640663D02*
X127114619Y-137640663D01*
X132912238Y-132176377D02*
X132864619Y-132081139D01*
X132864619Y-132081139D02*
X132864619Y-131938282D01*
X132864619Y-131938282D02*
X132912238Y-131795425D01*
X132912238Y-131795425D02*
X133007476Y-131700187D01*
X133007476Y-131700187D02*
X133102714Y-131652568D01*
X133102714Y-131652568D02*
X133293190Y-131604949D01*
X133293190Y-131604949D02*
X133436047Y-131604949D01*
X133436047Y-131604949D02*
X133626523Y-131652568D01*
X133626523Y-131652568D02*
X133721761Y-131700187D01*
X133721761Y-131700187D02*
X133817000Y-131795425D01*
X133817000Y-131795425D02*
X133864619Y-131938282D01*
X133864619Y-131938282D02*
X133864619Y-132033520D01*
X133864619Y-132033520D02*
X133817000Y-132176377D01*
X133817000Y-132176377D02*
X133769380Y-132223996D01*
X133769380Y-132223996D02*
X133436047Y-132223996D01*
X133436047Y-132223996D02*
X133436047Y-132033520D01*
X133864619Y-132652568D02*
X132864619Y-132652568D01*
X132864619Y-132652568D02*
X133864619Y-133223996D01*
X133864619Y-133223996D02*
X132864619Y-133223996D01*
X133864619Y-133700187D02*
X132864619Y-133700187D01*
X132864619Y-133700187D02*
X132864619Y-133938282D01*
X132864619Y-133938282D02*
X132912238Y-134081139D01*
X132912238Y-134081139D02*
X133007476Y-134176377D01*
X133007476Y-134176377D02*
X133102714Y-134223996D01*
X133102714Y-134223996D02*
X133293190Y-134271615D01*
X133293190Y-134271615D02*
X133436047Y-134271615D01*
X133436047Y-134271615D02*
X133626523Y-134223996D01*
X133626523Y-134223996D02*
X133721761Y-134176377D01*
X133721761Y-134176377D02*
X133817000Y-134081139D01*
X133817000Y-134081139D02*
X133864619Y-133938282D01*
X133864619Y-133938282D02*
X133864619Y-133700187D01*
X137364619Y-90549813D02*
X136364619Y-90549813D01*
X136364619Y-90549813D02*
X136364619Y-90787908D01*
X136364619Y-90787908D02*
X136412238Y-90930765D01*
X136412238Y-90930765D02*
X136507476Y-91026003D01*
X136507476Y-91026003D02*
X136602714Y-91073622D01*
X136602714Y-91073622D02*
X136793190Y-91121241D01*
X136793190Y-91121241D02*
X136936047Y-91121241D01*
X136936047Y-91121241D02*
X137126523Y-91073622D01*
X137126523Y-91073622D02*
X137221761Y-91026003D01*
X137221761Y-91026003D02*
X137317000Y-90930765D01*
X137317000Y-90930765D02*
X137364619Y-90787908D01*
X137364619Y-90787908D02*
X137364619Y-90549813D01*
X137364619Y-91549813D02*
X136364619Y-91549813D01*
X137364619Y-92026003D02*
X136364619Y-92026003D01*
X136364619Y-92026003D02*
X137364619Y-92597431D01*
X137364619Y-92597431D02*
X136364619Y-92597431D01*
X131364619Y-93628758D02*
X131364619Y-93152568D01*
X131364619Y-93152568D02*
X131840809Y-93104949D01*
X131840809Y-93104949D02*
X131793190Y-93152568D01*
X131793190Y-93152568D02*
X131745571Y-93247806D01*
X131745571Y-93247806D02*
X131745571Y-93485901D01*
X131745571Y-93485901D02*
X131793190Y-93581139D01*
X131793190Y-93581139D02*
X131840809Y-93628758D01*
X131840809Y-93628758D02*
X131936047Y-93676377D01*
X131936047Y-93676377D02*
X132174142Y-93676377D01*
X132174142Y-93676377D02*
X132269380Y-93628758D01*
X132269380Y-93628758D02*
X132317000Y-93581139D01*
X132317000Y-93581139D02*
X132364619Y-93485901D01*
X132364619Y-93485901D02*
X132364619Y-93247806D01*
X132364619Y-93247806D02*
X132317000Y-93152568D01*
X132317000Y-93152568D02*
X132269380Y-93104949D01*
X131364619Y-93962092D02*
X132364619Y-94295425D01*
X132364619Y-94295425D02*
X131364619Y-94628758D01*
X128114619Y-88402568D02*
X127114619Y-88402568D01*
X127114619Y-88402568D02*
X127114619Y-88640663D01*
X127114619Y-88640663D02*
X127162238Y-88783520D01*
X127162238Y-88783520D02*
X127257476Y-88878758D01*
X127257476Y-88878758D02*
X127352714Y-88926377D01*
X127352714Y-88926377D02*
X127543190Y-88973996D01*
X127543190Y-88973996D02*
X127686047Y-88973996D01*
X127686047Y-88973996D02*
X127876523Y-88926377D01*
X127876523Y-88926377D02*
X127971761Y-88878758D01*
X127971761Y-88878758D02*
X128067000Y-88783520D01*
X128067000Y-88783520D02*
X128114619Y-88640663D01*
X128114619Y-88640663D02*
X128114619Y-88402568D01*
X127114619Y-89593044D02*
X127114619Y-89783520D01*
X127114619Y-89783520D02*
X127162238Y-89878758D01*
X127162238Y-89878758D02*
X127257476Y-89973996D01*
X127257476Y-89973996D02*
X127447952Y-90021615D01*
X127447952Y-90021615D02*
X127781285Y-90021615D01*
X127781285Y-90021615D02*
X127971761Y-89973996D01*
X127971761Y-89973996D02*
X128067000Y-89878758D01*
X128067000Y-89878758D02*
X128114619Y-89783520D01*
X128114619Y-89783520D02*
X128114619Y-89593044D01*
X128114619Y-89593044D02*
X128067000Y-89497806D01*
X128067000Y-89497806D02*
X127971761Y-89402568D01*
X127971761Y-89402568D02*
X127781285Y-89354949D01*
X127781285Y-89354949D02*
X127447952Y-89354949D01*
X127447952Y-89354949D02*
X127257476Y-89402568D01*
X127257476Y-89402568D02*
X127162238Y-89497806D01*
X127162238Y-89497806D02*
X127114619Y-89593044D01*
X127114619Y-90450187D02*
X127924142Y-90450187D01*
X127924142Y-90450187D02*
X128019380Y-90497806D01*
X128019380Y-90497806D02*
X128067000Y-90545425D01*
X128067000Y-90545425D02*
X128114619Y-90640663D01*
X128114619Y-90640663D02*
X128114619Y-90831139D01*
X128114619Y-90831139D02*
X128067000Y-90926377D01*
X128067000Y-90926377D02*
X128019380Y-90973996D01*
X128019380Y-90973996D02*
X127924142Y-91021615D01*
X127924142Y-91021615D02*
X127114619Y-91021615D01*
X127114619Y-91354949D02*
X127114619Y-91926377D01*
X128114619Y-91640663D02*
X127114619Y-91640663D01*
X132912238Y-86176377D02*
X132864619Y-86081139D01*
X132864619Y-86081139D02*
X132864619Y-85938282D01*
X132864619Y-85938282D02*
X132912238Y-85795425D01*
X132912238Y-85795425D02*
X133007476Y-85700187D01*
X133007476Y-85700187D02*
X133102714Y-85652568D01*
X133102714Y-85652568D02*
X133293190Y-85604949D01*
X133293190Y-85604949D02*
X133436047Y-85604949D01*
X133436047Y-85604949D02*
X133626523Y-85652568D01*
X133626523Y-85652568D02*
X133721761Y-85700187D01*
X133721761Y-85700187D02*
X133817000Y-85795425D01*
X133817000Y-85795425D02*
X133864619Y-85938282D01*
X133864619Y-85938282D02*
X133864619Y-86033520D01*
X133864619Y-86033520D02*
X133817000Y-86176377D01*
X133817000Y-86176377D02*
X133769380Y-86223996D01*
X133769380Y-86223996D02*
X133436047Y-86223996D01*
X133436047Y-86223996D02*
X133436047Y-86033520D01*
X133864619Y-86652568D02*
X132864619Y-86652568D01*
X132864619Y-86652568D02*
X133864619Y-87223996D01*
X133864619Y-87223996D02*
X132864619Y-87223996D01*
X133864619Y-87700187D02*
X132864619Y-87700187D01*
X132864619Y-87700187D02*
X132864619Y-87938282D01*
X132864619Y-87938282D02*
X132912238Y-88081139D01*
X132912238Y-88081139D02*
X133007476Y-88176377D01*
X133007476Y-88176377D02*
X133102714Y-88223996D01*
X133102714Y-88223996D02*
X133293190Y-88271615D01*
X133293190Y-88271615D02*
X133436047Y-88271615D01*
X133436047Y-88271615D02*
X133626523Y-88223996D01*
X133626523Y-88223996D02*
X133721761Y-88176377D01*
X133721761Y-88176377D02*
X133817000Y-88081139D01*
X133817000Y-88081139D02*
X133864619Y-87938282D01*
X133864619Y-87938282D02*
X133864619Y-87700187D01*
X128114619Y-111402568D02*
X127114619Y-111402568D01*
X127114619Y-111402568D02*
X127114619Y-111640663D01*
X127114619Y-111640663D02*
X127162238Y-111783520D01*
X127162238Y-111783520D02*
X127257476Y-111878758D01*
X127257476Y-111878758D02*
X127352714Y-111926377D01*
X127352714Y-111926377D02*
X127543190Y-111973996D01*
X127543190Y-111973996D02*
X127686047Y-111973996D01*
X127686047Y-111973996D02*
X127876523Y-111926377D01*
X127876523Y-111926377D02*
X127971761Y-111878758D01*
X127971761Y-111878758D02*
X128067000Y-111783520D01*
X128067000Y-111783520D02*
X128114619Y-111640663D01*
X128114619Y-111640663D02*
X128114619Y-111402568D01*
X127114619Y-112593044D02*
X127114619Y-112783520D01*
X127114619Y-112783520D02*
X127162238Y-112878758D01*
X127162238Y-112878758D02*
X127257476Y-112973996D01*
X127257476Y-112973996D02*
X127447952Y-113021615D01*
X127447952Y-113021615D02*
X127781285Y-113021615D01*
X127781285Y-113021615D02*
X127971761Y-112973996D01*
X127971761Y-112973996D02*
X128067000Y-112878758D01*
X128067000Y-112878758D02*
X128114619Y-112783520D01*
X128114619Y-112783520D02*
X128114619Y-112593044D01*
X128114619Y-112593044D02*
X128067000Y-112497806D01*
X128067000Y-112497806D02*
X127971761Y-112402568D01*
X127971761Y-112402568D02*
X127781285Y-112354949D01*
X127781285Y-112354949D02*
X127447952Y-112354949D01*
X127447952Y-112354949D02*
X127257476Y-112402568D01*
X127257476Y-112402568D02*
X127162238Y-112497806D01*
X127162238Y-112497806D02*
X127114619Y-112593044D01*
X127114619Y-113450187D02*
X127924142Y-113450187D01*
X127924142Y-113450187D02*
X128019380Y-113497806D01*
X128019380Y-113497806D02*
X128067000Y-113545425D01*
X128067000Y-113545425D02*
X128114619Y-113640663D01*
X128114619Y-113640663D02*
X128114619Y-113831139D01*
X128114619Y-113831139D02*
X128067000Y-113926377D01*
X128067000Y-113926377D02*
X128019380Y-113973996D01*
X128019380Y-113973996D02*
X127924142Y-114021615D01*
X127924142Y-114021615D02*
X127114619Y-114021615D01*
X127114619Y-114354949D02*
X127114619Y-114926377D01*
X128114619Y-114640663D02*
X127114619Y-114640663D01*
X131364619Y-116628758D02*
X131364619Y-116152568D01*
X131364619Y-116152568D02*
X131840809Y-116104949D01*
X131840809Y-116104949D02*
X131793190Y-116152568D01*
X131793190Y-116152568D02*
X131745571Y-116247806D01*
X131745571Y-116247806D02*
X131745571Y-116485901D01*
X131745571Y-116485901D02*
X131793190Y-116581139D01*
X131793190Y-116581139D02*
X131840809Y-116628758D01*
X131840809Y-116628758D02*
X131936047Y-116676377D01*
X131936047Y-116676377D02*
X132174142Y-116676377D01*
X132174142Y-116676377D02*
X132269380Y-116628758D01*
X132269380Y-116628758D02*
X132317000Y-116581139D01*
X132317000Y-116581139D02*
X132364619Y-116485901D01*
X132364619Y-116485901D02*
X132364619Y-116247806D01*
X132364619Y-116247806D02*
X132317000Y-116152568D01*
X132317000Y-116152568D02*
X132269380Y-116104949D01*
X131364619Y-116962092D02*
X132364619Y-117295425D01*
X132364619Y-117295425D02*
X131364619Y-117628758D01*
X132912238Y-109176377D02*
X132864619Y-109081139D01*
X132864619Y-109081139D02*
X132864619Y-108938282D01*
X132864619Y-108938282D02*
X132912238Y-108795425D01*
X132912238Y-108795425D02*
X133007476Y-108700187D01*
X133007476Y-108700187D02*
X133102714Y-108652568D01*
X133102714Y-108652568D02*
X133293190Y-108604949D01*
X133293190Y-108604949D02*
X133436047Y-108604949D01*
X133436047Y-108604949D02*
X133626523Y-108652568D01*
X133626523Y-108652568D02*
X133721761Y-108700187D01*
X133721761Y-108700187D02*
X133817000Y-108795425D01*
X133817000Y-108795425D02*
X133864619Y-108938282D01*
X133864619Y-108938282D02*
X133864619Y-109033520D01*
X133864619Y-109033520D02*
X133817000Y-109176377D01*
X133817000Y-109176377D02*
X133769380Y-109223996D01*
X133769380Y-109223996D02*
X133436047Y-109223996D01*
X133436047Y-109223996D02*
X133436047Y-109033520D01*
X133864619Y-109652568D02*
X132864619Y-109652568D01*
X132864619Y-109652568D02*
X133864619Y-110223996D01*
X133864619Y-110223996D02*
X132864619Y-110223996D01*
X133864619Y-110700187D02*
X132864619Y-110700187D01*
X132864619Y-110700187D02*
X132864619Y-110938282D01*
X132864619Y-110938282D02*
X132912238Y-111081139D01*
X132912238Y-111081139D02*
X133007476Y-111176377D01*
X133007476Y-111176377D02*
X133102714Y-111223996D01*
X133102714Y-111223996D02*
X133293190Y-111271615D01*
X133293190Y-111271615D02*
X133436047Y-111271615D01*
X133436047Y-111271615D02*
X133626523Y-111223996D01*
X133626523Y-111223996D02*
X133721761Y-111176377D01*
X133721761Y-111176377D02*
X133817000Y-111081139D01*
X133817000Y-111081139D02*
X133864619Y-110938282D01*
X133864619Y-110938282D02*
X133864619Y-110700187D01*
X137364619Y-113549813D02*
X136364619Y-113549813D01*
X136364619Y-113549813D02*
X136364619Y-113787908D01*
X136364619Y-113787908D02*
X136412238Y-113930765D01*
X136412238Y-113930765D02*
X136507476Y-114026003D01*
X136507476Y-114026003D02*
X136602714Y-114073622D01*
X136602714Y-114073622D02*
X136793190Y-114121241D01*
X136793190Y-114121241D02*
X136936047Y-114121241D01*
X136936047Y-114121241D02*
X137126523Y-114073622D01*
X137126523Y-114073622D02*
X137221761Y-114026003D01*
X137221761Y-114026003D02*
X137317000Y-113930765D01*
X137317000Y-113930765D02*
X137364619Y-113787908D01*
X137364619Y-113787908D02*
X137364619Y-113549813D01*
X137364619Y-114549813D02*
X136364619Y-114549813D01*
X137364619Y-115026003D02*
X136364619Y-115026003D01*
X136364619Y-115026003D02*
X137364619Y-115597431D01*
X137364619Y-115597431D02*
X136364619Y-115597431D01*
D11*
X136619048Y-123232331D02*
X137095238Y-123232331D01*
X137095238Y-123232331D02*
X137095238Y-122232331D01*
X136142857Y-123232331D02*
X136238095Y-123184712D01*
X136238095Y-123184712D02*
X136285714Y-123137092D01*
X136285714Y-123137092D02*
X136333333Y-123041854D01*
X136333333Y-123041854D02*
X136333333Y-122756140D01*
X136333333Y-122756140D02*
X136285714Y-122660902D01*
X136285714Y-122660902D02*
X136238095Y-122613283D01*
X136238095Y-122613283D02*
X136142857Y-122565664D01*
X136142857Y-122565664D02*
X136000000Y-122565664D01*
X136000000Y-122565664D02*
X135904762Y-122613283D01*
X135904762Y-122613283D02*
X135857143Y-122660902D01*
X135857143Y-122660902D02*
X135809524Y-122756140D01*
X135809524Y-122756140D02*
X135809524Y-123041854D01*
X135809524Y-123041854D02*
X135857143Y-123137092D01*
X135857143Y-123137092D02*
X135904762Y-123184712D01*
X135904762Y-123184712D02*
X136000000Y-123232331D01*
X136000000Y-123232331D02*
X136142857Y-123232331D01*
X134952381Y-122565664D02*
X134952381Y-123375188D01*
X134952381Y-123375188D02*
X135000000Y-123470426D01*
X135000000Y-123470426D02*
X135047619Y-123518045D01*
X135047619Y-123518045D02*
X135142857Y-123565664D01*
X135142857Y-123565664D02*
X135285714Y-123565664D01*
X135285714Y-123565664D02*
X135380952Y-123518045D01*
X134952381Y-123184712D02*
X135047619Y-123232331D01*
X135047619Y-123232331D02*
X135238095Y-123232331D01*
X135238095Y-123232331D02*
X135333333Y-123184712D01*
X135333333Y-123184712D02*
X135380952Y-123137092D01*
X135380952Y-123137092D02*
X135428571Y-123041854D01*
X135428571Y-123041854D02*
X135428571Y-122756140D01*
X135428571Y-122756140D02*
X135380952Y-122660902D01*
X135380952Y-122660902D02*
X135333333Y-122613283D01*
X135333333Y-122613283D02*
X135238095Y-122565664D01*
X135238095Y-122565664D02*
X135047619Y-122565664D01*
X135047619Y-122565664D02*
X134952381Y-122613283D01*
X134476190Y-123232331D02*
X134476190Y-122565664D01*
X134476190Y-122232331D02*
X134523809Y-122279950D01*
X134523809Y-122279950D02*
X134476190Y-122327569D01*
X134476190Y-122327569D02*
X134428571Y-122279950D01*
X134428571Y-122279950D02*
X134476190Y-122232331D01*
X134476190Y-122232331D02*
X134476190Y-122327569D01*
X133571429Y-123184712D02*
X133666667Y-123232331D01*
X133666667Y-123232331D02*
X133857143Y-123232331D01*
X133857143Y-123232331D02*
X133952381Y-123184712D01*
X133952381Y-123184712D02*
X134000000Y-123137092D01*
X134000000Y-123137092D02*
X134047619Y-123041854D01*
X134047619Y-123041854D02*
X134047619Y-122756140D01*
X134047619Y-122756140D02*
X134000000Y-122660902D01*
X134000000Y-122660902D02*
X133952381Y-122613283D01*
X133952381Y-122613283D02*
X133857143Y-122565664D01*
X133857143Y-122565664D02*
X133666667Y-122565664D01*
X133666667Y-122565664D02*
X133571429Y-122613283D01*
X132380952Y-123232331D02*
X132380952Y-122232331D01*
X132380952Y-122232331D02*
X132000000Y-122232331D01*
X132000000Y-122232331D02*
X131904762Y-122279950D01*
X131904762Y-122279950D02*
X131857143Y-122327569D01*
X131857143Y-122327569D02*
X131809524Y-122422807D01*
X131809524Y-122422807D02*
X131809524Y-122565664D01*
X131809524Y-122565664D02*
X131857143Y-122660902D01*
X131857143Y-122660902D02*
X131904762Y-122708521D01*
X131904762Y-122708521D02*
X132000000Y-122756140D01*
X132000000Y-122756140D02*
X132380952Y-122756140D01*
X130952381Y-123232331D02*
X130952381Y-122708521D01*
X130952381Y-122708521D02*
X131000000Y-122613283D01*
X131000000Y-122613283D02*
X131095238Y-122565664D01*
X131095238Y-122565664D02*
X131285714Y-122565664D01*
X131285714Y-122565664D02*
X131380952Y-122613283D01*
X130952381Y-123184712D02*
X131047619Y-123232331D01*
X131047619Y-123232331D02*
X131285714Y-123232331D01*
X131285714Y-123232331D02*
X131380952Y-123184712D01*
X131380952Y-123184712D02*
X131428571Y-123089473D01*
X131428571Y-123089473D02*
X131428571Y-122994235D01*
X131428571Y-122994235D02*
X131380952Y-122898997D01*
X131380952Y-122898997D02*
X131285714Y-122851378D01*
X131285714Y-122851378D02*
X131047619Y-122851378D01*
X131047619Y-122851378D02*
X130952381Y-122803759D01*
X130476190Y-122565664D02*
X130476190Y-123232331D01*
X130476190Y-122660902D02*
X130428571Y-122613283D01*
X130428571Y-122613283D02*
X130333333Y-122565664D01*
X130333333Y-122565664D02*
X130190476Y-122565664D01*
X130190476Y-122565664D02*
X130095238Y-122613283D01*
X130095238Y-122613283D02*
X130047619Y-122708521D01*
X130047619Y-122708521D02*
X130047619Y-123232331D01*
X129190476Y-123184712D02*
X129285714Y-123232331D01*
X129285714Y-123232331D02*
X129476190Y-123232331D01*
X129476190Y-123232331D02*
X129571428Y-123184712D01*
X129571428Y-123184712D02*
X129619047Y-123089473D01*
X129619047Y-123089473D02*
X129619047Y-122708521D01*
X129619047Y-122708521D02*
X129571428Y-122613283D01*
X129571428Y-122613283D02*
X129476190Y-122565664D01*
X129476190Y-122565664D02*
X129285714Y-122565664D01*
X129285714Y-122565664D02*
X129190476Y-122613283D01*
X129190476Y-122613283D02*
X129142857Y-122708521D01*
X129142857Y-122708521D02*
X129142857Y-122803759D01*
X129142857Y-122803759D02*
X129619047Y-122898997D01*
X128571428Y-123232331D02*
X128666666Y-123184712D01*
X128666666Y-123184712D02*
X128714285Y-123089473D01*
X128714285Y-123089473D02*
X128714285Y-122232331D01*
X138119047Y-123842275D02*
X137880952Y-124842275D01*
X137880952Y-124842275D02*
X137690476Y-124127989D01*
X137690476Y-124127989D02*
X137500000Y-124842275D01*
X137500000Y-124842275D02*
X137261905Y-123842275D01*
X136928571Y-124794656D02*
X136785714Y-124842275D01*
X136785714Y-124842275D02*
X136547619Y-124842275D01*
X136547619Y-124842275D02*
X136452381Y-124794656D01*
X136452381Y-124794656D02*
X136404762Y-124747036D01*
X136404762Y-124747036D02*
X136357143Y-124651798D01*
X136357143Y-124651798D02*
X136357143Y-124556560D01*
X136357143Y-124556560D02*
X136404762Y-124461322D01*
X136404762Y-124461322D02*
X136452381Y-124413703D01*
X136452381Y-124413703D02*
X136547619Y-124366084D01*
X136547619Y-124366084D02*
X136738095Y-124318465D01*
X136738095Y-124318465D02*
X136833333Y-124270846D01*
X136833333Y-124270846D02*
X136880952Y-124223227D01*
X136880952Y-124223227D02*
X136928571Y-124127989D01*
X136928571Y-124127989D02*
X136928571Y-124032751D01*
X136928571Y-124032751D02*
X136880952Y-123937513D01*
X136880952Y-123937513D02*
X136833333Y-123889894D01*
X136833333Y-123889894D02*
X136738095Y-123842275D01*
X136738095Y-123842275D02*
X136500000Y-123842275D01*
X136500000Y-123842275D02*
X136357143Y-123889894D01*
X135976190Y-123937513D02*
X135928571Y-123889894D01*
X135928571Y-123889894D02*
X135833333Y-123842275D01*
X135833333Y-123842275D02*
X135595238Y-123842275D01*
X135595238Y-123842275D02*
X135500000Y-123889894D01*
X135500000Y-123889894D02*
X135452381Y-123937513D01*
X135452381Y-123937513D02*
X135404762Y-124032751D01*
X135404762Y-124032751D02*
X135404762Y-124127989D01*
X135404762Y-124127989D02*
X135452381Y-124270846D01*
X135452381Y-124270846D02*
X136023809Y-124842275D01*
X136023809Y-124842275D02*
X135404762Y-124842275D01*
X134833333Y-124270846D02*
X134928571Y-124223227D01*
X134928571Y-124223227D02*
X134976190Y-124175608D01*
X134976190Y-124175608D02*
X135023809Y-124080370D01*
X135023809Y-124080370D02*
X135023809Y-124032751D01*
X135023809Y-124032751D02*
X134976190Y-123937513D01*
X134976190Y-123937513D02*
X134928571Y-123889894D01*
X134928571Y-123889894D02*
X134833333Y-123842275D01*
X134833333Y-123842275D02*
X134642857Y-123842275D01*
X134642857Y-123842275D02*
X134547619Y-123889894D01*
X134547619Y-123889894D02*
X134500000Y-123937513D01*
X134500000Y-123937513D02*
X134452381Y-124032751D01*
X134452381Y-124032751D02*
X134452381Y-124080370D01*
X134452381Y-124080370D02*
X134500000Y-124175608D01*
X134500000Y-124175608D02*
X134547619Y-124223227D01*
X134547619Y-124223227D02*
X134642857Y-124270846D01*
X134642857Y-124270846D02*
X134833333Y-124270846D01*
X134833333Y-124270846D02*
X134928571Y-124318465D01*
X134928571Y-124318465D02*
X134976190Y-124366084D01*
X134976190Y-124366084D02*
X135023809Y-124461322D01*
X135023809Y-124461322D02*
X135023809Y-124651798D01*
X135023809Y-124651798D02*
X134976190Y-124747036D01*
X134976190Y-124747036D02*
X134928571Y-124794656D01*
X134928571Y-124794656D02*
X134833333Y-124842275D01*
X134833333Y-124842275D02*
X134642857Y-124842275D01*
X134642857Y-124842275D02*
X134547619Y-124794656D01*
X134547619Y-124794656D02*
X134500000Y-124747036D01*
X134500000Y-124747036D02*
X134452381Y-124651798D01*
X134452381Y-124651798D02*
X134452381Y-124461322D01*
X134452381Y-124461322D02*
X134500000Y-124366084D01*
X134500000Y-124366084D02*
X134547619Y-124318465D01*
X134547619Y-124318465D02*
X134642857Y-124270846D01*
X133500000Y-124842275D02*
X134071428Y-124842275D01*
X133785714Y-124842275D02*
X133785714Y-123842275D01*
X133785714Y-123842275D02*
X133880952Y-123985132D01*
X133880952Y-123985132D02*
X133976190Y-124080370D01*
X133976190Y-124080370D02*
X134071428Y-124127989D01*
X133119047Y-123937513D02*
X133071428Y-123889894D01*
X133071428Y-123889894D02*
X132976190Y-123842275D01*
X132976190Y-123842275D02*
X132738095Y-123842275D01*
X132738095Y-123842275D02*
X132642857Y-123889894D01*
X132642857Y-123889894D02*
X132595238Y-123937513D01*
X132595238Y-123937513D02*
X132547619Y-124032751D01*
X132547619Y-124032751D02*
X132547619Y-124127989D01*
X132547619Y-124127989D02*
X132595238Y-124270846D01*
X132595238Y-124270846D02*
X133166666Y-124842275D01*
X133166666Y-124842275D02*
X132547619Y-124842275D01*
X131357142Y-124842275D02*
X131357142Y-123842275D01*
X131357142Y-124318465D02*
X130785714Y-124318465D01*
X130785714Y-124842275D02*
X130785714Y-123842275D01*
X130166666Y-124842275D02*
X130261904Y-124794656D01*
X130261904Y-124794656D02*
X130309523Y-124747036D01*
X130309523Y-124747036D02*
X130357142Y-124651798D01*
X130357142Y-124651798D02*
X130357142Y-124366084D01*
X130357142Y-124366084D02*
X130309523Y-124270846D01*
X130309523Y-124270846D02*
X130261904Y-124223227D01*
X130261904Y-124223227D02*
X130166666Y-124175608D01*
X130166666Y-124175608D02*
X130023809Y-124175608D01*
X130023809Y-124175608D02*
X129928571Y-124223227D01*
X129928571Y-124223227D02*
X129880952Y-124270846D01*
X129880952Y-124270846D02*
X129833333Y-124366084D01*
X129833333Y-124366084D02*
X129833333Y-124651798D01*
X129833333Y-124651798D02*
X129880952Y-124747036D01*
X129880952Y-124747036D02*
X129928571Y-124794656D01*
X129928571Y-124794656D02*
X130023809Y-124842275D01*
X130023809Y-124842275D02*
X130166666Y-124842275D01*
X129261904Y-124842275D02*
X129357142Y-124794656D01*
X129357142Y-124794656D02*
X129404761Y-124699417D01*
X129404761Y-124699417D02*
X129404761Y-123842275D01*
X128452380Y-124842275D02*
X128452380Y-123842275D01*
X128452380Y-124794656D02*
X128547618Y-124842275D01*
X128547618Y-124842275D02*
X128738094Y-124842275D01*
X128738094Y-124842275D02*
X128833332Y-124794656D01*
X128833332Y-124794656D02*
X128880951Y-124747036D01*
X128880951Y-124747036D02*
X128928570Y-124651798D01*
X128928570Y-124651798D02*
X128928570Y-124366084D01*
X128928570Y-124366084D02*
X128880951Y-124270846D01*
X128880951Y-124270846D02*
X128833332Y-124223227D01*
X128833332Y-124223227D02*
X128738094Y-124175608D01*
X128738094Y-124175608D02*
X128547618Y-124175608D01*
X128547618Y-124175608D02*
X128452380Y-124223227D01*
X127595237Y-124794656D02*
X127690475Y-124842275D01*
X127690475Y-124842275D02*
X127880951Y-124842275D01*
X127880951Y-124842275D02*
X127976189Y-124794656D01*
X127976189Y-124794656D02*
X128023808Y-124699417D01*
X128023808Y-124699417D02*
X128023808Y-124318465D01*
X128023808Y-124318465D02*
X127976189Y-124223227D01*
X127976189Y-124223227D02*
X127880951Y-124175608D01*
X127880951Y-124175608D02*
X127690475Y-124175608D01*
X127690475Y-124175608D02*
X127595237Y-124223227D01*
X127595237Y-124223227D02*
X127547618Y-124318465D01*
X127547618Y-124318465D02*
X127547618Y-124413703D01*
X127547618Y-124413703D02*
X128023808Y-124508941D01*
X127119046Y-124842275D02*
X127119046Y-124175608D01*
X127119046Y-124366084D02*
X127071427Y-124270846D01*
X127071427Y-124270846D02*
X127023808Y-124223227D01*
X127023808Y-124223227D02*
X126928570Y-124175608D01*
X126928570Y-124175608D02*
X126833332Y-124175608D01*
X136619047Y-126452219D02*
X136619047Y-125452219D01*
X136619047Y-125452219D02*
X136047619Y-126452219D01*
X136047619Y-126452219D02*
X136047619Y-125452219D01*
X135238095Y-125928409D02*
X135571428Y-125928409D01*
X135571428Y-126452219D02*
X135571428Y-125452219D01*
X135571428Y-125452219D02*
X135095238Y-125452219D01*
X133952380Y-126452219D02*
X133952380Y-125452219D01*
X133952380Y-125452219D02*
X133714285Y-125452219D01*
X133714285Y-125452219D02*
X133571428Y-125499838D01*
X133571428Y-125499838D02*
X133476190Y-125595076D01*
X133476190Y-125595076D02*
X133428571Y-125690314D01*
X133428571Y-125690314D02*
X133380952Y-125880790D01*
X133380952Y-125880790D02*
X133380952Y-126023647D01*
X133380952Y-126023647D02*
X133428571Y-126214123D01*
X133428571Y-126214123D02*
X133476190Y-126309361D01*
X133476190Y-126309361D02*
X133571428Y-126404600D01*
X133571428Y-126404600D02*
X133714285Y-126452219D01*
X133714285Y-126452219D02*
X133952380Y-126452219D01*
X132952380Y-125928409D02*
X132619047Y-125928409D01*
X132476190Y-126452219D02*
X132952380Y-126452219D01*
X132952380Y-126452219D02*
X132952380Y-125452219D01*
X132952380Y-125452219D02*
X132476190Y-125452219D01*
X131476190Y-126356980D02*
X131523809Y-126404600D01*
X131523809Y-126404600D02*
X131666666Y-126452219D01*
X131666666Y-126452219D02*
X131761904Y-126452219D01*
X131761904Y-126452219D02*
X131904761Y-126404600D01*
X131904761Y-126404600D02*
X131999999Y-126309361D01*
X131999999Y-126309361D02*
X132047618Y-126214123D01*
X132047618Y-126214123D02*
X132095237Y-126023647D01*
X132095237Y-126023647D02*
X132095237Y-125880790D01*
X132095237Y-125880790D02*
X132047618Y-125690314D01*
X132047618Y-125690314D02*
X131999999Y-125595076D01*
X131999999Y-125595076D02*
X131904761Y-125499838D01*
X131904761Y-125499838D02*
X131761904Y-125452219D01*
X131761904Y-125452219D02*
X131666666Y-125452219D01*
X131666666Y-125452219D02*
X131523809Y-125499838D01*
X131523809Y-125499838D02*
X131476190Y-125547457D01*
X130238094Y-125452219D02*
X130333332Y-125642695D01*
X129857142Y-125547457D02*
X129809523Y-125499838D01*
X129809523Y-125499838D02*
X129714285Y-125452219D01*
X129714285Y-125452219D02*
X129476190Y-125452219D01*
X129476190Y-125452219D02*
X129380952Y-125499838D01*
X129380952Y-125499838D02*
X129333333Y-125547457D01*
X129333333Y-125547457D02*
X129285714Y-125642695D01*
X129285714Y-125642695D02*
X129285714Y-125737933D01*
X129285714Y-125737933D02*
X129333333Y-125880790D01*
X129333333Y-125880790D02*
X129904761Y-126452219D01*
X129904761Y-126452219D02*
X129285714Y-126452219D01*
X128380952Y-125452219D02*
X128857142Y-125452219D01*
X128857142Y-125452219D02*
X128904761Y-125928409D01*
X128904761Y-125928409D02*
X128857142Y-125880790D01*
X128857142Y-125880790D02*
X128761904Y-125833171D01*
X128761904Y-125833171D02*
X128523809Y-125833171D01*
X128523809Y-125833171D02*
X128428571Y-125880790D01*
X128428571Y-125880790D02*
X128380952Y-125928409D01*
X128380952Y-125928409D02*
X128333333Y-126023647D01*
X128333333Y-126023647D02*
X128333333Y-126261742D01*
X128333333Y-126261742D02*
X128380952Y-126356980D01*
X128380952Y-126356980D02*
X128428571Y-126404600D01*
X128428571Y-126404600D02*
X128523809Y-126452219D01*
X128523809Y-126452219D02*
X128761904Y-126452219D01*
X128761904Y-126452219D02*
X128857142Y-126404600D01*
X128857142Y-126404600D02*
X128904761Y-126356980D01*
X133738095Y-127966924D02*
X133785714Y-128014544D01*
X133785714Y-128014544D02*
X133928571Y-128062163D01*
X133928571Y-128062163D02*
X134023809Y-128062163D01*
X134023809Y-128062163D02*
X134166666Y-128014544D01*
X134166666Y-128014544D02*
X134261904Y-127919305D01*
X134261904Y-127919305D02*
X134309523Y-127824067D01*
X134309523Y-127824067D02*
X134357142Y-127633591D01*
X134357142Y-127633591D02*
X134357142Y-127490734D01*
X134357142Y-127490734D02*
X134309523Y-127300258D01*
X134309523Y-127300258D02*
X134261904Y-127205020D01*
X134261904Y-127205020D02*
X134166666Y-127109782D01*
X134166666Y-127109782D02*
X134023809Y-127062163D01*
X134023809Y-127062163D02*
X133928571Y-127062163D01*
X133928571Y-127062163D02*
X133785714Y-127109782D01*
X133785714Y-127109782D02*
X133738095Y-127157401D01*
X133309523Y-128062163D02*
X133309523Y-127062163D01*
X133309523Y-127062163D02*
X132976190Y-127776448D01*
X132976190Y-127776448D02*
X132642857Y-127062163D01*
X132642857Y-127062163D02*
X132642857Y-128062163D01*
X132214285Y-128014544D02*
X132071428Y-128062163D01*
X132071428Y-128062163D02*
X131833333Y-128062163D01*
X131833333Y-128062163D02*
X131738095Y-128014544D01*
X131738095Y-128014544D02*
X131690476Y-127966924D01*
X131690476Y-127966924D02*
X131642857Y-127871686D01*
X131642857Y-127871686D02*
X131642857Y-127776448D01*
X131642857Y-127776448D02*
X131690476Y-127681210D01*
X131690476Y-127681210D02*
X131738095Y-127633591D01*
X131738095Y-127633591D02*
X131833333Y-127585972D01*
X131833333Y-127585972D02*
X132023809Y-127538353D01*
X132023809Y-127538353D02*
X132119047Y-127490734D01*
X132119047Y-127490734D02*
X132166666Y-127443115D01*
X132166666Y-127443115D02*
X132214285Y-127347877D01*
X132214285Y-127347877D02*
X132214285Y-127252639D01*
X132214285Y-127252639D02*
X132166666Y-127157401D01*
X132166666Y-127157401D02*
X132119047Y-127109782D01*
X132119047Y-127109782D02*
X132023809Y-127062163D01*
X132023809Y-127062163D02*
X131785714Y-127062163D01*
X131785714Y-127062163D02*
X131642857Y-127109782D01*
X130642857Y-127966924D02*
X130690476Y-128014544D01*
X130690476Y-128014544D02*
X130833333Y-128062163D01*
X130833333Y-128062163D02*
X130928571Y-128062163D01*
X130928571Y-128062163D02*
X131071428Y-128014544D01*
X131071428Y-128014544D02*
X131166666Y-127919305D01*
X131166666Y-127919305D02*
X131214285Y-127824067D01*
X131214285Y-127824067D02*
X131261904Y-127633591D01*
X131261904Y-127633591D02*
X131261904Y-127490734D01*
X131261904Y-127490734D02*
X131214285Y-127300258D01*
X131214285Y-127300258D02*
X131166666Y-127205020D01*
X131166666Y-127205020D02*
X131071428Y-127109782D01*
X131071428Y-127109782D02*
X130928571Y-127062163D01*
X130928571Y-127062163D02*
X130833333Y-127062163D01*
X130833333Y-127062163D02*
X130690476Y-127109782D01*
X130690476Y-127109782D02*
X130642857Y-127157401D01*
X134404762Y-129672107D02*
X134738095Y-129195916D01*
X134976190Y-129672107D02*
X134976190Y-128672107D01*
X134976190Y-128672107D02*
X134595238Y-128672107D01*
X134595238Y-128672107D02*
X134500000Y-128719726D01*
X134500000Y-128719726D02*
X134452381Y-128767345D01*
X134452381Y-128767345D02*
X134404762Y-128862583D01*
X134404762Y-128862583D02*
X134404762Y-129005440D01*
X134404762Y-129005440D02*
X134452381Y-129100678D01*
X134452381Y-129100678D02*
X134500000Y-129148297D01*
X134500000Y-129148297D02*
X134595238Y-129195916D01*
X134595238Y-129195916D02*
X134976190Y-129195916D01*
X133976190Y-129148297D02*
X133642857Y-129148297D01*
X133500000Y-129672107D02*
X133976190Y-129672107D01*
X133976190Y-129672107D02*
X133976190Y-128672107D01*
X133976190Y-128672107D02*
X133500000Y-128672107D01*
X133214285Y-128672107D02*
X132880952Y-129672107D01*
X132880952Y-129672107D02*
X132547619Y-128672107D01*
X131547618Y-128672107D02*
X130880952Y-129672107D01*
X130880952Y-128672107D02*
X131547618Y-129672107D01*
X130309523Y-128672107D02*
X130214285Y-128672107D01*
X130214285Y-128672107D02*
X130119047Y-128719726D01*
X130119047Y-128719726D02*
X130071428Y-128767345D01*
X130071428Y-128767345D02*
X130023809Y-128862583D01*
X130023809Y-128862583D02*
X129976190Y-129053059D01*
X129976190Y-129053059D02*
X129976190Y-129291154D01*
X129976190Y-129291154D02*
X130023809Y-129481630D01*
X130023809Y-129481630D02*
X130071428Y-129576868D01*
X130071428Y-129576868D02*
X130119047Y-129624488D01*
X130119047Y-129624488D02*
X130214285Y-129672107D01*
X130214285Y-129672107D02*
X130309523Y-129672107D01*
X130309523Y-129672107D02*
X130404761Y-129624488D01*
X130404761Y-129624488D02*
X130452380Y-129576868D01*
X130452380Y-129576868D02*
X130499999Y-129481630D01*
X130499999Y-129481630D02*
X130547618Y-129291154D01*
X130547618Y-129291154D02*
X130547618Y-129053059D01*
X130547618Y-129053059D02*
X130499999Y-128862583D01*
X130499999Y-128862583D02*
X130452380Y-128767345D01*
X130452380Y-128767345D02*
X130404761Y-128719726D01*
X130404761Y-128719726D02*
X130309523Y-128672107D01*
D10*
X133347431Y-77864619D02*
X133347431Y-76864619D01*
X133347431Y-76864619D02*
X133109336Y-76864619D01*
X133109336Y-76864619D02*
X132966479Y-76912238D01*
X132966479Y-76912238D02*
X132871241Y-77007476D01*
X132871241Y-77007476D02*
X132823622Y-77102714D01*
X132823622Y-77102714D02*
X132776003Y-77293190D01*
X132776003Y-77293190D02*
X132776003Y-77436047D01*
X132776003Y-77436047D02*
X132823622Y-77626523D01*
X132823622Y-77626523D02*
X132871241Y-77721761D01*
X132871241Y-77721761D02*
X132966479Y-77817000D01*
X132966479Y-77817000D02*
X133109336Y-77864619D01*
X133109336Y-77864619D02*
X133347431Y-77864619D01*
X132347431Y-77864619D02*
X132347431Y-76864619D01*
X136573622Y-76912238D02*
X136668860Y-76864619D01*
X136668860Y-76864619D02*
X136811717Y-76864619D01*
X136811717Y-76864619D02*
X136954574Y-76912238D01*
X136954574Y-76912238D02*
X137049812Y-77007476D01*
X137049812Y-77007476D02*
X137097431Y-77102714D01*
X137097431Y-77102714D02*
X137145050Y-77293190D01*
X137145050Y-77293190D02*
X137145050Y-77436047D01*
X137145050Y-77436047D02*
X137097431Y-77626523D01*
X137097431Y-77626523D02*
X137049812Y-77721761D01*
X137049812Y-77721761D02*
X136954574Y-77817000D01*
X136954574Y-77817000D02*
X136811717Y-77864619D01*
X136811717Y-77864619D02*
X136716479Y-77864619D01*
X136716479Y-77864619D02*
X136573622Y-77817000D01*
X136573622Y-77817000D02*
X136526003Y-77769380D01*
X136526003Y-77769380D02*
X136526003Y-77436047D01*
X136526003Y-77436047D02*
X136716479Y-77436047D01*
X136097431Y-77864619D02*
X136097431Y-76864619D01*
X136097431Y-76864619D02*
X135526003Y-77864619D01*
X135526003Y-77864619D02*
X135526003Y-76864619D01*
X135049812Y-77864619D02*
X135049812Y-76864619D01*
X135049812Y-76864619D02*
X134811717Y-76864619D01*
X134811717Y-76864619D02*
X134668860Y-76912238D01*
X134668860Y-76912238D02*
X134573622Y-77007476D01*
X134573622Y-77007476D02*
X134526003Y-77102714D01*
X134526003Y-77102714D02*
X134478384Y-77293190D01*
X134478384Y-77293190D02*
X134478384Y-77436047D01*
X134478384Y-77436047D02*
X134526003Y-77626523D01*
X134526003Y-77626523D02*
X134573622Y-77721761D01*
X134573622Y-77721761D02*
X134668860Y-77817000D01*
X134668860Y-77817000D02*
X134811717Y-77864619D01*
X134811717Y-77864619D02*
X135049812Y-77864619D01*
X130121241Y-76864619D02*
X130597431Y-76864619D01*
X130597431Y-76864619D02*
X130645050Y-77340809D01*
X130645050Y-77340809D02*
X130597431Y-77293190D01*
X130597431Y-77293190D02*
X130502193Y-77245571D01*
X130502193Y-77245571D02*
X130264098Y-77245571D01*
X130264098Y-77245571D02*
X130168860Y-77293190D01*
X130168860Y-77293190D02*
X130121241Y-77340809D01*
X130121241Y-77340809D02*
X130073622Y-77436047D01*
X130073622Y-77436047D02*
X130073622Y-77674142D01*
X130073622Y-77674142D02*
X130121241Y-77769380D01*
X130121241Y-77769380D02*
X130168860Y-77817000D01*
X130168860Y-77817000D02*
X130264098Y-77864619D01*
X130264098Y-77864619D02*
X130502193Y-77864619D01*
X130502193Y-77864619D02*
X130597431Y-77817000D01*
X130597431Y-77817000D02*
X130645050Y-77769380D01*
X129787907Y-76864619D02*
X129454574Y-77864619D01*
X129454574Y-77864619D02*
X129121241Y-76864619D01*
X136573622Y-172412238D02*
X136668860Y-172364619D01*
X136668860Y-172364619D02*
X136811717Y-172364619D01*
X136811717Y-172364619D02*
X136954574Y-172412238D01*
X136954574Y-172412238D02*
X137049812Y-172507476D01*
X137049812Y-172507476D02*
X137097431Y-172602714D01*
X137097431Y-172602714D02*
X137145050Y-172793190D01*
X137145050Y-172793190D02*
X137145050Y-172936047D01*
X137145050Y-172936047D02*
X137097431Y-173126523D01*
X137097431Y-173126523D02*
X137049812Y-173221761D01*
X137049812Y-173221761D02*
X136954574Y-173317000D01*
X136954574Y-173317000D02*
X136811717Y-173364619D01*
X136811717Y-173364619D02*
X136716479Y-173364619D01*
X136716479Y-173364619D02*
X136573622Y-173317000D01*
X136573622Y-173317000D02*
X136526003Y-173269380D01*
X136526003Y-173269380D02*
X136526003Y-172936047D01*
X136526003Y-172936047D02*
X136716479Y-172936047D01*
X136097431Y-173364619D02*
X136097431Y-172364619D01*
X136097431Y-172364619D02*
X135526003Y-173364619D01*
X135526003Y-173364619D02*
X135526003Y-172364619D01*
X135049812Y-173364619D02*
X135049812Y-172364619D01*
X135049812Y-172364619D02*
X134811717Y-172364619D01*
X134811717Y-172364619D02*
X134668860Y-172412238D01*
X134668860Y-172412238D02*
X134573622Y-172507476D01*
X134573622Y-172507476D02*
X134526003Y-172602714D01*
X134526003Y-172602714D02*
X134478384Y-172793190D01*
X134478384Y-172793190D02*
X134478384Y-172936047D01*
X134478384Y-172936047D02*
X134526003Y-173126523D01*
X134526003Y-173126523D02*
X134573622Y-173221761D01*
X134573622Y-173221761D02*
X134668860Y-173317000D01*
X134668860Y-173317000D02*
X134811717Y-173364619D01*
X134811717Y-173364619D02*
X135049812Y-173364619D01*
X133347431Y-173364619D02*
X133347431Y-172364619D01*
X133347431Y-172364619D02*
X133109336Y-172364619D01*
X133109336Y-172364619D02*
X132966479Y-172412238D01*
X132966479Y-172412238D02*
X132871241Y-172507476D01*
X132871241Y-172507476D02*
X132823622Y-172602714D01*
X132823622Y-172602714D02*
X132776003Y-172793190D01*
X132776003Y-172793190D02*
X132776003Y-172936047D01*
X132776003Y-172936047D02*
X132823622Y-173126523D01*
X132823622Y-173126523D02*
X132871241Y-173221761D01*
X132871241Y-173221761D02*
X132966479Y-173317000D01*
X132966479Y-173317000D02*
X133109336Y-173364619D01*
X133109336Y-173364619D02*
X133347431Y-173364619D01*
X132156955Y-172364619D02*
X131966479Y-172364619D01*
X131966479Y-172364619D02*
X131871241Y-172412238D01*
X131871241Y-172412238D02*
X131776003Y-172507476D01*
X131776003Y-172507476D02*
X131728384Y-172697952D01*
X131728384Y-172697952D02*
X131728384Y-173031285D01*
X131728384Y-173031285D02*
X131776003Y-173221761D01*
X131776003Y-173221761D02*
X131871241Y-173317000D01*
X131871241Y-173317000D02*
X131966479Y-173364619D01*
X131966479Y-173364619D02*
X132156955Y-173364619D01*
X132156955Y-173364619D02*
X132252193Y-173317000D01*
X132252193Y-173317000D02*
X132347431Y-173221761D01*
X132347431Y-173221761D02*
X132395050Y-173031285D01*
X132395050Y-173031285D02*
X132395050Y-172697952D01*
X132395050Y-172697952D02*
X132347431Y-172507476D01*
X132347431Y-172507476D02*
X132252193Y-172412238D01*
X132252193Y-172412238D02*
X132156955Y-172364619D01*
X130121241Y-172364619D02*
X130597431Y-172364619D01*
X130597431Y-172364619D02*
X130645050Y-172840809D01*
X130645050Y-172840809D02*
X130597431Y-172793190D01*
X130597431Y-172793190D02*
X130502193Y-172745571D01*
X130502193Y-172745571D02*
X130264098Y-172745571D01*
X130264098Y-172745571D02*
X130168860Y-172793190D01*
X130168860Y-172793190D02*
X130121241Y-172840809D01*
X130121241Y-172840809D02*
X130073622Y-172936047D01*
X130073622Y-172936047D02*
X130073622Y-173174142D01*
X130073622Y-173174142D02*
X130121241Y-173269380D01*
X130121241Y-173269380D02*
X130168860Y-173317000D01*
X130168860Y-173317000D02*
X130264098Y-173364619D01*
X130264098Y-173364619D02*
X130502193Y-173364619D01*
X130502193Y-173364619D02*
X130597431Y-173317000D01*
X130597431Y-173317000D02*
X130645050Y-173269380D01*
X129787907Y-172364619D02*
X129454574Y-173364619D01*
X129454574Y-173364619D02*
X129121241Y-172364619D01*
D12*
X136166666Y-166109580D02*
X136214285Y-166157200D01*
X136214285Y-166157200D02*
X136357142Y-166204819D01*
X136357142Y-166204819D02*
X136452380Y-166204819D01*
X136452380Y-166204819D02*
X136595237Y-166157200D01*
X136595237Y-166157200D02*
X136690475Y-166061961D01*
X136690475Y-166061961D02*
X136738094Y-165966723D01*
X136738094Y-165966723D02*
X136785713Y-165776247D01*
X136785713Y-165776247D02*
X136785713Y-165633390D01*
X136785713Y-165633390D02*
X136738094Y-165442914D01*
X136738094Y-165442914D02*
X136690475Y-165347676D01*
X136690475Y-165347676D02*
X136595237Y-165252438D01*
X136595237Y-165252438D02*
X136452380Y-165204819D01*
X136452380Y-165204819D02*
X136357142Y-165204819D01*
X136357142Y-165204819D02*
X136214285Y-165252438D01*
X136214285Y-165252438D02*
X136166666Y-165300057D01*
X135309523Y-165538152D02*
X135309523Y-166204819D01*
X135547618Y-165157200D02*
X135785713Y-165871485D01*
X135785713Y-165871485D02*
X135166666Y-165871485D01*
X136916666Y-142359580D02*
X136964285Y-142407200D01*
X136964285Y-142407200D02*
X137107142Y-142454819D01*
X137107142Y-142454819D02*
X137202380Y-142454819D01*
X137202380Y-142454819D02*
X137345237Y-142407200D01*
X137345237Y-142407200D02*
X137440475Y-142311961D01*
X137440475Y-142311961D02*
X137488094Y-142216723D01*
X137488094Y-142216723D02*
X137535713Y-142026247D01*
X137535713Y-142026247D02*
X137535713Y-141883390D01*
X137535713Y-141883390D02*
X137488094Y-141692914D01*
X137488094Y-141692914D02*
X137440475Y-141597676D01*
X137440475Y-141597676D02*
X137345237Y-141502438D01*
X137345237Y-141502438D02*
X137202380Y-141454819D01*
X137202380Y-141454819D02*
X137107142Y-141454819D01*
X137107142Y-141454819D02*
X136964285Y-141502438D01*
X136964285Y-141502438D02*
X136916666Y-141550057D01*
X136583332Y-141454819D02*
X135964285Y-141454819D01*
X135964285Y-141454819D02*
X136297618Y-141835771D01*
X136297618Y-141835771D02*
X136154761Y-141835771D01*
X136154761Y-141835771D02*
X136059523Y-141883390D01*
X136059523Y-141883390D02*
X136011904Y-141931009D01*
X136011904Y-141931009D02*
X135964285Y-142026247D01*
X135964285Y-142026247D02*
X135964285Y-142264342D01*
X135964285Y-142264342D02*
X136011904Y-142359580D01*
X136011904Y-142359580D02*
X136059523Y-142407200D01*
X136059523Y-142407200D02*
X136154761Y-142454819D01*
X136154761Y-142454819D02*
X136440475Y-142454819D01*
X136440475Y-142454819D02*
X136535713Y-142407200D01*
X136535713Y-142407200D02*
X136583332Y-142359580D01*
X136916666Y-119359580D02*
X136964285Y-119407200D01*
X136964285Y-119407200D02*
X137107142Y-119454819D01*
X137107142Y-119454819D02*
X137202380Y-119454819D01*
X137202380Y-119454819D02*
X137345237Y-119407200D01*
X137345237Y-119407200D02*
X137440475Y-119311961D01*
X137440475Y-119311961D02*
X137488094Y-119216723D01*
X137488094Y-119216723D02*
X137535713Y-119026247D01*
X137535713Y-119026247D02*
X137535713Y-118883390D01*
X137535713Y-118883390D02*
X137488094Y-118692914D01*
X137488094Y-118692914D02*
X137440475Y-118597676D01*
X137440475Y-118597676D02*
X137345237Y-118502438D01*
X137345237Y-118502438D02*
X137202380Y-118454819D01*
X137202380Y-118454819D02*
X137107142Y-118454819D01*
X137107142Y-118454819D02*
X136964285Y-118502438D01*
X136964285Y-118502438D02*
X136916666Y-118550057D01*
X136535713Y-118550057D02*
X136488094Y-118502438D01*
X136488094Y-118502438D02*
X136392856Y-118454819D01*
X136392856Y-118454819D02*
X136154761Y-118454819D01*
X136154761Y-118454819D02*
X136059523Y-118502438D01*
X136059523Y-118502438D02*
X136011904Y-118550057D01*
X136011904Y-118550057D02*
X135964285Y-118645295D01*
X135964285Y-118645295D02*
X135964285Y-118740533D01*
X135964285Y-118740533D02*
X136011904Y-118883390D01*
X136011904Y-118883390D02*
X136583332Y-119454819D01*
X136583332Y-119454819D02*
X135964285Y-119454819D01*
X136916666Y-96359580D02*
X136964285Y-96407200D01*
X136964285Y-96407200D02*
X137107142Y-96454819D01*
X137107142Y-96454819D02*
X137202380Y-96454819D01*
X137202380Y-96454819D02*
X137345237Y-96407200D01*
X137345237Y-96407200D02*
X137440475Y-96311961D01*
X137440475Y-96311961D02*
X137488094Y-96216723D01*
X137488094Y-96216723D02*
X137535713Y-96026247D01*
X137535713Y-96026247D02*
X137535713Y-95883390D01*
X137535713Y-95883390D02*
X137488094Y-95692914D01*
X137488094Y-95692914D02*
X137440475Y-95597676D01*
X137440475Y-95597676D02*
X137345237Y-95502438D01*
X137345237Y-95502438D02*
X137202380Y-95454819D01*
X137202380Y-95454819D02*
X137107142Y-95454819D01*
X137107142Y-95454819D02*
X136964285Y-95502438D01*
X136964285Y-95502438D02*
X136916666Y-95550057D01*
X135964285Y-96454819D02*
X136535713Y-96454819D01*
X136249999Y-96454819D02*
X136249999Y-95454819D01*
X136249999Y-95454819D02*
X136345237Y-95597676D01*
X136345237Y-95597676D02*
X136440475Y-95692914D01*
X136440475Y-95692914D02*
X136535713Y-95740533D01*
D13*
%TO.C,C4*%
X135485000Y-164670000D02*
X137015000Y-164670000D01*
X135485000Y-162830000D02*
X137015000Y-162830000D01*
%TO.C,C3*%
X132485000Y-142920000D02*
X134015000Y-142920000D01*
X132485000Y-141080000D02*
X134015000Y-141080000D01*
%TO.C,C2*%
X132485000Y-119920000D02*
X134015000Y-119920000D01*
X132485000Y-118080000D02*
X134015000Y-118080000D01*
%TO.C,C1*%
X132485000Y-96920000D02*
X134015000Y-96920000D01*
X132485000Y-95080000D02*
X134015000Y-95080000D01*
%TD*%
M02*
