%TF.GenerationSoftware,KiCad,Pcbnew,10.0.1*%
%TF.CreationDate,2026-05-18T17:03:28-06:00*%
%TF.ProjectId,LED Holder Iso Cards,4c454420-486f-46c6-9465-722049736f20,rev?*%
%TF.SameCoordinates,Original*%
%TF.FileFunction,Copper,L1,Top*%
%TF.FilePolarity,Positive*%
%FSLAX46Y46*%
G04 Gerber Fmt 4.6, Leading zero omitted, Abs format (unit mm)*
G04 Created by KiCad (PCBNEW 10.0.1) date 2026-05-18 17:03:28*
%MOMM*%
%LPD*%
G01*
G04 APERTURE LIST*
G04 Aperture macros list*
%AMRoundRect*
0 Rectangle with rounded corners*
0 $1 Rounding radius*
0 $2 $3 $4 $5 $6 $7 $8 $9 X,Y pos of 4 corners*
0 Add a 4 corners polygon primitive as box body*
4,1,4,$2,$3,$4,$5,$6,$7,$8,$9,$2,$3,0*
0 Add four circle primitives for the rounded corners*
1,1,$1+$1,$2,$3*
1,1,$1+$1,$4,$5*
1,1,$1+$1,$6,$7*
1,1,$1+$1,$8,$9*
0 Add four rect primitives between the rounded corners*
20,1,$1+$1,$2,$3,$4,$5,0*
20,1,$1+$1,$4,$5,$6,$7,0*
20,1,$1+$1,$6,$7,$8,$9,0*
20,1,$1+$1,$8,$9,$2,$3,0*%
G04 Aperture macros list end*
%TA.AperFunction,ComponentPad*%
%ADD10RoundRect,0.450000X-0.450000X-0.450000X0.450000X-0.450000X0.450000X0.450000X-0.450000X0.450000X0*%
%TD*%
%TA.AperFunction,ComponentPad*%
%ADD11C,1.800000*%
%TD*%
%TA.AperFunction,ComponentPad*%
%ADD12RoundRect,0.250000X-0.600000X-0.725000X0.600000X-0.725000X0.600000X0.725000X-0.600000X0.725000X0*%
%TD*%
%TA.AperFunction,ComponentPad*%
%ADD13O,1.700000X1.950000*%
%TD*%
%TA.AperFunction,ComponentPad*%
%ADD14C,1.600000*%
%TD*%
%TA.AperFunction,Conductor*%
%ADD15C,0.500000*%
%TD*%
%TA.AperFunction,Conductor*%
%ADD16C,1.200000*%
%TD*%
G04 APERTURE END LIST*
D10*
%TO.P,D2,1,DOUT_1*%
%TO.N,Net-(D2-DOUT)*%
X130000000Y-97500000D03*
D11*
%TO.P,D2,2,VCC_2*%
%TO.N,+5V*%
X131778000Y-99024000D03*
%TO.P,D2,3,GND_3*%
%TO.N,GND*%
X133302000Y-97500000D03*
%TO.P,D2,4,DIN_4*%
%TO.N,Net-(D1-DOUT)*%
X134826000Y-99024000D03*
%TD*%
D10*
%TO.P,D5,1,DOUT_1*%
%TO.N,Net-(D5-DOUT)*%
X130000000Y-120000000D03*
D11*
%TO.P,D5,2,VCC_2*%
%TO.N,+5V*%
X131778000Y-121524000D03*
%TO.P,D5,3,GND_3*%
%TO.N,GND*%
X133302000Y-120000000D03*
%TO.P,D5,4,DIN_4*%
%TO.N,Net-(D4-DOUT)*%
X134826000Y-121524000D03*
%TD*%
D12*
%TO.P,J1,1,Pin_1_1*%
%TO.N,+5V*%
X130000000Y-80000000D03*
D13*
%TO.P,J1,2,Pin_2_2*%
%TO.N,Net-(D1-DIN)*%
X132500000Y-80000000D03*
%TO.P,J1,3,Pin_3_3*%
%TO.N,GND*%
X135000000Y-80000000D03*
%TD*%
D10*
%TO.P,D1,1,DOUT_1*%
%TO.N,Net-(D1-DOUT)*%
X130000000Y-90000000D03*
D11*
%TO.P,D1,2,VCC_2*%
%TO.N,+5V*%
X131778000Y-91524000D03*
%TO.P,D1,3,GND_3*%
%TO.N,GND*%
X133302000Y-90000000D03*
%TO.P,D1,4,DIN_4*%
%TO.N,Net-(D1-DIN)*%
X134826000Y-91524000D03*
%TD*%
D12*
%TO.P,J2,1,Pin_1_1*%
%TO.N,+5V*%
X130000000Y-130725000D03*
D13*
%TO.P,J2,2,Pin_2_2*%
%TO.N,Net-(D5-DOUT)*%
X132500000Y-130725000D03*
%TO.P,J2,3,Pin_3_3*%
%TO.N,GND*%
X135000000Y-130725000D03*
%TD*%
D10*
%TO.P,D3,1,DOUT_1*%
%TO.N,Net-(D3-DOUT)*%
X130000000Y-105000000D03*
D11*
%TO.P,D3,2,VCC_2*%
%TO.N,+5V*%
X131778000Y-106524000D03*
%TO.P,D3,3,GND_3*%
%TO.N,GND*%
X133302000Y-105000000D03*
%TO.P,D3,4,DIN_4*%
%TO.N,Net-(D2-DOUT)*%
X134826000Y-106524000D03*
%TD*%
D10*
%TO.P,D4,1,DOUT_1*%
%TO.N,Net-(D4-DOUT)*%
X130000000Y-112500000D03*
D11*
%TO.P,D4,2,VCC_2*%
%TO.N,+5V*%
X131778000Y-114024000D03*
%TO.P,D4,3,GND_3*%
%TO.N,GND*%
X133302000Y-112500000D03*
%TO.P,D4,4,DIN_4*%
%TO.N,Net-(D3-DOUT)*%
X134826000Y-114024000D03*
%TD*%
D14*
%TO.P,C4,1*%
%TO.N,+5V*%
X127500000Y-115000000D03*
%TO.P,C4,2*%
%TO.N,GND*%
X127500000Y-117500000D03*
%TD*%
%TO.P,C3,1*%
%TO.N,+5V*%
X127500000Y-107500000D03*
%TO.P,C3,2*%
%TO.N,GND*%
X127500000Y-110000000D03*
%TD*%
%TO.P,C2,1*%
%TO.N,+5V*%
X127500000Y-100000000D03*
%TO.P,C2,2*%
%TO.N,GND*%
X127500000Y-102500000D03*
%TD*%
%TO.P,C1,1*%
%TO.N,+5V*%
X127500000Y-92500000D03*
%TO.P,C1,2*%
%TO.N,GND*%
X127500000Y-95000000D03*
%TD*%
%TO.P,C5,1*%
%TO.N,+5V*%
X127500000Y-122000000D03*
%TO.P,C5,2*%
%TO.N,GND*%
X127500000Y-124500000D03*
%TD*%
%TO.N,Net-(D1-DOUT)*%
D15*
X131000000Y-94500000D02*
X133902000Y-94500000D01*
X134826000Y-95424000D02*
X134826000Y-99024000D01*
X130000000Y-93500000D02*
X131000000Y-94500000D01*
X133902000Y-94500000D02*
X134826000Y-95424000D01*
X130000000Y-90000000D02*
X130000000Y-93500000D01*
%TO.N,+5V*%
D16*
X127500000Y-115000000D02*
X127500000Y-113250000D01*
D15*
X131650000Y-91370000D02*
X131650000Y-89130000D01*
X131750000Y-99000000D02*
X131750000Y-96760000D01*
D16*
X127500000Y-100000000D02*
X127500000Y-98250000D01*
X127500000Y-122000000D02*
X127500000Y-120250000D01*
D15*
X131778000Y-91498000D02*
X131650000Y-91370000D01*
D16*
X127500000Y-92500000D02*
X127500000Y-90750000D01*
D15*
X131750000Y-106500000D02*
X131750000Y-104260000D01*
D16*
X127500000Y-107500000D02*
X127500000Y-105750000D01*
D15*
X131750000Y-121500000D02*
X131750000Y-119260000D01*
X131750000Y-114000000D02*
X131750000Y-111760000D01*
%TO.N,Net-(D1-DIN)*%
X134826000Y-85826000D02*
X134826000Y-91524000D01*
X132500000Y-83500000D02*
X134826000Y-85826000D01*
X132500000Y-80000000D02*
X132500000Y-83500000D01*
%TO.N,Net-(D2-DOUT)*%
X131000000Y-102000000D02*
X133902000Y-102000000D01*
X130000000Y-101000000D02*
X131000000Y-102000000D01*
X134826000Y-102924000D02*
X134826000Y-106524000D01*
X133902000Y-102000000D02*
X134826000Y-102924000D01*
X130000000Y-97500000D02*
X130000000Y-101000000D01*
%TO.N,Net-(D3-DOUT)*%
X133902000Y-109500000D02*
X134826000Y-110424000D01*
X131000000Y-109500000D02*
X133902000Y-109500000D01*
X130000000Y-105000000D02*
X130000000Y-108500000D01*
X134826000Y-110424000D02*
X134826000Y-114024000D01*
X130000000Y-108500000D02*
X131000000Y-109500000D01*
%TO.N,Net-(D4-DOUT)*%
X131000000Y-117000000D02*
X133902000Y-117000000D01*
X134826000Y-117924000D02*
X134826000Y-121524000D01*
X130000000Y-112500000D02*
X130000000Y-116000000D01*
X133902000Y-117000000D02*
X134826000Y-117924000D01*
X130000000Y-116000000D02*
X131000000Y-117000000D01*
%TO.N,Net-(D5-DOUT)*%
X130000000Y-122750000D02*
X132500000Y-125250000D01*
X132500000Y-125250000D02*
X132500000Y-130725000D01*
X130000000Y-120000000D02*
X130000000Y-122750000D01*
%TD*%
%TA.AperFunction,Conductor*%
%TO.N,+5V*%
G36*
X138442539Y-76520185D02*
G01*
X138488294Y-76572989D01*
X138499500Y-76624500D01*
X138499500Y-135625500D01*
X138479815Y-135692539D01*
X138427011Y-135738294D01*
X138375500Y-135749500D01*
X126624500Y-135749500D01*
X126557461Y-135729815D01*
X126511706Y-135677011D01*
X126500500Y-135625500D01*
X126500500Y-132641228D01*
X127549500Y-132641228D01*
X127549500Y-132808771D01*
X127582182Y-132973074D01*
X127582184Y-132973082D01*
X127646295Y-133127860D01*
X127739373Y-133267162D01*
X127857837Y-133385626D01*
X127950494Y-133447537D01*
X127997137Y-133478703D01*
X128151918Y-133542816D01*
X128316228Y-133575499D01*
X128316232Y-133575500D01*
X128316233Y-133575500D01*
X128483768Y-133575500D01*
X128483769Y-133575499D01*
X128648082Y-133542816D01*
X128802863Y-133478703D01*
X128942162Y-133385626D01*
X129060626Y-133267162D01*
X129153703Y-133127863D01*
X129217816Y-132973082D01*
X129250500Y-132808767D01*
X129250500Y-132641233D01*
X129217816Y-132476918D01*
X129171698Y-132365582D01*
X129164230Y-132296115D01*
X129195505Y-132233636D01*
X129255593Y-132197983D01*
X129298864Y-132194773D01*
X129350021Y-132199999D01*
X129549999Y-132199999D01*
X129550000Y-132199998D01*
X129550000Y-131175000D01*
X128650001Y-131175000D01*
X128650001Y-131499986D01*
X128660494Y-131602697D01*
X128702393Y-131729140D01*
X128704795Y-131798969D01*
X128669063Y-131859010D01*
X128606543Y-131890203D01*
X128560497Y-131889762D01*
X128508726Y-131879464D01*
X128483767Y-131874500D01*
X128316233Y-131874500D01*
X128316228Y-131874500D01*
X128151925Y-131907182D01*
X128151917Y-131907184D01*
X127997139Y-131971295D01*
X127857837Y-132064373D01*
X127739373Y-132182837D01*
X127646295Y-132322139D01*
X127582184Y-132476917D01*
X127582182Y-132476925D01*
X127549500Y-132641228D01*
X126500500Y-132641228D01*
X126500500Y-129950013D01*
X128650000Y-129950013D01*
X128650000Y-130275000D01*
X129550000Y-130275000D01*
X129550000Y-129250000D01*
X129350029Y-129250000D01*
X129350012Y-129250001D01*
X129247302Y-129260494D01*
X129080880Y-129315641D01*
X129080875Y-129315643D01*
X128931654Y-129407684D01*
X128807684Y-129531654D01*
X128715643Y-129680875D01*
X128715641Y-129680880D01*
X128660494Y-129847302D01*
X128660493Y-129847309D01*
X128650000Y-129950013D01*
X126500500Y-129950013D01*
X126500500Y-125624691D01*
X126520185Y-125557652D01*
X126572989Y-125511897D01*
X126642147Y-125501953D01*
X126697385Y-125524373D01*
X126801055Y-125599692D01*
X126818390Y-125612287D01*
X126934607Y-125671503D01*
X127000776Y-125705218D01*
X127000778Y-125705218D01*
X127000781Y-125705220D01*
X127105137Y-125739127D01*
X127195465Y-125768477D01*
X127296557Y-125784488D01*
X127397648Y-125800500D01*
X127397649Y-125800500D01*
X127602351Y-125800500D01*
X127602352Y-125800500D01*
X127804534Y-125768477D01*
X127999219Y-125705220D01*
X128181610Y-125612287D01*
X128302372Y-125524549D01*
X128347213Y-125491971D01*
X128347215Y-125491968D01*
X128347219Y-125491966D01*
X128491966Y-125347219D01*
X128491968Y-125347215D01*
X128491971Y-125347213D01*
X128544732Y-125274590D01*
X128612287Y-125181610D01*
X128705220Y-124999219D01*
X128768477Y-124804534D01*
X128800500Y-124602352D01*
X128800500Y-124397648D01*
X128768477Y-124195466D01*
X128705220Y-124000781D01*
X128705218Y-124000778D01*
X128705218Y-124000776D01*
X128671503Y-123934607D01*
X128612287Y-123818390D01*
X128604556Y-123807749D01*
X128491971Y-123652786D01*
X128347213Y-123508028D01*
X128181611Y-123387713D01*
X128105190Y-123348774D01*
X128054395Y-123300800D01*
X128037600Y-123232979D01*
X128039013Y-123218892D01*
X128044958Y-123181354D01*
X127269483Y-122405879D01*
X127235998Y-122344556D01*
X127238859Y-122304545D01*
X127254394Y-122320080D01*
X127345606Y-122372741D01*
X127447339Y-122400000D01*
X127552661Y-122400000D01*
X127654394Y-122372741D01*
X127745606Y-122320080D01*
X127820080Y-122245606D01*
X127872741Y-122154394D01*
X127900000Y-122052661D01*
X127900000Y-121999999D01*
X128136396Y-121999999D01*
X128136396Y-122000000D01*
X128681353Y-122544957D01*
X128704755Y-122499031D01*
X128767990Y-122304417D01*
X128800000Y-122102317D01*
X128800000Y-121897682D01*
X128767989Y-121695581D01*
X128767989Y-121695578D01*
X128704758Y-121500976D01*
X128704758Y-121500975D01*
X128681354Y-121455040D01*
X128136396Y-121999999D01*
X127900000Y-121999999D01*
X127900000Y-121947339D01*
X127872741Y-121845606D01*
X127820080Y-121754394D01*
X127745606Y-121679920D01*
X127654394Y-121627259D01*
X127552661Y-121600000D01*
X127447339Y-121600000D01*
X127345606Y-121627259D01*
X127254394Y-121679920D01*
X127236756Y-121697557D01*
X127240982Y-121638468D01*
X127269483Y-121594121D01*
X128044958Y-120818645D01*
X127999024Y-120795242D01*
X127999022Y-120795241D01*
X127804419Y-120732010D01*
X127602317Y-120700000D01*
X127397683Y-120700000D01*
X127195582Y-120732009D01*
X127000968Y-120795244D01*
X126818647Y-120888142D01*
X126697385Y-120976244D01*
X126631579Y-120999724D01*
X126563525Y-120983898D01*
X126514830Y-120933793D01*
X126500500Y-120875926D01*
X126500500Y-118624691D01*
X126520185Y-118557652D01*
X126572989Y-118511897D01*
X126642147Y-118501953D01*
X126697385Y-118524373D01*
X126800790Y-118599500D01*
X126818390Y-118612287D01*
X126917453Y-118662762D01*
X127000776Y-118705218D01*
X127000778Y-118705218D01*
X127000781Y-118705220D01*
X127078382Y-118730434D01*
X127195465Y-118768477D01*
X127296557Y-118784488D01*
X127397648Y-118800500D01*
X127397649Y-118800500D01*
X127602351Y-118800500D01*
X127602352Y-118800500D01*
X127804534Y-118768477D01*
X127999219Y-118705220D01*
X128181610Y-118612287D01*
X128274590Y-118544732D01*
X128347213Y-118491971D01*
X128347215Y-118491968D01*
X128347219Y-118491966D01*
X128491966Y-118347219D01*
X128491968Y-118347215D01*
X128491971Y-118347213D01*
X128544732Y-118274590D01*
X128612287Y-118181610D01*
X128705220Y-117999219D01*
X128768477Y-117804534D01*
X128800500Y-117602352D01*
X128800500Y-117397648D01*
X128768477Y-117195466D01*
X128705220Y-117000781D01*
X128705218Y-117000778D01*
X128705218Y-117000776D01*
X128671503Y-116934607D01*
X128612287Y-116818390D01*
X128604556Y-116807749D01*
X128491971Y-116652786D01*
X128347213Y-116508028D01*
X128181611Y-116387713D01*
X128105190Y-116348774D01*
X128054395Y-116300800D01*
X128037600Y-116232979D01*
X128039013Y-116218892D01*
X128044958Y-116181354D01*
X127269483Y-115405879D01*
X127235998Y-115344556D01*
X127238859Y-115304545D01*
X127254394Y-115320080D01*
X127345606Y-115372741D01*
X127447339Y-115400000D01*
X127552661Y-115400000D01*
X127654394Y-115372741D01*
X127745606Y-115320080D01*
X127820080Y-115245606D01*
X127872741Y-115154394D01*
X127900000Y-115052661D01*
X127900000Y-114999999D01*
X128136396Y-114999999D01*
X128136396Y-115000000D01*
X128681353Y-115544957D01*
X128704755Y-115499031D01*
X128767990Y-115304417D01*
X128800000Y-115102317D01*
X128800000Y-114897682D01*
X128767989Y-114695581D01*
X128767989Y-114695578D01*
X128704758Y-114500976D01*
X128704758Y-114500975D01*
X128681354Y-114455040D01*
X128136396Y-114999999D01*
X127900000Y-114999999D01*
X127900000Y-114947339D01*
X127872741Y-114845606D01*
X127820080Y-114754394D01*
X127745606Y-114679920D01*
X127654394Y-114627259D01*
X127552661Y-114600000D01*
X127447339Y-114600000D01*
X127345606Y-114627259D01*
X127254394Y-114679920D01*
X127236756Y-114697557D01*
X127240982Y-114638468D01*
X127269483Y-114594121D01*
X128044958Y-113818645D01*
X127999024Y-113795242D01*
X127999022Y-113795241D01*
X127804419Y-113732010D01*
X127602317Y-113700000D01*
X127397683Y-113700000D01*
X127195582Y-113732009D01*
X127000968Y-113795244D01*
X126818647Y-113888142D01*
X126697385Y-113976244D01*
X126631579Y-113999724D01*
X126563525Y-113983898D01*
X126514830Y-113933793D01*
X126500500Y-113875926D01*
X126500500Y-111124691D01*
X126520185Y-111057652D01*
X126572989Y-111011897D01*
X126642147Y-111001953D01*
X126697385Y-111024373D01*
X126800790Y-111099500D01*
X126818390Y-111112287D01*
X126917453Y-111162762D01*
X127000776Y-111205218D01*
X127000778Y-111205218D01*
X127000781Y-111205220D01*
X127078382Y-111230434D01*
X127195465Y-111268477D01*
X127296557Y-111284488D01*
X127397648Y-111300500D01*
X127397649Y-111300500D01*
X127602351Y-111300500D01*
X127602352Y-111300500D01*
X127804534Y-111268477D01*
X127999219Y-111205220D01*
X128181610Y-111112287D01*
X128274590Y-111044732D01*
X128347213Y-110991971D01*
X128347215Y-110991968D01*
X128347219Y-110991966D01*
X128491966Y-110847219D01*
X128491968Y-110847215D01*
X128491971Y-110847213D01*
X128544732Y-110774590D01*
X128612287Y-110681610D01*
X128705220Y-110499219D01*
X128768477Y-110304534D01*
X128800500Y-110102352D01*
X128800500Y-109897648D01*
X128768477Y-109695466D01*
X128705220Y-109500781D01*
X128705218Y-109500778D01*
X128705218Y-109500776D01*
X128671503Y-109434607D01*
X128612287Y-109318390D01*
X128604556Y-109307749D01*
X128491971Y-109152786D01*
X128347213Y-109008028D01*
X128181611Y-108887713D01*
X128105190Y-108848774D01*
X128054395Y-108800800D01*
X128037600Y-108732979D01*
X128039013Y-108718892D01*
X128044958Y-108681354D01*
X127269483Y-107905879D01*
X127235998Y-107844556D01*
X127238859Y-107804545D01*
X127254394Y-107820080D01*
X127345606Y-107872741D01*
X127447339Y-107900000D01*
X127552661Y-107900000D01*
X127654394Y-107872741D01*
X127745606Y-107820080D01*
X127820080Y-107745606D01*
X127872741Y-107654394D01*
X127900000Y-107552661D01*
X127900000Y-107499999D01*
X128136396Y-107499999D01*
X128136396Y-107500000D01*
X128681353Y-108044957D01*
X128704755Y-107999031D01*
X128767990Y-107804417D01*
X128800000Y-107602317D01*
X128800000Y-107397682D01*
X128767989Y-107195581D01*
X128767989Y-107195578D01*
X128704758Y-107000976D01*
X128704758Y-107000975D01*
X128681354Y-106955040D01*
X128136396Y-107499999D01*
X127900000Y-107499999D01*
X127900000Y-107447339D01*
X127872741Y-107345606D01*
X127820080Y-107254394D01*
X127745606Y-107179920D01*
X127654394Y-107127259D01*
X127552661Y-107100000D01*
X127447339Y-107100000D01*
X127345606Y-107127259D01*
X127254394Y-107179920D01*
X127236756Y-107197557D01*
X127240982Y-107138468D01*
X127269483Y-107094121D01*
X128044958Y-106318645D01*
X127999024Y-106295242D01*
X127999022Y-106295241D01*
X127804419Y-106232010D01*
X127602317Y-106200000D01*
X127397683Y-106200000D01*
X127195582Y-106232009D01*
X127000968Y-106295244D01*
X126818647Y-106388142D01*
X126697385Y-106476244D01*
X126631579Y-106499724D01*
X126563525Y-106483898D01*
X126514830Y-106433793D01*
X126500500Y-106375926D01*
X126500500Y-103624691D01*
X126520185Y-103557652D01*
X126572989Y-103511897D01*
X126642147Y-103501953D01*
X126697385Y-103524373D01*
X126800790Y-103599500D01*
X126818390Y-103612287D01*
X126917453Y-103662762D01*
X127000776Y-103705218D01*
X127000778Y-103705218D01*
X127000781Y-103705220D01*
X127078382Y-103730434D01*
X127195465Y-103768477D01*
X127296557Y-103784488D01*
X127397648Y-103800500D01*
X127397649Y-103800500D01*
X127602351Y-103800500D01*
X127602352Y-103800500D01*
X127804534Y-103768477D01*
X127999219Y-103705220D01*
X128181610Y-103612287D01*
X128274590Y-103544732D01*
X128347213Y-103491971D01*
X128347215Y-103491968D01*
X128347219Y-103491966D01*
X128491966Y-103347219D01*
X128491968Y-103347215D01*
X128491971Y-103347213D01*
X128544732Y-103274590D01*
X128612287Y-103181610D01*
X128705220Y-102999219D01*
X128768477Y-102804534D01*
X128800500Y-102602352D01*
X128800500Y-102397648D01*
X128768477Y-102195466D01*
X128705220Y-102000781D01*
X128705218Y-102000778D01*
X128705218Y-102000776D01*
X128671503Y-101934607D01*
X128612287Y-101818390D01*
X128604556Y-101807749D01*
X128491971Y-101652786D01*
X128347213Y-101508028D01*
X128181611Y-101387713D01*
X128105190Y-101348774D01*
X128054395Y-101300800D01*
X128037600Y-101232979D01*
X128039013Y-101218892D01*
X128044958Y-101181354D01*
X127269483Y-100405879D01*
X127235998Y-100344556D01*
X127238859Y-100304545D01*
X127254394Y-100320080D01*
X127345606Y-100372741D01*
X127447339Y-100400000D01*
X127552661Y-100400000D01*
X127654394Y-100372741D01*
X127745606Y-100320080D01*
X127820080Y-100245606D01*
X127872741Y-100154394D01*
X127900000Y-100052661D01*
X127900000Y-99999999D01*
X128136396Y-99999999D01*
X128136396Y-100000000D01*
X128681353Y-100544957D01*
X128704755Y-100499031D01*
X128767990Y-100304417D01*
X128800000Y-100102317D01*
X128800000Y-99897682D01*
X128767989Y-99695581D01*
X128767989Y-99695578D01*
X128704758Y-99500976D01*
X128704758Y-99500975D01*
X128681354Y-99455040D01*
X128136396Y-99999999D01*
X127900000Y-99999999D01*
X127900000Y-99947339D01*
X127872741Y-99845606D01*
X127820080Y-99754394D01*
X127745606Y-99679920D01*
X127654394Y-99627259D01*
X127552661Y-99600000D01*
X127447339Y-99600000D01*
X127345606Y-99627259D01*
X127254394Y-99679920D01*
X127236756Y-99697557D01*
X127240982Y-99638468D01*
X127269483Y-99594121D01*
X128044958Y-98818645D01*
X127999024Y-98795242D01*
X127999022Y-98795241D01*
X127804419Y-98732010D01*
X127602317Y-98700000D01*
X127397683Y-98700000D01*
X127195582Y-98732009D01*
X127000968Y-98795244D01*
X126818647Y-98888142D01*
X126697385Y-98976244D01*
X126631579Y-98999724D01*
X126563525Y-98983898D01*
X126514830Y-98933793D01*
X126500500Y-98875926D01*
X126500500Y-96124691D01*
X126520185Y-96057652D01*
X126572989Y-96011897D01*
X126642147Y-96001953D01*
X126697385Y-96024373D01*
X126800790Y-96099500D01*
X126818390Y-96112287D01*
X126917453Y-96162762D01*
X127000776Y-96205218D01*
X127000778Y-96205218D01*
X127000781Y-96205220D01*
X127078382Y-96230434D01*
X127195465Y-96268477D01*
X127296557Y-96284488D01*
X127397648Y-96300500D01*
X127397649Y-96300500D01*
X127602351Y-96300500D01*
X127602352Y-96300500D01*
X127804534Y-96268477D01*
X127999219Y-96205220D01*
X128181610Y-96112287D01*
X128274590Y-96044732D01*
X128347213Y-95991971D01*
X128347215Y-95991968D01*
X128347219Y-95991966D01*
X128491966Y-95847219D01*
X128491968Y-95847215D01*
X128491971Y-95847213D01*
X128544732Y-95774590D01*
X128612287Y-95681610D01*
X128705220Y-95499219D01*
X128768477Y-95304534D01*
X128800500Y-95102352D01*
X128800500Y-94897648D01*
X128768477Y-94695466D01*
X128705220Y-94500781D01*
X128705218Y-94500778D01*
X128705218Y-94500776D01*
X128671503Y-94434607D01*
X128612287Y-94318390D01*
X128604556Y-94307749D01*
X128491971Y-94152786D01*
X128347213Y-94008028D01*
X128181611Y-93887713D01*
X128105190Y-93848774D01*
X128054395Y-93800800D01*
X128037600Y-93732979D01*
X128039013Y-93718892D01*
X128044958Y-93681354D01*
X127269483Y-92905879D01*
X127235998Y-92844556D01*
X127238859Y-92804545D01*
X127254394Y-92820080D01*
X127345606Y-92872741D01*
X127447339Y-92900000D01*
X127552661Y-92900000D01*
X127654394Y-92872741D01*
X127745606Y-92820080D01*
X127820080Y-92745606D01*
X127872741Y-92654394D01*
X127900000Y-92552661D01*
X127900000Y-92499999D01*
X128136396Y-92499999D01*
X128136396Y-92500000D01*
X128681353Y-93044957D01*
X128704755Y-92999031D01*
X128767990Y-92804417D01*
X128800000Y-92602317D01*
X128800000Y-92397682D01*
X128767989Y-92195581D01*
X128767989Y-92195578D01*
X128704758Y-92000976D01*
X128704758Y-92000975D01*
X128681354Y-91955040D01*
X128136396Y-92499999D01*
X127900000Y-92499999D01*
X127900000Y-92447339D01*
X127872741Y-92345606D01*
X127820080Y-92254394D01*
X127745606Y-92179920D01*
X127654394Y-92127259D01*
X127552661Y-92100000D01*
X127447339Y-92100000D01*
X127345606Y-92127259D01*
X127254394Y-92179920D01*
X127236756Y-92197557D01*
X127240982Y-92138468D01*
X127269483Y-92094121D01*
X128044958Y-91318645D01*
X127999024Y-91295242D01*
X127999022Y-91295241D01*
X127804419Y-91232010D01*
X127602317Y-91200000D01*
X127397683Y-91200000D01*
X127195582Y-91232009D01*
X127000968Y-91295244D01*
X126818647Y-91388142D01*
X126697385Y-91476244D01*
X126631579Y-91499724D01*
X126563525Y-91483898D01*
X126514830Y-91433793D01*
X126500500Y-91375926D01*
X126500500Y-89494863D01*
X128599500Y-89494863D01*
X128599500Y-90505136D01*
X128609582Y-90618548D01*
X128662762Y-90804405D01*
X128662763Y-90804406D01*
X128752266Y-90975751D01*
X128760946Y-90986396D01*
X128874428Y-91125571D01*
X128949339Y-91186652D01*
X129024249Y-91247734D01*
X129182913Y-91330613D01*
X129233218Y-91379097D01*
X129249500Y-91440520D01*
X129249500Y-93573918D01*
X129249500Y-93573920D01*
X129249499Y-93573920D01*
X129278340Y-93718907D01*
X129278343Y-93718917D01*
X129334914Y-93855492D01*
X129334915Y-93855494D01*
X129334916Y-93855495D01*
X129356443Y-93887713D01*
X129367812Y-93904727D01*
X129367813Y-93904730D01*
X129417046Y-93978414D01*
X129417052Y-93978421D01*
X130521585Y-95082952D01*
X130521588Y-95082955D01*
X130536094Y-95092646D01*
X130550620Y-95102352D01*
X130644505Y-95165084D01*
X130701080Y-95188518D01*
X130781088Y-95221659D01*
X130897241Y-95244763D01*
X130916468Y-95248587D01*
X130926081Y-95250500D01*
X130926082Y-95250500D01*
X130926083Y-95250500D01*
X131073918Y-95250500D01*
X133539770Y-95250500D01*
X133606809Y-95270185D01*
X133627451Y-95286819D01*
X134039181Y-95698548D01*
X134072666Y-95759871D01*
X134075500Y-95786229D01*
X134075500Y-96119949D01*
X134055815Y-96186988D01*
X134003011Y-96232743D01*
X133933853Y-96242687D01*
X133895205Y-96230434D01*
X133839606Y-96202104D01*
X133839603Y-96202103D01*
X133629952Y-96133985D01*
X133521086Y-96116742D01*
X133412222Y-96099500D01*
X133191778Y-96099500D01*
X133128123Y-96109582D01*
X132974047Y-96133985D01*
X132764396Y-96202103D01*
X132764393Y-96202104D01*
X132567974Y-96302187D01*
X132389641Y-96431752D01*
X132389636Y-96431756D01*
X132233756Y-96587636D01*
X132233752Y-96587641D01*
X132104187Y-96765974D01*
X132004104Y-96962393D01*
X132004103Y-96962396D01*
X131935985Y-97172047D01*
X131901500Y-97389778D01*
X131901500Y-97500000D01*
X131881815Y-97567039D01*
X131829011Y-97612794D01*
X131777500Y-97624000D01*
X131667819Y-97624000D01*
X131543898Y-97643627D01*
X131474604Y-97634672D01*
X131421152Y-97589676D01*
X131400513Y-97522925D01*
X131400500Y-97521154D01*
X131400500Y-96994869D01*
X131400500Y-96994862D01*
X131390417Y-96881448D01*
X131337237Y-96695594D01*
X131247734Y-96524249D01*
X131172317Y-96431758D01*
X131125571Y-96374428D01*
X130995632Y-96268477D01*
X130975751Y-96252266D01*
X130885686Y-96205220D01*
X130804405Y-96162762D01*
X130627991Y-96112284D01*
X130618552Y-96109583D01*
X130618551Y-96109582D01*
X130618548Y-96109582D01*
X130529662Y-96101680D01*
X130505138Y-96099500D01*
X129494862Y-96099500D01*
X129482599Y-96100590D01*
X129381451Y-96109582D01*
X129195594Y-96162762D01*
X129024250Y-96252265D01*
X128874428Y-96374428D01*
X128752265Y-96524250D01*
X128662762Y-96695594D01*
X128609582Y-96881451D01*
X128599500Y-96994863D01*
X128599500Y-98005136D01*
X128609582Y-98118548D01*
X128662762Y-98304405D01*
X128662763Y-98304406D01*
X128752266Y-98475751D01*
X128760946Y-98486396D01*
X128874428Y-98625571D01*
X128949339Y-98686652D01*
X129024249Y-98747734D01*
X129182913Y-98830613D01*
X129233218Y-98879097D01*
X129249500Y-98940520D01*
X129249500Y-101073918D01*
X129249500Y-101073920D01*
X129249499Y-101073920D01*
X129278340Y-101218907D01*
X129278343Y-101218917D01*
X129334914Y-101355492D01*
X129334915Y-101355494D01*
X129334916Y-101355495D01*
X129356443Y-101387713D01*
X129367812Y-101404727D01*
X129367813Y-101404730D01*
X129417046Y-101478414D01*
X129417052Y-101478421D01*
X130521585Y-102582952D01*
X130521588Y-102582955D01*
X130536094Y-102592646D01*
X130550620Y-102602352D01*
X130644505Y-102665084D01*
X130701080Y-102688518D01*
X130781088Y-102721659D01*
X130897241Y-102744763D01*
X130916468Y-102748587D01*
X130926081Y-102750500D01*
X130926082Y-102750500D01*
X130926083Y-102750500D01*
X131073918Y-102750500D01*
X133539770Y-102750500D01*
X133606809Y-102770185D01*
X133627451Y-102786819D01*
X134039181Y-103198548D01*
X134072666Y-103259871D01*
X134075500Y-103286229D01*
X134075500Y-103619949D01*
X134055815Y-103686988D01*
X134003011Y-103732743D01*
X133933853Y-103742687D01*
X133895205Y-103730434D01*
X133839606Y-103702104D01*
X133839603Y-103702103D01*
X133629952Y-103633985D01*
X133521086Y-103616742D01*
X133412222Y-103599500D01*
X133191778Y-103599500D01*
X133128123Y-103609582D01*
X132974047Y-103633985D01*
X132764396Y-103702103D01*
X132764393Y-103702104D01*
X132567974Y-103802187D01*
X132389641Y-103931752D01*
X132389636Y-103931756D01*
X132233756Y-104087636D01*
X132233752Y-104087641D01*
X132104187Y-104265974D01*
X132004104Y-104462393D01*
X132004103Y-104462396D01*
X131935985Y-104672047D01*
X131901500Y-104889778D01*
X131901500Y-105000000D01*
X131881815Y-105067039D01*
X131829011Y-105112794D01*
X131777500Y-105124000D01*
X131667819Y-105124000D01*
X131543898Y-105143627D01*
X131474604Y-105134672D01*
X131421152Y-105089676D01*
X131400513Y-105022925D01*
X131400500Y-105021154D01*
X131400500Y-104494869D01*
X131400500Y-104494862D01*
X131390417Y-104381448D01*
X131337237Y-104195594D01*
X131247734Y-104024249D01*
X131172317Y-103931758D01*
X131125571Y-103874428D01*
X130995632Y-103768477D01*
X130975751Y-103752266D01*
X130885686Y-103705220D01*
X130804405Y-103662762D01*
X130627991Y-103612284D01*
X130618552Y-103609583D01*
X130618551Y-103609582D01*
X130618548Y-103609582D01*
X130529662Y-103601680D01*
X130505138Y-103599500D01*
X129494862Y-103599500D01*
X129482599Y-103600590D01*
X129381451Y-103609582D01*
X129195594Y-103662762D01*
X129024250Y-103752265D01*
X128874428Y-103874428D01*
X128752265Y-104024250D01*
X128662762Y-104195594D01*
X128609582Y-104381451D01*
X128599500Y-104494863D01*
X128599500Y-105505136D01*
X128609582Y-105618548D01*
X128662762Y-105804405D01*
X128662763Y-105804406D01*
X128752266Y-105975751D01*
X128760946Y-105986396D01*
X128874428Y-106125571D01*
X128949339Y-106186652D01*
X129024249Y-106247734D01*
X129182913Y-106330613D01*
X129233218Y-106379097D01*
X129249500Y-106440520D01*
X129249500Y-108573918D01*
X129249500Y-108573920D01*
X129249499Y-108573920D01*
X129278340Y-108718907D01*
X129278343Y-108718917D01*
X129334914Y-108855492D01*
X129334915Y-108855494D01*
X129334916Y-108855495D01*
X129356443Y-108887713D01*
X129367812Y-108904727D01*
X129367813Y-108904730D01*
X129417046Y-108978414D01*
X129417052Y-108978421D01*
X130521585Y-110082952D01*
X130521588Y-110082955D01*
X130536094Y-110092646D01*
X130550620Y-110102352D01*
X130644505Y-110165084D01*
X130701080Y-110188518D01*
X130781088Y-110221659D01*
X130897241Y-110244763D01*
X130916468Y-110248587D01*
X130926081Y-110250500D01*
X130926082Y-110250500D01*
X130926083Y-110250500D01*
X131073918Y-110250500D01*
X133539770Y-110250500D01*
X133606809Y-110270185D01*
X133627451Y-110286819D01*
X134039181Y-110698548D01*
X134072666Y-110759871D01*
X134075500Y-110786229D01*
X134075500Y-111119949D01*
X134055815Y-111186988D01*
X134003011Y-111232743D01*
X133933853Y-111242687D01*
X133895205Y-111230434D01*
X133839606Y-111202104D01*
X133839603Y-111202103D01*
X133629952Y-111133985D01*
X133521086Y-111116742D01*
X133412222Y-111099500D01*
X133191778Y-111099500D01*
X133128123Y-111109582D01*
X132974047Y-111133985D01*
X132764396Y-111202103D01*
X132764393Y-111202104D01*
X132567974Y-111302187D01*
X132389641Y-111431752D01*
X132389636Y-111431756D01*
X132233756Y-111587636D01*
X132233752Y-111587641D01*
X132104187Y-111765974D01*
X132004104Y-111962393D01*
X132004103Y-111962396D01*
X131935985Y-112172047D01*
X131901500Y-112389778D01*
X131901500Y-112500000D01*
X131881815Y-112567039D01*
X131829011Y-112612794D01*
X131777500Y-112624000D01*
X131667819Y-112624000D01*
X131543898Y-112643627D01*
X131474604Y-112634672D01*
X131421152Y-112589676D01*
X131400513Y-112522925D01*
X131400500Y-112521154D01*
X131400500Y-111994869D01*
X131400500Y-111994862D01*
X131390417Y-111881448D01*
X131337237Y-111695594D01*
X131247734Y-111524249D01*
X131172317Y-111431758D01*
X131125571Y-111374428D01*
X130995632Y-111268477D01*
X130975751Y-111252266D01*
X130885686Y-111205220D01*
X130804405Y-111162762D01*
X130627991Y-111112284D01*
X130618552Y-111109583D01*
X130618551Y-111109582D01*
X130618548Y-111109582D01*
X130529662Y-111101680D01*
X130505138Y-111099500D01*
X129494862Y-111099500D01*
X129482599Y-111100590D01*
X129381451Y-111109582D01*
X129195594Y-111162762D01*
X129024250Y-111252265D01*
X128874428Y-111374428D01*
X128752265Y-111524250D01*
X128662762Y-111695594D01*
X128609582Y-111881451D01*
X128599500Y-111994863D01*
X128599500Y-113005136D01*
X128609582Y-113118548D01*
X128662762Y-113304405D01*
X128662763Y-113304406D01*
X128752266Y-113475751D01*
X128760946Y-113486396D01*
X128874428Y-113625571D01*
X128949339Y-113686652D01*
X129024249Y-113747734D01*
X129182913Y-113830613D01*
X129233218Y-113879097D01*
X129249500Y-113940520D01*
X129249500Y-116073918D01*
X129249500Y-116073920D01*
X129249499Y-116073920D01*
X129278340Y-116218907D01*
X129278343Y-116218917D01*
X129334914Y-116355492D01*
X129334915Y-116355494D01*
X129334916Y-116355495D01*
X129356443Y-116387713D01*
X129367812Y-116404727D01*
X129367813Y-116404730D01*
X129417046Y-116478414D01*
X129417052Y-116478421D01*
X130521585Y-117582952D01*
X130521588Y-117582955D01*
X130536094Y-117592646D01*
X130550620Y-117602352D01*
X130644505Y-117665084D01*
X130701080Y-117688518D01*
X130781088Y-117721659D01*
X130897241Y-117744763D01*
X130916468Y-117748587D01*
X130926081Y-117750500D01*
X130926082Y-117750500D01*
X130926083Y-117750500D01*
X131073918Y-117750500D01*
X133539770Y-117750500D01*
X133606809Y-117770185D01*
X133627451Y-117786819D01*
X134039181Y-118198548D01*
X134072666Y-118259871D01*
X134075500Y-118286229D01*
X134075500Y-118619949D01*
X134055815Y-118686988D01*
X134003011Y-118732743D01*
X133933853Y-118742687D01*
X133895205Y-118730434D01*
X133839606Y-118702104D01*
X133839603Y-118702103D01*
X133629952Y-118633985D01*
X133521086Y-118616742D01*
X133412222Y-118599500D01*
X133191778Y-118599500D01*
X133128123Y-118609582D01*
X132974047Y-118633985D01*
X132764396Y-118702103D01*
X132764393Y-118702104D01*
X132567974Y-118802187D01*
X132389641Y-118931752D01*
X132389636Y-118931756D01*
X132233756Y-119087636D01*
X132233752Y-119087641D01*
X132104187Y-119265974D01*
X132004104Y-119462393D01*
X132004103Y-119462396D01*
X131935985Y-119672047D01*
X131901500Y-119889778D01*
X131901500Y-120000000D01*
X131881815Y-120067039D01*
X131829011Y-120112794D01*
X131777500Y-120124000D01*
X131667819Y-120124000D01*
X131543898Y-120143627D01*
X131474604Y-120134672D01*
X131421152Y-120089676D01*
X131400513Y-120022925D01*
X131400500Y-120021154D01*
X131400500Y-119494869D01*
X131400500Y-119494862D01*
X131390417Y-119381448D01*
X131337237Y-119195594D01*
X131247734Y-119024249D01*
X131172317Y-118931758D01*
X131125571Y-118874428D01*
X130995632Y-118768477D01*
X130975751Y-118752266D01*
X130885686Y-118705220D01*
X130804405Y-118662762D01*
X130627991Y-118612284D01*
X130618552Y-118609583D01*
X130618551Y-118609582D01*
X130618548Y-118609582D01*
X130529662Y-118601680D01*
X130505138Y-118599500D01*
X129494862Y-118599500D01*
X129482599Y-118600590D01*
X129381451Y-118609582D01*
X129195594Y-118662762D01*
X129024250Y-118752265D01*
X128874428Y-118874428D01*
X128752265Y-119024250D01*
X128662762Y-119195594D01*
X128609582Y-119381451D01*
X128599500Y-119494863D01*
X128599500Y-120505136D01*
X128609582Y-120618548D01*
X128662762Y-120804405D01*
X128700122Y-120875926D01*
X128752266Y-120975751D01*
X128760946Y-120986396D01*
X128874428Y-121125571D01*
X128949339Y-121186652D01*
X129024249Y-121247734D01*
X129182913Y-121330613D01*
X129233218Y-121379097D01*
X129249500Y-121440520D01*
X129249500Y-122823918D01*
X129249500Y-122823920D01*
X129249499Y-122823920D01*
X129278340Y-122968907D01*
X129278343Y-122968917D01*
X129334914Y-123105492D01*
X129334915Y-123105494D01*
X129334916Y-123105495D01*
X129361179Y-123144801D01*
X129367812Y-123154727D01*
X129367813Y-123154730D01*
X129417046Y-123228414D01*
X129417052Y-123228421D01*
X131713181Y-125524549D01*
X131746666Y-125585872D01*
X131749500Y-125612230D01*
X131749500Y-129412779D01*
X131729815Y-129479818D01*
X131698385Y-129513097D01*
X131620211Y-129569893D01*
X131481035Y-129709069D01*
X131419712Y-129742553D01*
X131350020Y-129737569D01*
X131294087Y-129695697D01*
X131287815Y-129686484D01*
X131192315Y-129531654D01*
X131068345Y-129407684D01*
X130919124Y-129315643D01*
X130919119Y-129315641D01*
X130752697Y-129260494D01*
X130752690Y-129260493D01*
X130649986Y-129250000D01*
X130450000Y-129250000D01*
X130450000Y-130569162D01*
X130442630Y-130541657D01*
X130380095Y-130433343D01*
X130291657Y-130344905D01*
X130183343Y-130282370D01*
X130062535Y-130250000D01*
X129937465Y-130250000D01*
X129816657Y-130282370D01*
X129708343Y-130344905D01*
X129619905Y-130433343D01*
X129557370Y-130541657D01*
X129525000Y-130662465D01*
X129525000Y-130787535D01*
X129557370Y-130908343D01*
X129619905Y-131016657D01*
X129708343Y-131105095D01*
X129816657Y-131167630D01*
X129937465Y-131200000D01*
X130062535Y-131200000D01*
X130183343Y-131167630D01*
X130291657Y-131105095D01*
X130380095Y-131016657D01*
X130442630Y-130908343D01*
X130450000Y-130880837D01*
X130450000Y-132199999D01*
X130649972Y-132199999D01*
X130649986Y-132199998D01*
X130752697Y-132189505D01*
X130919119Y-132134358D01*
X130919124Y-132134356D01*
X131068345Y-132042315D01*
X131192317Y-131918343D01*
X131287815Y-131763516D01*
X131339763Y-131716791D01*
X131408725Y-131705568D01*
X131472808Y-131733412D01*
X131481035Y-131740931D01*
X131620213Y-131880109D01*
X131792179Y-132005048D01*
X131792181Y-132005049D01*
X131792184Y-132005051D01*
X131981588Y-132101557D01*
X132183757Y-132167246D01*
X132393713Y-132200500D01*
X132393714Y-132200500D01*
X132606286Y-132200500D01*
X132606287Y-132200500D01*
X132816243Y-132167246D01*
X133018412Y-132101557D01*
X133207816Y-132005051D01*
X133254275Y-131971297D01*
X133379786Y-131880109D01*
X133379788Y-131880106D01*
X133379792Y-131880104D01*
X133530104Y-131729792D01*
X133649683Y-131565204D01*
X133705011Y-131522540D01*
X133774624Y-131516561D01*
X133836420Y-131549166D01*
X133850313Y-131565199D01*
X133877557Y-131602697D01*
X133969896Y-131729792D01*
X134120213Y-131880109D01*
X134292179Y-132005048D01*
X134292181Y-132005049D01*
X134292184Y-132005051D01*
X134481588Y-132101557D01*
X134683757Y-132167246D01*
X134893713Y-132200500D01*
X134893714Y-132200500D01*
X135106286Y-132200500D01*
X135106287Y-132200500D01*
X135316243Y-132167246D01*
X135518412Y-132101557D01*
X135707816Y-132005051D01*
X135754275Y-131971297D01*
X135879786Y-131880109D01*
X135879788Y-131880106D01*
X135879792Y-131880104D01*
X136030104Y-131729792D01*
X136030106Y-131729788D01*
X136030109Y-131729786D01*
X136155048Y-131557820D01*
X136155047Y-131557820D01*
X136155051Y-131557816D01*
X136251557Y-131368412D01*
X136317246Y-131166243D01*
X136350500Y-130956287D01*
X136350500Y-130493713D01*
X136317246Y-130283757D01*
X136251557Y-130081588D01*
X136155051Y-129892184D01*
X136155049Y-129892181D01*
X136155048Y-129892179D01*
X136030109Y-129720213D01*
X135879786Y-129569890D01*
X135707820Y-129444951D01*
X135518414Y-129348444D01*
X135518413Y-129348443D01*
X135518412Y-129348443D01*
X135316243Y-129282754D01*
X135316241Y-129282753D01*
X135316240Y-129282753D01*
X135154957Y-129257208D01*
X135106287Y-129249500D01*
X134893713Y-129249500D01*
X134845042Y-129257208D01*
X134683760Y-129282753D01*
X134481585Y-129348444D01*
X134292179Y-129444951D01*
X134120213Y-129569890D01*
X133969894Y-129720209D01*
X133969890Y-129720214D01*
X133850318Y-129884793D01*
X133794989Y-129927459D01*
X133725375Y-129933438D01*
X133663580Y-129900833D01*
X133649682Y-129884793D01*
X133530109Y-129720214D01*
X133530105Y-129720209D01*
X133379794Y-129569898D01*
X133379788Y-129569893D01*
X133301615Y-129513097D01*
X133258949Y-129457767D01*
X133250500Y-129412779D01*
X133250500Y-125176079D01*
X133221659Y-125031092D01*
X133221658Y-125031091D01*
X133221658Y-125031087D01*
X133165084Y-124894505D01*
X133132186Y-124845270D01*
X133104968Y-124804534D01*
X133082956Y-124771589D01*
X133082952Y-124771584D01*
X131423839Y-123112471D01*
X131390354Y-123051148D01*
X131395338Y-122981456D01*
X131437210Y-122925523D01*
X131502674Y-122901106D01*
X131530918Y-122902317D01*
X131667819Y-122924000D01*
X131888181Y-122924000D01*
X132105835Y-122889526D01*
X132315411Y-122821431D01*
X132315418Y-122821428D01*
X132397307Y-122779702D01*
X131547483Y-121929878D01*
X131532051Y-121901616D01*
X131604306Y-121943333D01*
X131718756Y-121974000D01*
X131837244Y-121974000D01*
X131951694Y-121943333D01*
X132054306Y-121884090D01*
X132138090Y-121800306D01*
X132197333Y-121697694D01*
X132228000Y-121583244D01*
X132228000Y-121464756D01*
X132197333Y-121350306D01*
X132153109Y-121273708D01*
X132183878Y-121293483D01*
X133033702Y-122143307D01*
X133075428Y-122061418D01*
X133075431Y-122061411D01*
X133143526Y-121851835D01*
X133177998Y-121634187D01*
X133178130Y-121632522D01*
X133178357Y-121631925D01*
X133178762Y-121629370D01*
X133179298Y-121629455D01*
X133203012Y-121567233D01*
X133259243Y-121525761D01*
X133328968Y-121521273D01*
X133390051Y-121555193D01*
X133423099Y-121616753D01*
X133425365Y-121632506D01*
X133425500Y-121634223D01*
X133459985Y-121851952D01*
X133528103Y-122061603D01*
X133528104Y-122061606D01*
X133569734Y-122143307D01*
X133614170Y-122230517D01*
X133628187Y-122258025D01*
X133757752Y-122436358D01*
X133757756Y-122436363D01*
X133913636Y-122592243D01*
X133913641Y-122592247D01*
X134069192Y-122705260D01*
X134091978Y-122721815D01*
X134220375Y-122787237D01*
X134288393Y-122821895D01*
X134288396Y-122821896D01*
X134393221Y-122855955D01*
X134498049Y-122890015D01*
X134715778Y-122924500D01*
X134715779Y-122924500D01*
X134936221Y-122924500D01*
X134936222Y-122924500D01*
X135153951Y-122890015D01*
X135363606Y-122821895D01*
X135560022Y-122721815D01*
X135738365Y-122592242D01*
X135894242Y-122436365D01*
X136023815Y-122258022D01*
X136123895Y-122061606D01*
X136192015Y-121851951D01*
X136226500Y-121634222D01*
X136226500Y-121413778D01*
X136192015Y-121196049D01*
X136157955Y-121091221D01*
X136123896Y-120986396D01*
X136123895Y-120986393D01*
X136086175Y-120912365D01*
X136023815Y-120789978D01*
X135958443Y-120700000D01*
X135894247Y-120611641D01*
X135894243Y-120611636D01*
X135738367Y-120455760D01*
X135738365Y-120455758D01*
X135627613Y-120375291D01*
X135584949Y-120319963D01*
X135576500Y-120274975D01*
X135576500Y-117850079D01*
X135547659Y-117705092D01*
X135547658Y-117705091D01*
X135547658Y-117705087D01*
X135505104Y-117602352D01*
X135491087Y-117568511D01*
X135491080Y-117568498D01*
X135408952Y-117445585D01*
X135361015Y-117397648D01*
X135304416Y-117341049D01*
X135158832Y-117195465D01*
X134380421Y-116417052D01*
X134380414Y-116417046D01*
X134306729Y-116367812D01*
X134306729Y-116367813D01*
X134257491Y-116334913D01*
X134120917Y-116278343D01*
X134120907Y-116278340D01*
X133975920Y-116249500D01*
X133975918Y-116249500D01*
X131362229Y-116249500D01*
X131295190Y-116229815D01*
X131274548Y-116213181D01*
X130786819Y-115725451D01*
X130753334Y-115664128D01*
X130750500Y-115637770D01*
X130750500Y-115251336D01*
X130770185Y-115184297D01*
X130822989Y-115138542D01*
X130892147Y-115128598D01*
X130947386Y-115151018D01*
X131044239Y-115221386D01*
X131240589Y-115321432D01*
X131450164Y-115389526D01*
X131667819Y-115424000D01*
X131888181Y-115424000D01*
X132105835Y-115389526D01*
X132315411Y-115321431D01*
X132315418Y-115321428D01*
X132397307Y-115279702D01*
X131547483Y-114429878D01*
X131532051Y-114401616D01*
X131604306Y-114443333D01*
X131718756Y-114474000D01*
X131837244Y-114474000D01*
X131951694Y-114443333D01*
X132054306Y-114384090D01*
X132138090Y-114300306D01*
X132197333Y-114197694D01*
X132228000Y-114083244D01*
X132228000Y-113964756D01*
X132197333Y-113850306D01*
X132153109Y-113773708D01*
X132183878Y-113793483D01*
X133033702Y-114643307D01*
X133075428Y-114561418D01*
X133075431Y-114561411D01*
X133143526Y-114351835D01*
X133177998Y-114134187D01*
X133178130Y-114132522D01*
X133178357Y-114131925D01*
X133178762Y-114129370D01*
X133179298Y-114129455D01*
X133203012Y-114067233D01*
X133259243Y-114025761D01*
X133328968Y-114021273D01*
X133390051Y-114055193D01*
X133423099Y-114116753D01*
X133425365Y-114132506D01*
X133425500Y-114134223D01*
X133459985Y-114351952D01*
X133528103Y-114561603D01*
X133528104Y-114561606D01*
X133569734Y-114643307D01*
X133626336Y-114754394D01*
X133628187Y-114758025D01*
X133757752Y-114936358D01*
X133757756Y-114936363D01*
X133913636Y-115092243D01*
X133913641Y-115092247D01*
X134069192Y-115205260D01*
X134091978Y-115221815D01*
X134220375Y-115287237D01*
X134288393Y-115321895D01*
X134288396Y-115321896D01*
X134358138Y-115344556D01*
X134498049Y-115390015D01*
X134715778Y-115424500D01*
X134715779Y-115424500D01*
X134936221Y-115424500D01*
X134936222Y-115424500D01*
X135153951Y-115390015D01*
X135363606Y-115321895D01*
X135560022Y-115221815D01*
X135738365Y-115092242D01*
X135894242Y-114936365D01*
X136023815Y-114758022D01*
X136123895Y-114561606D01*
X136192015Y-114351951D01*
X136226500Y-114134222D01*
X136226500Y-113913778D01*
X136192015Y-113696049D01*
X136157955Y-113591221D01*
X136123896Y-113486396D01*
X136123895Y-113486393D01*
X136086175Y-113412365D01*
X136023815Y-113289978D01*
X135983161Y-113234022D01*
X135894247Y-113111641D01*
X135894243Y-113111636D01*
X135738367Y-112955760D01*
X135738365Y-112955758D01*
X135627613Y-112875291D01*
X135584949Y-112819963D01*
X135576500Y-112774975D01*
X135576500Y-110350079D01*
X135547659Y-110205092D01*
X135547658Y-110205091D01*
X135547658Y-110205087D01*
X135505104Y-110102352D01*
X135491087Y-110068511D01*
X135491080Y-110068498D01*
X135408952Y-109945585D01*
X135361015Y-109897648D01*
X135304416Y-109841049D01*
X135158832Y-109695465D01*
X134380421Y-108917052D01*
X134380414Y-108917046D01*
X134306729Y-108867812D01*
X134306729Y-108867813D01*
X134257491Y-108834913D01*
X134120917Y-108778343D01*
X134120907Y-108778340D01*
X133975920Y-108749500D01*
X133975918Y-108749500D01*
X131362229Y-108749500D01*
X131295190Y-108729815D01*
X131274548Y-108713181D01*
X130786819Y-108225451D01*
X130753334Y-108164128D01*
X130750500Y-108137770D01*
X130750500Y-107751336D01*
X130770185Y-107684297D01*
X130822989Y-107638542D01*
X130892147Y-107628598D01*
X130947386Y-107651018D01*
X131044239Y-107721386D01*
X131240589Y-107821432D01*
X131450164Y-107889526D01*
X131667819Y-107924000D01*
X131888181Y-107924000D01*
X132105835Y-107889526D01*
X132315411Y-107821431D01*
X132315418Y-107821428D01*
X132397307Y-107779702D01*
X131547483Y-106929878D01*
X131532051Y-106901616D01*
X131604306Y-106943333D01*
X131718756Y-106974000D01*
X131837244Y-106974000D01*
X131951694Y-106943333D01*
X132054306Y-106884090D01*
X132138090Y-106800306D01*
X132197333Y-106697694D01*
X132228000Y-106583244D01*
X132228000Y-106464756D01*
X132197333Y-106350306D01*
X132153109Y-106273708D01*
X132183878Y-106293483D01*
X133033702Y-107143307D01*
X133075428Y-107061418D01*
X133075431Y-107061411D01*
X133143526Y-106851835D01*
X133177998Y-106634187D01*
X133178130Y-106632522D01*
X133178357Y-106631925D01*
X133178762Y-106629370D01*
X133179298Y-106629455D01*
X133203012Y-106567233D01*
X133259243Y-106525761D01*
X133328968Y-106521273D01*
X133390051Y-106555193D01*
X133423099Y-106616753D01*
X133425365Y-106632506D01*
X133425500Y-106634223D01*
X133459985Y-106851952D01*
X133528103Y-107061603D01*
X133528104Y-107061606D01*
X133569734Y-107143307D01*
X133626336Y-107254394D01*
X133628187Y-107258025D01*
X133757752Y-107436358D01*
X133757756Y-107436363D01*
X133913636Y-107592243D01*
X133913641Y-107592247D01*
X134069192Y-107705260D01*
X134091978Y-107721815D01*
X134220375Y-107787237D01*
X134288393Y-107821895D01*
X134288396Y-107821896D01*
X134358138Y-107844556D01*
X134498049Y-107890015D01*
X134715778Y-107924500D01*
X134715779Y-107924500D01*
X134936221Y-107924500D01*
X134936222Y-107924500D01*
X135153951Y-107890015D01*
X135363606Y-107821895D01*
X135560022Y-107721815D01*
X135738365Y-107592242D01*
X135894242Y-107436365D01*
X136023815Y-107258022D01*
X136123895Y-107061606D01*
X136192015Y-106851951D01*
X136226500Y-106634222D01*
X136226500Y-106413778D01*
X136192015Y-106196049D01*
X136157955Y-106091221D01*
X136123896Y-105986396D01*
X136123895Y-105986393D01*
X136086175Y-105912365D01*
X136023815Y-105789978D01*
X135983161Y-105734022D01*
X135894247Y-105611641D01*
X135894243Y-105611636D01*
X135738367Y-105455760D01*
X135738365Y-105455758D01*
X135627613Y-105375291D01*
X135584949Y-105319963D01*
X135576500Y-105274975D01*
X135576500Y-102850079D01*
X135547659Y-102705092D01*
X135547658Y-102705091D01*
X135547658Y-102705087D01*
X135505104Y-102602352D01*
X135491087Y-102568511D01*
X135491080Y-102568498D01*
X135408952Y-102445585D01*
X135361015Y-102397648D01*
X135304416Y-102341049D01*
X135158832Y-102195465D01*
X134380421Y-101417052D01*
X134380414Y-101417046D01*
X134306729Y-101367812D01*
X134306729Y-101367813D01*
X134257491Y-101334913D01*
X134120917Y-101278343D01*
X134120907Y-101278340D01*
X133975920Y-101249500D01*
X133975918Y-101249500D01*
X131362229Y-101249500D01*
X131295190Y-101229815D01*
X131274548Y-101213181D01*
X130786819Y-100725451D01*
X130753334Y-100664128D01*
X130750500Y-100637770D01*
X130750500Y-100251336D01*
X130770185Y-100184297D01*
X130822989Y-100138542D01*
X130892147Y-100128598D01*
X130947386Y-100151018D01*
X131044239Y-100221386D01*
X131240589Y-100321432D01*
X131450164Y-100389526D01*
X131667819Y-100424000D01*
X131888181Y-100424000D01*
X132105835Y-100389526D01*
X132315411Y-100321431D01*
X132315418Y-100321428D01*
X132397307Y-100279702D01*
X131547483Y-99429878D01*
X131532051Y-99401616D01*
X131604306Y-99443333D01*
X131718756Y-99474000D01*
X131837244Y-99474000D01*
X131951694Y-99443333D01*
X132054306Y-99384090D01*
X132138090Y-99300306D01*
X132197333Y-99197694D01*
X132228000Y-99083244D01*
X132228000Y-98964756D01*
X132197333Y-98850306D01*
X132153109Y-98773708D01*
X132183878Y-98793483D01*
X133033702Y-99643307D01*
X133075428Y-99561418D01*
X133075431Y-99561411D01*
X133143526Y-99351835D01*
X133177998Y-99134187D01*
X133178130Y-99132522D01*
X133178357Y-99131925D01*
X133178762Y-99129370D01*
X133179298Y-99129455D01*
X133203012Y-99067233D01*
X133259243Y-99025761D01*
X133328968Y-99021273D01*
X133390051Y-99055193D01*
X133423099Y-99116753D01*
X133425365Y-99132506D01*
X133425500Y-99134223D01*
X133459985Y-99351952D01*
X133528103Y-99561603D01*
X133528104Y-99561606D01*
X133569734Y-99643307D01*
X133626336Y-99754394D01*
X133628187Y-99758025D01*
X133757752Y-99936358D01*
X133757756Y-99936363D01*
X133913636Y-100092243D01*
X133913641Y-100092247D01*
X134069192Y-100205260D01*
X134091978Y-100221815D01*
X134220375Y-100287237D01*
X134288393Y-100321895D01*
X134288396Y-100321896D01*
X134358138Y-100344556D01*
X134498049Y-100390015D01*
X134715778Y-100424500D01*
X134715779Y-100424500D01*
X134936221Y-100424500D01*
X134936222Y-100424500D01*
X135153951Y-100390015D01*
X135363606Y-100321895D01*
X135560022Y-100221815D01*
X135738365Y-100092242D01*
X135894242Y-99936365D01*
X136023815Y-99758022D01*
X136123895Y-99561606D01*
X136192015Y-99351951D01*
X136226500Y-99134222D01*
X136226500Y-98913778D01*
X136192015Y-98696049D01*
X136157955Y-98591221D01*
X136123896Y-98486396D01*
X136123895Y-98486393D01*
X136086175Y-98412365D01*
X136023815Y-98289978D01*
X135983161Y-98234022D01*
X135894247Y-98111641D01*
X135894243Y-98111636D01*
X135738367Y-97955760D01*
X135738365Y-97955758D01*
X135627613Y-97875291D01*
X135584949Y-97819963D01*
X135576500Y-97774975D01*
X135576500Y-95350079D01*
X135547659Y-95205092D01*
X135547658Y-95205091D01*
X135547658Y-95205087D01*
X135505104Y-95102352D01*
X135491087Y-95068511D01*
X135491080Y-95068498D01*
X135408952Y-94945585D01*
X135361015Y-94897648D01*
X135304416Y-94841049D01*
X135158832Y-94695465D01*
X134380421Y-93917052D01*
X134380414Y-93917046D01*
X134306729Y-93867812D01*
X134306729Y-93867813D01*
X134257491Y-93834913D01*
X134120917Y-93778343D01*
X134120907Y-93778340D01*
X133975920Y-93749500D01*
X133975918Y-93749500D01*
X131362229Y-93749500D01*
X131295190Y-93729815D01*
X131274548Y-93713181D01*
X130786819Y-93225451D01*
X130753334Y-93164128D01*
X130750500Y-93137770D01*
X130750500Y-92751336D01*
X130770185Y-92684297D01*
X130822989Y-92638542D01*
X130892147Y-92628598D01*
X130947386Y-92651018D01*
X131044239Y-92721386D01*
X131240589Y-92821432D01*
X131450164Y-92889526D01*
X131667819Y-92924000D01*
X131888181Y-92924000D01*
X132105835Y-92889526D01*
X132315411Y-92821431D01*
X132315418Y-92821428D01*
X132397307Y-92779702D01*
X131547483Y-91929878D01*
X131532051Y-91901616D01*
X131604306Y-91943333D01*
X131718756Y-91974000D01*
X131837244Y-91974000D01*
X131951694Y-91943333D01*
X132054306Y-91884090D01*
X132138090Y-91800306D01*
X132197333Y-91697694D01*
X132228000Y-91583244D01*
X132228000Y-91464756D01*
X132197333Y-91350306D01*
X132153109Y-91273708D01*
X132183878Y-91293483D01*
X133033702Y-92143307D01*
X133075428Y-92061418D01*
X133075431Y-92061411D01*
X133143526Y-91851835D01*
X133177998Y-91634187D01*
X133178130Y-91632522D01*
X133178357Y-91631925D01*
X133178762Y-91629370D01*
X133179298Y-91629455D01*
X133203012Y-91567233D01*
X133259243Y-91525761D01*
X133328968Y-91521273D01*
X133390051Y-91555193D01*
X133423099Y-91616753D01*
X133425365Y-91632506D01*
X133425500Y-91634223D01*
X133459985Y-91851952D01*
X133528103Y-92061603D01*
X133528104Y-92061606D01*
X133569734Y-92143307D01*
X133626336Y-92254394D01*
X133628187Y-92258025D01*
X133757752Y-92436358D01*
X133757756Y-92436363D01*
X133913636Y-92592243D01*
X133913641Y-92592247D01*
X134069192Y-92705260D01*
X134091978Y-92721815D01*
X134220375Y-92787237D01*
X134288393Y-92821895D01*
X134288396Y-92821896D01*
X134358138Y-92844556D01*
X134498049Y-92890015D01*
X134715778Y-92924500D01*
X134715779Y-92924500D01*
X134936221Y-92924500D01*
X134936222Y-92924500D01*
X135153951Y-92890015D01*
X135363606Y-92821895D01*
X135560022Y-92721815D01*
X135738365Y-92592242D01*
X135894242Y-92436365D01*
X136023815Y-92258022D01*
X136123895Y-92061606D01*
X136192015Y-91851951D01*
X136226500Y-91634222D01*
X136226500Y-91413778D01*
X136192015Y-91196049D01*
X136157955Y-91091221D01*
X136123896Y-90986396D01*
X136123895Y-90986393D01*
X136086175Y-90912365D01*
X136023815Y-90789978D01*
X135983161Y-90734022D01*
X135894247Y-90611641D01*
X135894243Y-90611636D01*
X135738367Y-90455760D01*
X135738365Y-90455758D01*
X135627613Y-90375291D01*
X135584949Y-90319963D01*
X135576500Y-90274975D01*
X135576500Y-85752081D01*
X135570763Y-85723242D01*
X135570763Y-85723240D01*
X135547660Y-85607095D01*
X135547659Y-85607088D01*
X135491084Y-85470506D01*
X135491084Y-85470505D01*
X135458186Y-85421270D01*
X135456802Y-85419198D01*
X135408956Y-85347589D01*
X135408952Y-85347584D01*
X133286819Y-83225451D01*
X133253334Y-83164128D01*
X133250500Y-83137770D01*
X133250500Y-81312220D01*
X133270185Y-81245181D01*
X133301614Y-81211902D01*
X133379792Y-81155104D01*
X133530104Y-81004792D01*
X133649683Y-80840204D01*
X133705011Y-80797540D01*
X133774624Y-80791561D01*
X133836420Y-80824166D01*
X133850313Y-80840199D01*
X133877557Y-80877697D01*
X133969896Y-81004792D01*
X134120213Y-81155109D01*
X134292179Y-81280048D01*
X134292181Y-81280049D01*
X134292184Y-81280051D01*
X134481588Y-81376557D01*
X134683757Y-81442246D01*
X134893713Y-81475500D01*
X134893714Y-81475500D01*
X135106286Y-81475500D01*
X135106287Y-81475500D01*
X135316243Y-81442246D01*
X135518412Y-81376557D01*
X135707816Y-81280051D01*
X135754275Y-81246297D01*
X135879786Y-81155109D01*
X135879788Y-81155106D01*
X135879792Y-81155104D01*
X136030104Y-81004792D01*
X136030106Y-81004788D01*
X136030109Y-81004786D01*
X136155048Y-80832820D01*
X136155047Y-80832820D01*
X136155051Y-80832816D01*
X136251557Y-80643412D01*
X136317246Y-80441243D01*
X136350500Y-80231287D01*
X136350500Y-79768713D01*
X136317246Y-79558757D01*
X136251557Y-79356588D01*
X136155051Y-79167184D01*
X136155049Y-79167181D01*
X136155048Y-79167179D01*
X136030109Y-78995213D01*
X135879786Y-78844890D01*
X135707820Y-78719951D01*
X135518414Y-78623444D01*
X135518413Y-78623443D01*
X135518412Y-78623443D01*
X135316243Y-78557754D01*
X135316241Y-78557753D01*
X135316240Y-78557753D01*
X135154957Y-78532208D01*
X135106287Y-78524500D01*
X134893713Y-78524500D01*
X134845042Y-78532208D01*
X134683760Y-78557753D01*
X134481585Y-78623444D01*
X134292179Y-78719951D01*
X134120213Y-78844890D01*
X133969894Y-78995209D01*
X133969890Y-78995214D01*
X133850318Y-79159793D01*
X133794989Y-79202459D01*
X133725375Y-79208438D01*
X133663580Y-79175833D01*
X133649682Y-79159793D01*
X133530109Y-78995214D01*
X133530105Y-78995209D01*
X133379786Y-78844890D01*
X133207820Y-78719951D01*
X133018414Y-78623444D01*
X133018413Y-78623443D01*
X133018412Y-78623443D01*
X132816243Y-78557754D01*
X132816241Y-78557753D01*
X132816240Y-78557753D01*
X132654957Y-78532208D01*
X132606287Y-78524500D01*
X132393713Y-78524500D01*
X132345042Y-78532208D01*
X132183760Y-78557753D01*
X131981585Y-78623444D01*
X131792179Y-78719951D01*
X131620215Y-78844889D01*
X131481035Y-78984069D01*
X131419712Y-79017553D01*
X131350020Y-79012569D01*
X131294087Y-78970697D01*
X131287815Y-78961484D01*
X131192315Y-78806654D01*
X131068345Y-78682684D01*
X130919124Y-78590643D01*
X130919119Y-78590641D01*
X130752697Y-78535494D01*
X130752690Y-78535493D01*
X130649986Y-78525000D01*
X130450000Y-78525000D01*
X130450000Y-79844162D01*
X130442630Y-79816657D01*
X130380095Y-79708343D01*
X130291657Y-79619905D01*
X130183343Y-79557370D01*
X130062535Y-79525000D01*
X129937465Y-79525000D01*
X129816657Y-79557370D01*
X129708343Y-79619905D01*
X129619905Y-79708343D01*
X129557370Y-79816657D01*
X129525000Y-79937465D01*
X129525000Y-80062535D01*
X129557370Y-80183343D01*
X129619905Y-80291657D01*
X129708343Y-80380095D01*
X129816657Y-80442630D01*
X129937465Y-80475000D01*
X130062535Y-80475000D01*
X130183343Y-80442630D01*
X130291657Y-80380095D01*
X130380095Y-80291657D01*
X130442630Y-80183343D01*
X130450000Y-80155837D01*
X130450000Y-81474999D01*
X130649972Y-81474999D01*
X130649986Y-81474998D01*
X130752697Y-81464505D01*
X130919119Y-81409358D01*
X130919124Y-81409356D01*
X131068345Y-81317315D01*
X131192317Y-81193343D01*
X131287815Y-81038516D01*
X131339763Y-80991791D01*
X131408725Y-80980568D01*
X131472808Y-81008412D01*
X131481035Y-81015931D01*
X131620208Y-81155104D01*
X131698384Y-81211902D01*
X131741051Y-81267231D01*
X131749500Y-81312220D01*
X131749500Y-83573918D01*
X131749500Y-83573920D01*
X131749499Y-83573920D01*
X131778340Y-83718907D01*
X131778343Y-83718917D01*
X131834914Y-83855492D01*
X131867812Y-83904727D01*
X131867813Y-83904730D01*
X131917046Y-83978414D01*
X131917052Y-83978421D01*
X134039181Y-86100549D01*
X134072666Y-86161872D01*
X134075500Y-86188230D01*
X134075500Y-88619949D01*
X134055815Y-88686988D01*
X134003011Y-88732743D01*
X133933853Y-88742687D01*
X133895205Y-88730434D01*
X133839606Y-88702104D01*
X133839603Y-88702103D01*
X133629952Y-88633985D01*
X133475877Y-88609582D01*
X133412222Y-88599500D01*
X133191778Y-88599500D01*
X133128123Y-88609582D01*
X132974047Y-88633985D01*
X132764396Y-88702103D01*
X132764393Y-88702104D01*
X132567974Y-88802187D01*
X132389641Y-88931752D01*
X132389636Y-88931756D01*
X132233756Y-89087636D01*
X132233752Y-89087641D01*
X132104187Y-89265974D01*
X132004104Y-89462393D01*
X132004103Y-89462396D01*
X131935985Y-89672047D01*
X131901500Y-89889778D01*
X131901500Y-90000000D01*
X131881815Y-90067039D01*
X131829011Y-90112794D01*
X131777500Y-90124000D01*
X131667819Y-90124000D01*
X131543898Y-90143627D01*
X131474604Y-90134672D01*
X131421152Y-90089676D01*
X131400513Y-90022925D01*
X131400500Y-90021154D01*
X131400500Y-89494869D01*
X131400500Y-89494862D01*
X131390417Y-89381448D01*
X131337237Y-89195594D01*
X131247734Y-89024249D01*
X131172317Y-88931758D01*
X131125571Y-88874428D01*
X131033700Y-88799518D01*
X130975751Y-88752266D01*
X130879719Y-88702103D01*
X130804405Y-88662762D01*
X130649845Y-88618537D01*
X130618552Y-88609583D01*
X130618551Y-88609582D01*
X130618548Y-88609582D01*
X130529662Y-88601680D01*
X130505138Y-88599500D01*
X129494862Y-88599500D01*
X129482599Y-88600590D01*
X129381451Y-88609582D01*
X129195594Y-88662762D01*
X129024250Y-88752265D01*
X128874428Y-88874428D01*
X128752265Y-89024250D01*
X128662762Y-89195594D01*
X128609582Y-89381451D01*
X128599500Y-89494863D01*
X126500500Y-89494863D01*
X126500500Y-81916228D01*
X127549500Y-81916228D01*
X127549500Y-82083771D01*
X127582182Y-82248074D01*
X127582184Y-82248082D01*
X127646295Y-82402860D01*
X127739373Y-82542162D01*
X127857837Y-82660626D01*
X127950494Y-82722537D01*
X127997137Y-82753703D01*
X128151918Y-82817816D01*
X128316228Y-82850499D01*
X128316232Y-82850500D01*
X128316233Y-82850500D01*
X128483768Y-82850500D01*
X128483769Y-82850499D01*
X128648082Y-82817816D01*
X128802863Y-82753703D01*
X128942162Y-82660626D01*
X129060626Y-82542162D01*
X129153703Y-82402863D01*
X129217816Y-82248082D01*
X129250500Y-82083767D01*
X129250500Y-81916233D01*
X129217816Y-81751918D01*
X129171698Y-81640582D01*
X129164230Y-81571115D01*
X129195505Y-81508636D01*
X129255593Y-81472983D01*
X129298864Y-81469773D01*
X129350021Y-81474999D01*
X129549999Y-81474999D01*
X129550000Y-81474998D01*
X129550000Y-80450000D01*
X128650001Y-80450000D01*
X128650001Y-80774986D01*
X128660494Y-80877697D01*
X128702393Y-81004140D01*
X128704795Y-81073969D01*
X128669063Y-81134010D01*
X128606543Y-81165203D01*
X128560497Y-81164762D01*
X128508726Y-81154464D01*
X128483767Y-81149500D01*
X128316233Y-81149500D01*
X128316228Y-81149500D01*
X128151925Y-81182182D01*
X128151917Y-81182184D01*
X127997139Y-81246295D01*
X127857837Y-81339373D01*
X127739373Y-81457837D01*
X127646295Y-81597139D01*
X127582184Y-81751917D01*
X127582182Y-81751925D01*
X127549500Y-81916228D01*
X126500500Y-81916228D01*
X126500500Y-79225013D01*
X128650000Y-79225013D01*
X128650000Y-79550000D01*
X129550000Y-79550000D01*
X129550000Y-78525000D01*
X129350029Y-78525000D01*
X129350012Y-78525001D01*
X129247302Y-78535494D01*
X129080880Y-78590641D01*
X129080875Y-78590643D01*
X128931654Y-78682684D01*
X128807684Y-78806654D01*
X128715643Y-78955875D01*
X128715641Y-78955880D01*
X128660494Y-79122302D01*
X128660493Y-79122309D01*
X128650000Y-79225013D01*
X126500500Y-79225013D01*
X126500500Y-76624500D01*
X126520185Y-76557461D01*
X126572989Y-76511706D01*
X126624500Y-76500500D01*
X138375500Y-76500500D01*
X138442539Y-76520185D01*
G37*
%TD.AperFunction*%
%TD*%
M02*
