%TF.GenerationSoftware,KiCad,Pcbnew,10.0.1*%
%TF.CreationDate,2026-05-18T17:03:28-06:00*%
%TF.ProjectId,LED Holder Iso Cards,4c454420-486f-46c6-9465-722049736f20,rev?*%
%TF.SameCoordinates,Original*%
%TF.FileFunction,Soldermask,Top*%
%TF.FilePolarity,Negative*%
%FSLAX46Y46*%
G04 Gerber Fmt 4.6, Leading zero omitted, Abs format (unit mm)*
G04 Created by KiCad (PCBNEW 10.0.1) date 2026-05-18 17:03:28*
%MOMM*%
%LPD*%
G01*
G04 APERTURE LIST*
G04 Aperture macros list*
%AMRoundRect*
0 Rectangle with rounded corners*
0 $1 Rounding radius*
0 $2 $3 $4 $5 $6 $7 $8 $9 X,Y pos of 4 corners*
0 Add a 4 corners polygon primitive as box body*
4,1,4,$2,$3,$4,$5,$6,$7,$8,$9,$2,$3,0*
0 Add four circle primitives for the rounded corners*
1,1,$1+$1,$2,$3*
1,1,$1+$1,$4,$5*
1,1,$1+$1,$6,$7*
1,1,$1+$1,$8,$9*
0 Add four rect primitives between the rounded corners*
20,1,$1+$1,$2,$3,$4,$5,0*
20,1,$1+$1,$4,$5,$6,$7,0*
20,1,$1+$1,$6,$7,$8,$9,0*
20,1,$1+$1,$8,$9,$2,$3,0*%
G04 Aperture macros list end*
%ADD10RoundRect,0.450000X-0.450000X-0.450000X0.450000X-0.450000X0.450000X0.450000X-0.450000X0.450000X0*%
%ADD11C,1.800000*%
%ADD12C,1.200000*%
%ADD13RoundRect,0.250000X-0.600000X-0.725000X0.600000X-0.725000X0.600000X0.725000X-0.600000X0.725000X0*%
%ADD14O,1.700000X1.950000*%
%ADD15C,1.600000*%
G04 APERTURE END LIST*
D10*
%TO.C,D2*%
X130000000Y-97500000D03*
D11*
X131778000Y-99024000D03*
X133302000Y-97500000D03*
X134826000Y-99024000D03*
%TD*%
D10*
%TO.C,D5*%
X130000000Y-120000000D03*
D11*
X131778000Y-121524000D03*
X133302000Y-120000000D03*
X134826000Y-121524000D03*
%TD*%
D12*
%TO.C,J1*%
X128400000Y-82000000D03*
D13*
X130000000Y-80000000D03*
D14*
X132500000Y-80000000D03*
X135000000Y-80000000D03*
%TD*%
D10*
%TO.C,D1*%
X130000000Y-90000000D03*
D11*
X131778000Y-91524000D03*
X133302000Y-90000000D03*
X134826000Y-91524000D03*
%TD*%
D12*
%TO.C,J2*%
X128400000Y-132725000D03*
D13*
X130000000Y-130725000D03*
D14*
X132500000Y-130725000D03*
X135000000Y-130725000D03*
%TD*%
D10*
%TO.C,D3*%
X130000000Y-105000000D03*
D11*
X131778000Y-106524000D03*
X133302000Y-105000000D03*
X134826000Y-106524000D03*
%TD*%
D10*
%TO.C,D4*%
X130000000Y-112500000D03*
D11*
X131778000Y-114024000D03*
X133302000Y-112500000D03*
X134826000Y-114024000D03*
%TD*%
D15*
%TO.C,C4*%
X127500000Y-115000000D03*
X127500000Y-117500000D03*
%TD*%
%TO.C,C3*%
X127500000Y-107500000D03*
X127500000Y-110000000D03*
%TD*%
%TO.C,C2*%
X127500000Y-100000000D03*
X127500000Y-102500000D03*
%TD*%
%TO.C,C1*%
X127500000Y-92500000D03*
X127500000Y-95000000D03*
%TD*%
%TO.C,C5*%
X127500000Y-122000000D03*
X127500000Y-124500000D03*
%TD*%
M02*
