%TF.GenerationSoftware,KiCad,Pcbnew,10.0.1*%
%TF.CreationDate,2026-05-18T17:03:28-06:00*%
%TF.ProjectId,LED Holder Iso Cards,4c454420-486f-46c6-9465-722049736f20,rev?*%
%TF.SameCoordinates,Original*%
%TF.FileFunction,Copper,L2,Bot*%
%TF.FilePolarity,Positive*%
%FSLAX46Y46*%
G04 Gerber Fmt 4.6, Leading zero omitted, Abs format (unit mm)*
G04 Created by KiCad (PCBNEW 10.0.1) date 2026-05-18 17:03:28*
%MOMM*%
%LPD*%
G01*
G04 APERTURE LIST*
G04 Aperture macros list*
%AMRoundRect*
0 Rectangle with rounded corners*
0 $1 Rounding radius*
0 $2 $3 $4 $5 $6 $7 $8 $9 X,Y pos of 4 corners*
0 Add a 4 corners polygon primitive as box body*
4,1,4,$2,$3,$4,$5,$6,$7,$8,$9,$2,$3,0*
0 Add four circle primitives for the rounded corners*
1,1,$1+$1,$2,$3*
1,1,$1+$1,$4,$5*
1,1,$1+$1,$6,$7*
1,1,$1+$1,$8,$9*
0 Add four rect primitives between the rounded corners*
20,1,$1+$1,$2,$3,$4,$5,0*
20,1,$1+$1,$4,$5,$6,$7,0*
20,1,$1+$1,$6,$7,$8,$9,0*
20,1,$1+$1,$8,$9,$2,$3,0*%
G04 Aperture macros list end*
%TA.AperFunction,ComponentPad*%
%ADD10RoundRect,0.450000X-0.450000X-0.450000X0.450000X-0.450000X0.450000X0.450000X-0.450000X0.450000X0*%
%TD*%
%TA.AperFunction,ComponentPad*%
%ADD11C,1.800000*%
%TD*%
%TA.AperFunction,ComponentPad*%
%ADD12RoundRect,0.250000X-0.600000X-0.725000X0.600000X-0.725000X0.600000X0.725000X-0.600000X0.725000X0*%
%TD*%
%TA.AperFunction,ComponentPad*%
%ADD13O,1.700000X1.950000*%
%TD*%
%TA.AperFunction,ComponentPad*%
%ADD14C,1.600000*%
%TD*%
G04 APERTURE END LIST*
D10*
%TO.P,D2,1,DOUT_1*%
%TO.N,Net-(D2-DOUT)*%
X130000000Y-97500000D03*
D11*
%TO.P,D2,2,VCC_2*%
%TO.N,+5V*%
X131778000Y-99024000D03*
%TO.P,D2,3,GND_3*%
%TO.N,GND*%
X133302000Y-97500000D03*
%TO.P,D2,4,DIN_4*%
%TO.N,Net-(D1-DOUT)*%
X134826000Y-99024000D03*
%TD*%
D10*
%TO.P,D5,1,DOUT_1*%
%TO.N,Net-(D5-DOUT)*%
X130000000Y-120000000D03*
D11*
%TO.P,D5,2,VCC_2*%
%TO.N,+5V*%
X131778000Y-121524000D03*
%TO.P,D5,3,GND_3*%
%TO.N,GND*%
X133302000Y-120000000D03*
%TO.P,D5,4,DIN_4*%
%TO.N,Net-(D4-DOUT)*%
X134826000Y-121524000D03*
%TD*%
D12*
%TO.P,J1,1,Pin_1_1*%
%TO.N,+5V*%
X130000000Y-80000000D03*
D13*
%TO.P,J1,2,Pin_2_2*%
%TO.N,Net-(D1-DIN)*%
X132500000Y-80000000D03*
%TO.P,J1,3,Pin_3_3*%
%TO.N,GND*%
X135000000Y-80000000D03*
%TD*%
D10*
%TO.P,D1,1,DOUT_1*%
%TO.N,Net-(D1-DOUT)*%
X130000000Y-90000000D03*
D11*
%TO.P,D1,2,VCC_2*%
%TO.N,+5V*%
X131778000Y-91524000D03*
%TO.P,D1,3,GND_3*%
%TO.N,GND*%
X133302000Y-90000000D03*
%TO.P,D1,4,DIN_4*%
%TO.N,Net-(D1-DIN)*%
X134826000Y-91524000D03*
%TD*%
D12*
%TO.P,J2,1,Pin_1_1*%
%TO.N,+5V*%
X130000000Y-130725000D03*
D13*
%TO.P,J2,2,Pin_2_2*%
%TO.N,Net-(D5-DOUT)*%
X132500000Y-130725000D03*
%TO.P,J2,3,Pin_3_3*%
%TO.N,GND*%
X135000000Y-130725000D03*
%TD*%
D10*
%TO.P,D3,1,DOUT_1*%
%TO.N,Net-(D3-DOUT)*%
X130000000Y-105000000D03*
D11*
%TO.P,D3,2,VCC_2*%
%TO.N,+5V*%
X131778000Y-106524000D03*
%TO.P,D3,3,GND_3*%
%TO.N,GND*%
X133302000Y-105000000D03*
%TO.P,D3,4,DIN_4*%
%TO.N,Net-(D2-DOUT)*%
X134826000Y-106524000D03*
%TD*%
D10*
%TO.P,D4,1,DOUT_1*%
%TO.N,Net-(D4-DOUT)*%
X130000000Y-112500000D03*
D11*
%TO.P,D4,2,VCC_2*%
%TO.N,+5V*%
X131778000Y-114024000D03*
%TO.P,D4,3,GND_3*%
%TO.N,GND*%
X133302000Y-112500000D03*
%TO.P,D4,4,DIN_4*%
%TO.N,Net-(D3-DOUT)*%
X134826000Y-114024000D03*
%TD*%
D14*
%TO.P,C4,1*%
%TO.N,+5V*%
X127500000Y-115000000D03*
%TO.P,C4,2*%
%TO.N,GND*%
X127500000Y-117500000D03*
%TD*%
%TO.P,C3,1*%
%TO.N,+5V*%
X127500000Y-107500000D03*
%TO.P,C3,2*%
%TO.N,GND*%
X127500000Y-110000000D03*
%TD*%
%TO.P,C2,1*%
%TO.N,+5V*%
X127500000Y-100000000D03*
%TO.P,C2,2*%
%TO.N,GND*%
X127500000Y-102500000D03*
%TD*%
%TO.P,C1,1*%
%TO.N,+5V*%
X127500000Y-92500000D03*
%TO.P,C1,2*%
%TO.N,GND*%
X127500000Y-95000000D03*
%TD*%
%TO.P,C5,1*%
%TO.N,+5V*%
X127500000Y-122000000D03*
%TO.P,C5,2*%
%TO.N,GND*%
X127500000Y-124500000D03*
%TD*%
%TA.AperFunction,Conductor*%
%TO.N,GND*%
G36*
X138442539Y-76520185D02*
G01*
X138488294Y-76572989D01*
X138499500Y-76624500D01*
X138499500Y-135625500D01*
X138479815Y-135692539D01*
X138427011Y-135738294D01*
X138375500Y-135749500D01*
X126624500Y-135749500D01*
X126557461Y-135729815D01*
X126511706Y-135677011D01*
X126500500Y-135625500D01*
X126500500Y-132641228D01*
X127549500Y-132641228D01*
X127549500Y-132808771D01*
X127582182Y-132973074D01*
X127582184Y-132973082D01*
X127646295Y-133127860D01*
X127739373Y-133267162D01*
X127857837Y-133385626D01*
X127950494Y-133447537D01*
X127997137Y-133478703D01*
X128151918Y-133542816D01*
X128316228Y-133575499D01*
X128316232Y-133575500D01*
X128316233Y-133575500D01*
X128483768Y-133575500D01*
X128483769Y-133575499D01*
X128648082Y-133542816D01*
X128802863Y-133478703D01*
X128942162Y-133385626D01*
X129060626Y-133267162D01*
X129153703Y-133127863D01*
X129217816Y-132973082D01*
X129250500Y-132808767D01*
X129250500Y-132641233D01*
X129217816Y-132476918D01*
X129171916Y-132366108D01*
X129164448Y-132296641D01*
X129195723Y-132234162D01*
X129255811Y-132198509D01*
X129299081Y-132195299D01*
X129302300Y-132195627D01*
X129349991Y-132200500D01*
X130650008Y-132200499D01*
X130752797Y-132189999D01*
X130919334Y-132134814D01*
X131068656Y-132042712D01*
X131192712Y-131918656D01*
X131284814Y-131769334D01*
X131284814Y-131769331D01*
X131288178Y-131763879D01*
X131340126Y-131717154D01*
X131409088Y-131705931D01*
X131473170Y-131733774D01*
X131481398Y-131741294D01*
X131620213Y-131880109D01*
X131792179Y-132005048D01*
X131792181Y-132005049D01*
X131792184Y-132005051D01*
X131981588Y-132101557D01*
X132183757Y-132167246D01*
X132393713Y-132200500D01*
X132393714Y-132200500D01*
X132606286Y-132200500D01*
X132606287Y-132200500D01*
X132816243Y-132167246D01*
X133018412Y-132101557D01*
X133207816Y-132005051D01*
X133254275Y-131971297D01*
X133379786Y-131880109D01*
X133379788Y-131880106D01*
X133379792Y-131880104D01*
X133530104Y-131729792D01*
X133649991Y-131564779D01*
X133705320Y-131522115D01*
X133774933Y-131516136D01*
X133836729Y-131548741D01*
X133850627Y-131564781D01*
X133970272Y-131729459D01*
X133970276Y-131729464D01*
X134120535Y-131879723D01*
X134120540Y-131879727D01*
X134292442Y-132004620D01*
X134481779Y-132101094D01*
X134481785Y-132101096D01*
X134549999Y-132123259D01*
X134550000Y-132123259D01*
X135450000Y-132123259D01*
X135518214Y-132101096D01*
X135518220Y-132101094D01*
X135707557Y-132004620D01*
X135879459Y-131879727D01*
X135879464Y-131879723D01*
X136029723Y-131729464D01*
X136029727Y-131729459D01*
X136154620Y-131557557D01*
X136251092Y-131368222D01*
X136313875Y-131175000D01*
X135450000Y-131175000D01*
X135450000Y-132123259D01*
X134550000Y-132123259D01*
X134550000Y-130880837D01*
X134557370Y-130908343D01*
X134619905Y-131016657D01*
X134708343Y-131105095D01*
X134816657Y-131167630D01*
X134937465Y-131200000D01*
X135062535Y-131200000D01*
X135183343Y-131167630D01*
X135291657Y-131105095D01*
X135380095Y-131016657D01*
X135442630Y-130908343D01*
X135475000Y-130787535D01*
X135475000Y-130662465D01*
X135442630Y-130541657D01*
X135380095Y-130433343D01*
X135291657Y-130344905D01*
X135183343Y-130282370D01*
X135155837Y-130275000D01*
X135450000Y-130275000D01*
X136313875Y-130275000D01*
X136313874Y-130274999D01*
X136251092Y-130081777D01*
X136154620Y-129892442D01*
X136029727Y-129720540D01*
X136029723Y-129720535D01*
X135879464Y-129570276D01*
X135879459Y-129570272D01*
X135707557Y-129445379D01*
X135518222Y-129348907D01*
X135450000Y-129326740D01*
X135450000Y-130275000D01*
X135155837Y-130275000D01*
X135062535Y-130250000D01*
X134937465Y-130250000D01*
X134816657Y-130282370D01*
X134708343Y-130344905D01*
X134619905Y-130433343D01*
X134557370Y-130541657D01*
X134550000Y-130569162D01*
X134550000Y-129326740D01*
X134549999Y-129326740D01*
X134481777Y-129348907D01*
X134292442Y-129445379D01*
X134120540Y-129570272D01*
X134120535Y-129570276D01*
X133970276Y-129720535D01*
X133970272Y-129720540D01*
X133850627Y-129885218D01*
X133795297Y-129927884D01*
X133725684Y-129933863D01*
X133663889Y-129901257D01*
X133649991Y-129885218D01*
X133530109Y-129720214D01*
X133530105Y-129720209D01*
X133379786Y-129569890D01*
X133207820Y-129444951D01*
X133018414Y-129348444D01*
X133018413Y-129348443D01*
X133018412Y-129348443D01*
X132816243Y-129282754D01*
X132816241Y-129282753D01*
X132816240Y-129282753D01*
X132654957Y-129257208D01*
X132606287Y-129249500D01*
X132393713Y-129249500D01*
X132345042Y-129257208D01*
X132183760Y-129282753D01*
X131981585Y-129348444D01*
X131792179Y-129444951D01*
X131620215Y-129569889D01*
X131481398Y-129708706D01*
X131420075Y-129742190D01*
X131350383Y-129737206D01*
X131294450Y-129695334D01*
X131288178Y-129686120D01*
X131192712Y-129531344D01*
X131068657Y-129407289D01*
X131068656Y-129407288D01*
X130919334Y-129315186D01*
X130752797Y-129260001D01*
X130752795Y-129260000D01*
X130650010Y-129249500D01*
X129349998Y-129249500D01*
X129349981Y-129249501D01*
X129247203Y-129260000D01*
X129247200Y-129260001D01*
X129080668Y-129315185D01*
X129080663Y-129315187D01*
X128931342Y-129407289D01*
X128807289Y-129531342D01*
X128715187Y-129680663D01*
X128715185Y-129680668D01*
X128710325Y-129695334D01*
X128660001Y-129847203D01*
X128660001Y-129847204D01*
X128660000Y-129847204D01*
X128649500Y-129949983D01*
X128649500Y-131500001D01*
X128649501Y-131500018D01*
X128660000Y-131602796D01*
X128660001Y-131602799D01*
X128701830Y-131729028D01*
X128704232Y-131798856D01*
X128668500Y-131858898D01*
X128605980Y-131890091D01*
X128559934Y-131889650D01*
X128508015Y-131879323D01*
X128483767Y-131874500D01*
X128316233Y-131874500D01*
X128316228Y-131874500D01*
X128151925Y-131907182D01*
X128151917Y-131907184D01*
X127997139Y-131971295D01*
X127857837Y-132064373D01*
X127739373Y-132182837D01*
X127646295Y-132322139D01*
X127582184Y-132476917D01*
X127582182Y-132476925D01*
X127549500Y-132641228D01*
X126500500Y-132641228D01*
X126500500Y-125624073D01*
X126520185Y-125557034D01*
X126572989Y-125511279D01*
X126642147Y-125501335D01*
X126697386Y-125523755D01*
X126818650Y-125611859D01*
X127000968Y-125704755D01*
X127195582Y-125767990D01*
X127397683Y-125800000D01*
X127602317Y-125800000D01*
X127804417Y-125767990D01*
X127999031Y-125704755D01*
X128044957Y-125681353D01*
X127269483Y-124905879D01*
X127235998Y-124844556D01*
X127238859Y-124804545D01*
X127254394Y-124820080D01*
X127345606Y-124872741D01*
X127447339Y-124900000D01*
X127552661Y-124900000D01*
X127654394Y-124872741D01*
X127745606Y-124820080D01*
X127820080Y-124745606D01*
X127872741Y-124654394D01*
X127900000Y-124552661D01*
X127900000Y-124499999D01*
X128136396Y-124499999D01*
X128136396Y-124500000D01*
X128681353Y-125044957D01*
X128704755Y-124999031D01*
X128767990Y-124804417D01*
X128800000Y-124602317D01*
X128800000Y-124397682D01*
X128767989Y-124195581D01*
X128767989Y-124195578D01*
X128704758Y-124000976D01*
X128704758Y-124000975D01*
X128681354Y-123955040D01*
X128136396Y-124499999D01*
X127900000Y-124499999D01*
X127900000Y-124447339D01*
X127872741Y-124345606D01*
X127820080Y-124254394D01*
X127745606Y-124179920D01*
X127654394Y-124127259D01*
X127552661Y-124100000D01*
X127447339Y-124100000D01*
X127345606Y-124127259D01*
X127254394Y-124179920D01*
X127236756Y-124197557D01*
X127240982Y-124138468D01*
X127269483Y-124094121D01*
X128044957Y-123318646D01*
X128039012Y-123281109D01*
X128047966Y-123211816D01*
X128092961Y-123158363D01*
X128105184Y-123151227D01*
X128181610Y-123112287D01*
X128256809Y-123057652D01*
X128347213Y-122991971D01*
X128347215Y-122991968D01*
X128347219Y-122991966D01*
X128491966Y-122847219D01*
X128491968Y-122847215D01*
X128491971Y-122847213D01*
X128544732Y-122774590D01*
X128612287Y-122681610D01*
X128705220Y-122499219D01*
X128768477Y-122304534D01*
X128800500Y-122102352D01*
X128800500Y-121897648D01*
X128768477Y-121695466D01*
X128705220Y-121500781D01*
X128705218Y-121500778D01*
X128705218Y-121500776D01*
X128654124Y-121400500D01*
X128612287Y-121318390D01*
X128560953Y-121247734D01*
X128491971Y-121152786D01*
X128347213Y-121008028D01*
X128181613Y-120887715D01*
X128181612Y-120887714D01*
X128181610Y-120887713D01*
X128124653Y-120858691D01*
X127999223Y-120794781D01*
X127804534Y-120731522D01*
X127629995Y-120703878D01*
X127602352Y-120699500D01*
X127397648Y-120699500D01*
X127373329Y-120703351D01*
X127195465Y-120731522D01*
X127000776Y-120794781D01*
X126818390Y-120887712D01*
X126697385Y-120975627D01*
X126631578Y-120999106D01*
X126563524Y-120983280D01*
X126514830Y-120933174D01*
X126500500Y-120875308D01*
X126500500Y-119494863D01*
X128599500Y-119494863D01*
X128599500Y-120505136D01*
X128609582Y-120618548D01*
X128662762Y-120804405D01*
X128662763Y-120804406D01*
X128752266Y-120975751D01*
X128760946Y-120986396D01*
X128874428Y-121125571D01*
X128949339Y-121186652D01*
X129024249Y-121247734D01*
X129195594Y-121337237D01*
X129381448Y-121390417D01*
X129494862Y-121400500D01*
X130253500Y-121400500D01*
X130320539Y-121420185D01*
X130366294Y-121472989D01*
X130377500Y-121524500D01*
X130377500Y-121634221D01*
X130411985Y-121851952D01*
X130480103Y-122061603D01*
X130480104Y-122061606D01*
X130580187Y-122258025D01*
X130709752Y-122436358D01*
X130709756Y-122436363D01*
X130865636Y-122592243D01*
X130865641Y-122592247D01*
X130988640Y-122681610D01*
X131043978Y-122721815D01*
X131172375Y-122787237D01*
X131240393Y-122821895D01*
X131240396Y-122821896D01*
X131286418Y-122836849D01*
X131450049Y-122890015D01*
X131667778Y-122924500D01*
X131667779Y-122924500D01*
X131888221Y-122924500D01*
X131888222Y-122924500D01*
X132105951Y-122890015D01*
X132315606Y-122821895D01*
X132512022Y-122721815D01*
X132690365Y-122592242D01*
X132846242Y-122436365D01*
X132975815Y-122258022D01*
X133075895Y-122061606D01*
X133144015Y-121851951D01*
X133178500Y-121634222D01*
X133178500Y-121634220D01*
X133179262Y-121629410D01*
X133180697Y-121629637D01*
X133203270Y-121570421D01*
X133259503Y-121528953D01*
X133329229Y-121524469D01*
X133390309Y-121558394D01*
X133423353Y-121619957D01*
X133424712Y-121629414D01*
X133424738Y-121629410D01*
X133459985Y-121851952D01*
X133528103Y-122061603D01*
X133528104Y-122061606D01*
X133628187Y-122258025D01*
X133757752Y-122436358D01*
X133757756Y-122436363D01*
X133913636Y-122592243D01*
X133913641Y-122592247D01*
X134036640Y-122681610D01*
X134091978Y-122721815D01*
X134220375Y-122787237D01*
X134288393Y-122821895D01*
X134288396Y-122821896D01*
X134334418Y-122836849D01*
X134498049Y-122890015D01*
X134715778Y-122924500D01*
X134715779Y-122924500D01*
X134936221Y-122924500D01*
X134936222Y-122924500D01*
X135153951Y-122890015D01*
X135363606Y-122821895D01*
X135560022Y-122721815D01*
X135738365Y-122592242D01*
X135894242Y-122436365D01*
X136023815Y-122258022D01*
X136123895Y-122061606D01*
X136192015Y-121851951D01*
X136226500Y-121634222D01*
X136226500Y-121413778D01*
X136192015Y-121196049D01*
X136130924Y-121008028D01*
X136123896Y-120986396D01*
X136123895Y-120986393D01*
X136067293Y-120875308D01*
X136023815Y-120789978D01*
X135981345Y-120731523D01*
X135894247Y-120611641D01*
X135894243Y-120611636D01*
X135738363Y-120455756D01*
X135738358Y-120455752D01*
X135560025Y-120326187D01*
X135560024Y-120326186D01*
X135560022Y-120326185D01*
X135462130Y-120276306D01*
X135363606Y-120226104D01*
X135363603Y-120226103D01*
X135153952Y-120157985D01*
X135003558Y-120134165D01*
X134936222Y-120123500D01*
X134826000Y-120123500D01*
X134758961Y-120103815D01*
X134713206Y-120051011D01*
X134702000Y-119999500D01*
X134702000Y-119889818D01*
X134667526Y-119672164D01*
X134599429Y-119462584D01*
X134557702Y-119380691D01*
X133707878Y-120230516D01*
X133679617Y-120245947D01*
X133721333Y-120173694D01*
X133752000Y-120059244D01*
X133752000Y-119940756D01*
X133721333Y-119826306D01*
X133662090Y-119723694D01*
X133578306Y-119639910D01*
X133475694Y-119580667D01*
X133361244Y-119550000D01*
X133242756Y-119550000D01*
X133128306Y-119580667D01*
X133025694Y-119639910D01*
X132941910Y-119723694D01*
X132882667Y-119826306D01*
X132852000Y-119940756D01*
X132852000Y-120059244D01*
X132882667Y-120173694D01*
X132926891Y-120250292D01*
X132896121Y-120230517D01*
X132046295Y-119380691D01*
X132004568Y-119462587D01*
X131936473Y-119672164D01*
X131902000Y-119889818D01*
X131902000Y-119999500D01*
X131882315Y-120066539D01*
X131829511Y-120112294D01*
X131778000Y-120123500D01*
X131667778Y-120123500D01*
X131543897Y-120143120D01*
X131474604Y-120134165D01*
X131421152Y-120089169D01*
X131400513Y-120022417D01*
X131400500Y-120020647D01*
X131400500Y-119494869D01*
X131400500Y-119494862D01*
X131390417Y-119381448D01*
X131337237Y-119195594D01*
X131247734Y-119024249D01*
X131186652Y-118949339D01*
X131125571Y-118874428D01*
X131033700Y-118799518D01*
X130975751Y-118752266D01*
X130960491Y-118744295D01*
X132682691Y-118744295D01*
X133302000Y-119363604D01*
X133302001Y-119363604D01*
X133921306Y-118744296D01*
X133839413Y-118702568D01*
X133839410Y-118702567D01*
X133629835Y-118634473D01*
X133412181Y-118600000D01*
X133191819Y-118600000D01*
X132974164Y-118634473D01*
X132764587Y-118702568D01*
X132682691Y-118744295D01*
X130960491Y-118744295D01*
X130839995Y-118681353D01*
X130804405Y-118662762D01*
X130626506Y-118611859D01*
X130618552Y-118609583D01*
X130618551Y-118609582D01*
X130618548Y-118609582D01*
X130529662Y-118601680D01*
X130505138Y-118599500D01*
X129494862Y-118599500D01*
X129482599Y-118600590D01*
X129381451Y-118609582D01*
X129195594Y-118662762D01*
X129024250Y-118752265D01*
X128874428Y-118874428D01*
X128752265Y-119024250D01*
X128662762Y-119195594D01*
X128609582Y-119381451D01*
X128599500Y-119494863D01*
X126500500Y-119494863D01*
X126500500Y-118624073D01*
X126520185Y-118557034D01*
X126572989Y-118511279D01*
X126642147Y-118501335D01*
X126697386Y-118523755D01*
X126818650Y-118611859D01*
X127000968Y-118704755D01*
X127195582Y-118767990D01*
X127397683Y-118800000D01*
X127602317Y-118800000D01*
X127804417Y-118767990D01*
X127999031Y-118704755D01*
X128044957Y-118681353D01*
X127269483Y-117905879D01*
X127235998Y-117844556D01*
X127238859Y-117804545D01*
X127254394Y-117820080D01*
X127345606Y-117872741D01*
X127447339Y-117900000D01*
X127552661Y-117900000D01*
X127654394Y-117872741D01*
X127745606Y-117820080D01*
X127820080Y-117745606D01*
X127872741Y-117654394D01*
X127900000Y-117552661D01*
X127900000Y-117499999D01*
X128136396Y-117499999D01*
X128136396Y-117500000D01*
X128681353Y-118044957D01*
X128704755Y-117999031D01*
X128767990Y-117804417D01*
X128800000Y-117602317D01*
X128800000Y-117397682D01*
X128767989Y-117195581D01*
X128767989Y-117195578D01*
X128704758Y-117000976D01*
X128704758Y-117000975D01*
X128681354Y-116955040D01*
X128136396Y-117499999D01*
X127900000Y-117499999D01*
X127900000Y-117447339D01*
X127872741Y-117345606D01*
X127820080Y-117254394D01*
X127745606Y-117179920D01*
X127654394Y-117127259D01*
X127552661Y-117100000D01*
X127447339Y-117100000D01*
X127345606Y-117127259D01*
X127254394Y-117179920D01*
X127236756Y-117197557D01*
X127240982Y-117138468D01*
X127269483Y-117094121D01*
X128044957Y-116318646D01*
X128039012Y-116281109D01*
X128047966Y-116211816D01*
X128092961Y-116158363D01*
X128105184Y-116151227D01*
X128181610Y-116112287D01*
X128256809Y-116057652D01*
X128347213Y-115991971D01*
X128347215Y-115991968D01*
X128347219Y-115991966D01*
X128491966Y-115847219D01*
X128491968Y-115847215D01*
X128491971Y-115847213D01*
X128544732Y-115774590D01*
X128612287Y-115681610D01*
X128705220Y-115499219D01*
X128768477Y-115304534D01*
X128800500Y-115102352D01*
X128800500Y-114897648D01*
X128768477Y-114695466D01*
X128705220Y-114500781D01*
X128705218Y-114500778D01*
X128705218Y-114500776D01*
X128671503Y-114434607D01*
X128612287Y-114318390D01*
X128604556Y-114307749D01*
X128491971Y-114152786D01*
X128347213Y-114008028D01*
X128181613Y-113887715D01*
X128181612Y-113887714D01*
X128181610Y-113887713D01*
X128124653Y-113858691D01*
X127999223Y-113794781D01*
X127804534Y-113731522D01*
X127629995Y-113703878D01*
X127602352Y-113699500D01*
X127397648Y-113699500D01*
X127373329Y-113703351D01*
X127195465Y-113731522D01*
X127000776Y-113794781D01*
X126818390Y-113887712D01*
X126697385Y-113975627D01*
X126631578Y-113999106D01*
X126563524Y-113983280D01*
X126514830Y-113933174D01*
X126500500Y-113875308D01*
X126500500Y-111994863D01*
X128599500Y-111994863D01*
X128599500Y-113005136D01*
X128609582Y-113118548D01*
X128662762Y-113304405D01*
X128662763Y-113304406D01*
X128752266Y-113475751D01*
X128760946Y-113486396D01*
X128874428Y-113625571D01*
X128949339Y-113686652D01*
X129024249Y-113747734D01*
X129195594Y-113837237D01*
X129381448Y-113890417D01*
X129494862Y-113900500D01*
X130253500Y-113900500D01*
X130320539Y-113920185D01*
X130366294Y-113972989D01*
X130377500Y-114024500D01*
X130377500Y-114134222D01*
X130380440Y-114152786D01*
X130411985Y-114351952D01*
X130480103Y-114561603D01*
X130480104Y-114561606D01*
X130580187Y-114758025D01*
X130709752Y-114936358D01*
X130709756Y-114936363D01*
X130865636Y-115092243D01*
X130865641Y-115092247D01*
X130879550Y-115102352D01*
X131043978Y-115221815D01*
X131172375Y-115287237D01*
X131240393Y-115321895D01*
X131240396Y-115321896D01*
X131345221Y-115355955D01*
X131450049Y-115390015D01*
X131667778Y-115424500D01*
X131667779Y-115424500D01*
X131888221Y-115424500D01*
X131888222Y-115424500D01*
X132105951Y-115390015D01*
X132315606Y-115321895D01*
X132512022Y-115221815D01*
X132690365Y-115092242D01*
X132846242Y-114936365D01*
X132975815Y-114758022D01*
X133075895Y-114561606D01*
X133144015Y-114351951D01*
X133178500Y-114134222D01*
X133178500Y-114134220D01*
X133179262Y-114129410D01*
X133180697Y-114129637D01*
X133203270Y-114070421D01*
X133259503Y-114028953D01*
X133329229Y-114024469D01*
X133390309Y-114058394D01*
X133423353Y-114119957D01*
X133424712Y-114129414D01*
X133424738Y-114129410D01*
X133425500Y-114134221D01*
X133425500Y-114134222D01*
X133428440Y-114152786D01*
X133459985Y-114351952D01*
X133528103Y-114561603D01*
X133528104Y-114561606D01*
X133628187Y-114758025D01*
X133757752Y-114936358D01*
X133757756Y-114936363D01*
X133913636Y-115092243D01*
X133913641Y-115092247D01*
X133927550Y-115102352D01*
X134091978Y-115221815D01*
X134220375Y-115287237D01*
X134288393Y-115321895D01*
X134288396Y-115321896D01*
X134393221Y-115355955D01*
X134498049Y-115390015D01*
X134715778Y-115424500D01*
X134715779Y-115424500D01*
X134936221Y-115424500D01*
X134936222Y-115424500D01*
X135153951Y-115390015D01*
X135363606Y-115321895D01*
X135560022Y-115221815D01*
X135738365Y-115092242D01*
X135894242Y-114936365D01*
X136023815Y-114758022D01*
X136123895Y-114561606D01*
X136192015Y-114351951D01*
X136226500Y-114134222D01*
X136226500Y-113913778D01*
X136192015Y-113696049D01*
X136123895Y-113486394D01*
X136123895Y-113486393D01*
X136089237Y-113418375D01*
X136023815Y-113289978D01*
X136007260Y-113267192D01*
X135894247Y-113111641D01*
X135894243Y-113111636D01*
X135738363Y-112955756D01*
X135738358Y-112955752D01*
X135560025Y-112826187D01*
X135560024Y-112826186D01*
X135560022Y-112826185D01*
X135462130Y-112776306D01*
X135363606Y-112726104D01*
X135363603Y-112726103D01*
X135153952Y-112657985D01*
X135003558Y-112634165D01*
X134936222Y-112623500D01*
X134826000Y-112623500D01*
X134758961Y-112603815D01*
X134713206Y-112551011D01*
X134702000Y-112499500D01*
X134702000Y-112389818D01*
X134667526Y-112172164D01*
X134599429Y-111962584D01*
X134557702Y-111880691D01*
X133707878Y-112730516D01*
X133679617Y-112745947D01*
X133721333Y-112673694D01*
X133752000Y-112559244D01*
X133752000Y-112440756D01*
X133721333Y-112326306D01*
X133662090Y-112223694D01*
X133578306Y-112139910D01*
X133475694Y-112080667D01*
X133361244Y-112050000D01*
X133242756Y-112050000D01*
X133128306Y-112080667D01*
X133025694Y-112139910D01*
X132941910Y-112223694D01*
X132882667Y-112326306D01*
X132852000Y-112440756D01*
X132852000Y-112559244D01*
X132882667Y-112673694D01*
X132926891Y-112750292D01*
X132896121Y-112730517D01*
X132046295Y-111880691D01*
X132004568Y-111962587D01*
X131936473Y-112172164D01*
X131902000Y-112389818D01*
X131902000Y-112499500D01*
X131882315Y-112566539D01*
X131829511Y-112612294D01*
X131778000Y-112623500D01*
X131667778Y-112623500D01*
X131543897Y-112643120D01*
X131474604Y-112634165D01*
X131421152Y-112589169D01*
X131400513Y-112522417D01*
X131400500Y-112520647D01*
X131400500Y-111994869D01*
X131400500Y-111994862D01*
X131390417Y-111881448D01*
X131337237Y-111695594D01*
X131247734Y-111524249D01*
X131186652Y-111449339D01*
X131125571Y-111374428D01*
X131033700Y-111299518D01*
X130975751Y-111252266D01*
X130960491Y-111244295D01*
X132682691Y-111244295D01*
X133302000Y-111863604D01*
X133302001Y-111863604D01*
X133921306Y-111244296D01*
X133839413Y-111202568D01*
X133839410Y-111202567D01*
X133629835Y-111134473D01*
X133412181Y-111100000D01*
X133191819Y-111100000D01*
X132974164Y-111134473D01*
X132764587Y-111202568D01*
X132682691Y-111244295D01*
X130960491Y-111244295D01*
X130839995Y-111181353D01*
X130804405Y-111162762D01*
X130626506Y-111111859D01*
X130618552Y-111109583D01*
X130618551Y-111109582D01*
X130618548Y-111109582D01*
X130529662Y-111101680D01*
X130505138Y-111099500D01*
X129494862Y-111099500D01*
X129482599Y-111100590D01*
X129381451Y-111109582D01*
X129195594Y-111162762D01*
X129024250Y-111252265D01*
X128874428Y-111374428D01*
X128752265Y-111524250D01*
X128662762Y-111695594D01*
X128609582Y-111881451D01*
X128599500Y-111994863D01*
X126500500Y-111994863D01*
X126500500Y-111124073D01*
X126520185Y-111057034D01*
X126572989Y-111011279D01*
X126642147Y-111001335D01*
X126697386Y-111023755D01*
X126818650Y-111111859D01*
X127000968Y-111204755D01*
X127195582Y-111267990D01*
X127397683Y-111300000D01*
X127602317Y-111300000D01*
X127804417Y-111267990D01*
X127999031Y-111204755D01*
X128044957Y-111181353D01*
X127269483Y-110405879D01*
X127235998Y-110344556D01*
X127238859Y-110304545D01*
X127254394Y-110320080D01*
X127345606Y-110372741D01*
X127447339Y-110400000D01*
X127552661Y-110400000D01*
X127654394Y-110372741D01*
X127745606Y-110320080D01*
X127820080Y-110245606D01*
X127872741Y-110154394D01*
X127900000Y-110052661D01*
X127900000Y-109999999D01*
X128136396Y-109999999D01*
X128136396Y-110000000D01*
X128681353Y-110544957D01*
X128704755Y-110499031D01*
X128767990Y-110304417D01*
X128800000Y-110102317D01*
X128800000Y-109897682D01*
X128767989Y-109695581D01*
X128767989Y-109695578D01*
X128704758Y-109500976D01*
X128704758Y-109500975D01*
X128681354Y-109455040D01*
X128136396Y-109999999D01*
X127900000Y-109999999D01*
X127900000Y-109947339D01*
X127872741Y-109845606D01*
X127820080Y-109754394D01*
X127745606Y-109679920D01*
X127654394Y-109627259D01*
X127552661Y-109600000D01*
X127447339Y-109600000D01*
X127345606Y-109627259D01*
X127254394Y-109679920D01*
X127236756Y-109697557D01*
X127240982Y-109638468D01*
X127269483Y-109594121D01*
X128044957Y-108818646D01*
X128039012Y-108781109D01*
X128047966Y-108711816D01*
X128092961Y-108658363D01*
X128105184Y-108651227D01*
X128181610Y-108612287D01*
X128256809Y-108557652D01*
X128347213Y-108491971D01*
X128347215Y-108491968D01*
X128347219Y-108491966D01*
X128491966Y-108347219D01*
X128491968Y-108347215D01*
X128491971Y-108347213D01*
X128544732Y-108274590D01*
X128612287Y-108181610D01*
X128705220Y-107999219D01*
X128768477Y-107804534D01*
X128800500Y-107602352D01*
X128800500Y-107397648D01*
X128768477Y-107195466D01*
X128705220Y-107000781D01*
X128705218Y-107000778D01*
X128705218Y-107000776D01*
X128671503Y-106934607D01*
X128612287Y-106818390D01*
X128604556Y-106807749D01*
X128491971Y-106652786D01*
X128347213Y-106508028D01*
X128181613Y-106387715D01*
X128181612Y-106387714D01*
X128181610Y-106387713D01*
X128124653Y-106358691D01*
X127999223Y-106294781D01*
X127804534Y-106231522D01*
X127629995Y-106203878D01*
X127602352Y-106199500D01*
X127397648Y-106199500D01*
X127373329Y-106203351D01*
X127195465Y-106231522D01*
X127000776Y-106294781D01*
X126818390Y-106387712D01*
X126697385Y-106475627D01*
X126631578Y-106499106D01*
X126563524Y-106483280D01*
X126514830Y-106433174D01*
X126500500Y-106375308D01*
X126500500Y-104494863D01*
X128599500Y-104494863D01*
X128599500Y-105505136D01*
X128609582Y-105618548D01*
X128662762Y-105804405D01*
X128662763Y-105804406D01*
X128752266Y-105975751D01*
X128760946Y-105986396D01*
X128874428Y-106125571D01*
X128949339Y-106186652D01*
X129024249Y-106247734D01*
X129195594Y-106337237D01*
X129381448Y-106390417D01*
X129494862Y-106400500D01*
X130253500Y-106400500D01*
X130320539Y-106420185D01*
X130366294Y-106472989D01*
X130377500Y-106524500D01*
X130377500Y-106634222D01*
X130380440Y-106652786D01*
X130411985Y-106851952D01*
X130480103Y-107061603D01*
X130480104Y-107061606D01*
X130580187Y-107258025D01*
X130709752Y-107436358D01*
X130709756Y-107436363D01*
X130865636Y-107592243D01*
X130865641Y-107592247D01*
X130879550Y-107602352D01*
X131043978Y-107721815D01*
X131172375Y-107787237D01*
X131240393Y-107821895D01*
X131240396Y-107821896D01*
X131345221Y-107855955D01*
X131450049Y-107890015D01*
X131667778Y-107924500D01*
X131667779Y-107924500D01*
X131888221Y-107924500D01*
X131888222Y-107924500D01*
X132105951Y-107890015D01*
X132315606Y-107821895D01*
X132512022Y-107721815D01*
X132690365Y-107592242D01*
X132846242Y-107436365D01*
X132975815Y-107258022D01*
X133075895Y-107061606D01*
X133144015Y-106851951D01*
X133178500Y-106634222D01*
X133178500Y-106634220D01*
X133179262Y-106629410D01*
X133180697Y-106629637D01*
X133203270Y-106570421D01*
X133259503Y-106528953D01*
X133329229Y-106524469D01*
X133390309Y-106558394D01*
X133423353Y-106619957D01*
X133424712Y-106629414D01*
X133424738Y-106629410D01*
X133425500Y-106634221D01*
X133425500Y-106634222D01*
X133428440Y-106652786D01*
X133459985Y-106851952D01*
X133528103Y-107061603D01*
X133528104Y-107061606D01*
X133628187Y-107258025D01*
X133757752Y-107436358D01*
X133757756Y-107436363D01*
X133913636Y-107592243D01*
X133913641Y-107592247D01*
X133927550Y-107602352D01*
X134091978Y-107721815D01*
X134220375Y-107787237D01*
X134288393Y-107821895D01*
X134288396Y-107821896D01*
X134393221Y-107855955D01*
X134498049Y-107890015D01*
X134715778Y-107924500D01*
X134715779Y-107924500D01*
X134936221Y-107924500D01*
X134936222Y-107924500D01*
X135153951Y-107890015D01*
X135363606Y-107821895D01*
X135560022Y-107721815D01*
X135738365Y-107592242D01*
X135894242Y-107436365D01*
X136023815Y-107258022D01*
X136123895Y-107061606D01*
X136192015Y-106851951D01*
X136226500Y-106634222D01*
X136226500Y-106413778D01*
X136192015Y-106196049D01*
X136123895Y-105986394D01*
X136123895Y-105986393D01*
X136089237Y-105918375D01*
X136023815Y-105789978D01*
X136007260Y-105767192D01*
X135894247Y-105611641D01*
X135894243Y-105611636D01*
X135738363Y-105455756D01*
X135738358Y-105455752D01*
X135560025Y-105326187D01*
X135560024Y-105326186D01*
X135560022Y-105326185D01*
X135462130Y-105276306D01*
X135363606Y-105226104D01*
X135363603Y-105226103D01*
X135153952Y-105157985D01*
X135003558Y-105134165D01*
X134936222Y-105123500D01*
X134826000Y-105123500D01*
X134758961Y-105103815D01*
X134713206Y-105051011D01*
X134702000Y-104999500D01*
X134702000Y-104889818D01*
X134667526Y-104672164D01*
X134599429Y-104462584D01*
X134557702Y-104380691D01*
X133707878Y-105230516D01*
X133679617Y-105245947D01*
X133721333Y-105173694D01*
X133752000Y-105059244D01*
X133752000Y-104940756D01*
X133721333Y-104826306D01*
X133662090Y-104723694D01*
X133578306Y-104639910D01*
X133475694Y-104580667D01*
X133361244Y-104550000D01*
X133242756Y-104550000D01*
X133128306Y-104580667D01*
X133025694Y-104639910D01*
X132941910Y-104723694D01*
X132882667Y-104826306D01*
X132852000Y-104940756D01*
X132852000Y-105059244D01*
X132882667Y-105173694D01*
X132926891Y-105250292D01*
X132896121Y-105230517D01*
X132046295Y-104380691D01*
X132004568Y-104462587D01*
X131936473Y-104672164D01*
X131902000Y-104889818D01*
X131902000Y-104999500D01*
X131882315Y-105066539D01*
X131829511Y-105112294D01*
X131778000Y-105123500D01*
X131667778Y-105123500D01*
X131543897Y-105143120D01*
X131474604Y-105134165D01*
X131421152Y-105089169D01*
X131400513Y-105022417D01*
X131400500Y-105020647D01*
X131400500Y-104494869D01*
X131400500Y-104494862D01*
X131390417Y-104381448D01*
X131337237Y-104195594D01*
X131247734Y-104024249D01*
X131186652Y-103949339D01*
X131125571Y-103874428D01*
X131033700Y-103799518D01*
X130975751Y-103752266D01*
X130960491Y-103744295D01*
X132682691Y-103744295D01*
X133302000Y-104363604D01*
X133302001Y-104363604D01*
X133921306Y-103744296D01*
X133839413Y-103702568D01*
X133839410Y-103702567D01*
X133629835Y-103634473D01*
X133412181Y-103600000D01*
X133191819Y-103600000D01*
X132974164Y-103634473D01*
X132764587Y-103702568D01*
X132682691Y-103744295D01*
X130960491Y-103744295D01*
X130839995Y-103681353D01*
X130804405Y-103662762D01*
X130626506Y-103611859D01*
X130618552Y-103609583D01*
X130618551Y-103609582D01*
X130618548Y-103609582D01*
X130529662Y-103601680D01*
X130505138Y-103599500D01*
X129494862Y-103599500D01*
X129482599Y-103600590D01*
X129381451Y-103609582D01*
X129195594Y-103662762D01*
X129024250Y-103752265D01*
X128874428Y-103874428D01*
X128752265Y-104024250D01*
X128662762Y-104195594D01*
X128609582Y-104381451D01*
X128599500Y-104494863D01*
X126500500Y-104494863D01*
X126500500Y-103624073D01*
X126520185Y-103557034D01*
X126572989Y-103511279D01*
X126642147Y-103501335D01*
X126697386Y-103523755D01*
X126818650Y-103611859D01*
X127000968Y-103704755D01*
X127195582Y-103767990D01*
X127397683Y-103800000D01*
X127602317Y-103800000D01*
X127804417Y-103767990D01*
X127999031Y-103704755D01*
X128044957Y-103681353D01*
X127269483Y-102905879D01*
X127235998Y-102844556D01*
X127238859Y-102804545D01*
X127254394Y-102820080D01*
X127345606Y-102872741D01*
X127447339Y-102900000D01*
X127552661Y-102900000D01*
X127654394Y-102872741D01*
X127745606Y-102820080D01*
X127820080Y-102745606D01*
X127872741Y-102654394D01*
X127900000Y-102552661D01*
X127900000Y-102499999D01*
X128136396Y-102499999D01*
X128136396Y-102500000D01*
X128681353Y-103044957D01*
X128704755Y-102999031D01*
X128767990Y-102804417D01*
X128800000Y-102602317D01*
X128800000Y-102397682D01*
X128767989Y-102195581D01*
X128767989Y-102195578D01*
X128704758Y-102000976D01*
X128704758Y-102000975D01*
X128681354Y-101955040D01*
X128136396Y-102499999D01*
X127900000Y-102499999D01*
X127900000Y-102447339D01*
X127872741Y-102345606D01*
X127820080Y-102254394D01*
X127745606Y-102179920D01*
X127654394Y-102127259D01*
X127552661Y-102100000D01*
X127447339Y-102100000D01*
X127345606Y-102127259D01*
X127254394Y-102179920D01*
X127236756Y-102197557D01*
X127240982Y-102138468D01*
X127269483Y-102094121D01*
X128044957Y-101318646D01*
X128039012Y-101281109D01*
X128047966Y-101211816D01*
X128092961Y-101158363D01*
X128105184Y-101151227D01*
X128181610Y-101112287D01*
X128256809Y-101057652D01*
X128347213Y-100991971D01*
X128347215Y-100991968D01*
X128347219Y-100991966D01*
X128491966Y-100847219D01*
X128491968Y-100847215D01*
X128491971Y-100847213D01*
X128544732Y-100774590D01*
X128612287Y-100681610D01*
X128705220Y-100499219D01*
X128768477Y-100304534D01*
X128800500Y-100102352D01*
X128800500Y-99897648D01*
X128768477Y-99695466D01*
X128705220Y-99500781D01*
X128705218Y-99500778D01*
X128705218Y-99500776D01*
X128671503Y-99434607D01*
X128612287Y-99318390D01*
X128604556Y-99307749D01*
X128491971Y-99152786D01*
X128347213Y-99008028D01*
X128181613Y-98887715D01*
X128181612Y-98887714D01*
X128181610Y-98887713D01*
X128124653Y-98858691D01*
X127999223Y-98794781D01*
X127804534Y-98731522D01*
X127629995Y-98703878D01*
X127602352Y-98699500D01*
X127397648Y-98699500D01*
X127373329Y-98703351D01*
X127195465Y-98731522D01*
X127000776Y-98794781D01*
X126818390Y-98887712D01*
X126697385Y-98975627D01*
X126631578Y-98999106D01*
X126563524Y-98983280D01*
X126514830Y-98933174D01*
X126500500Y-98875308D01*
X126500500Y-96994863D01*
X128599500Y-96994863D01*
X128599500Y-98005136D01*
X128609582Y-98118548D01*
X128662762Y-98304405D01*
X128662763Y-98304406D01*
X128752266Y-98475751D01*
X128760946Y-98486396D01*
X128874428Y-98625571D01*
X128949339Y-98686652D01*
X129024249Y-98747734D01*
X129195594Y-98837237D01*
X129381448Y-98890417D01*
X129494862Y-98900500D01*
X130253500Y-98900500D01*
X130320539Y-98920185D01*
X130366294Y-98972989D01*
X130377500Y-99024500D01*
X130377500Y-99134222D01*
X130380440Y-99152786D01*
X130411985Y-99351952D01*
X130480103Y-99561603D01*
X130480104Y-99561606D01*
X130580187Y-99758025D01*
X130709752Y-99936358D01*
X130709756Y-99936363D01*
X130865636Y-100092243D01*
X130865641Y-100092247D01*
X130879550Y-100102352D01*
X131043978Y-100221815D01*
X131172375Y-100287237D01*
X131240393Y-100321895D01*
X131240396Y-100321896D01*
X131345221Y-100355955D01*
X131450049Y-100390015D01*
X131667778Y-100424500D01*
X131667779Y-100424500D01*
X131888221Y-100424500D01*
X131888222Y-100424500D01*
X132105951Y-100390015D01*
X132315606Y-100321895D01*
X132512022Y-100221815D01*
X132690365Y-100092242D01*
X132846242Y-99936365D01*
X132975815Y-99758022D01*
X133075895Y-99561606D01*
X133144015Y-99351951D01*
X133178500Y-99134222D01*
X133178500Y-99134220D01*
X133179262Y-99129410D01*
X133180697Y-99129637D01*
X133203270Y-99070421D01*
X133259503Y-99028953D01*
X133329229Y-99024469D01*
X133390309Y-99058394D01*
X133423353Y-99119957D01*
X133424712Y-99129414D01*
X133424738Y-99129410D01*
X133425500Y-99134221D01*
X133425500Y-99134222D01*
X133428440Y-99152786D01*
X133459985Y-99351952D01*
X133528103Y-99561603D01*
X133528104Y-99561606D01*
X133628187Y-99758025D01*
X133757752Y-99936358D01*
X133757756Y-99936363D01*
X133913636Y-100092243D01*
X133913641Y-100092247D01*
X133927550Y-100102352D01*
X134091978Y-100221815D01*
X134220375Y-100287237D01*
X134288393Y-100321895D01*
X134288396Y-100321896D01*
X134393221Y-100355955D01*
X134498049Y-100390015D01*
X134715778Y-100424500D01*
X134715779Y-100424500D01*
X134936221Y-100424500D01*
X134936222Y-100424500D01*
X135153951Y-100390015D01*
X135363606Y-100321895D01*
X135560022Y-100221815D01*
X135738365Y-100092242D01*
X135894242Y-99936365D01*
X136023815Y-99758022D01*
X136123895Y-99561606D01*
X136192015Y-99351951D01*
X136226500Y-99134222D01*
X136226500Y-98913778D01*
X136192015Y-98696049D01*
X136123895Y-98486394D01*
X136123895Y-98486393D01*
X136089237Y-98418375D01*
X136023815Y-98289978D01*
X136007260Y-98267192D01*
X135894247Y-98111641D01*
X135894243Y-98111636D01*
X135738363Y-97955756D01*
X135738358Y-97955752D01*
X135560025Y-97826187D01*
X135560024Y-97826186D01*
X135560022Y-97826185D01*
X135462130Y-97776306D01*
X135363606Y-97726104D01*
X135363603Y-97726103D01*
X135153952Y-97657985D01*
X135003558Y-97634165D01*
X134936222Y-97623500D01*
X134826000Y-97623500D01*
X134758961Y-97603815D01*
X134713206Y-97551011D01*
X134702000Y-97499500D01*
X134702000Y-97389818D01*
X134667526Y-97172164D01*
X134599429Y-96962584D01*
X134557702Y-96880691D01*
X133707878Y-97730516D01*
X133679617Y-97745947D01*
X133721333Y-97673694D01*
X133752000Y-97559244D01*
X133752000Y-97440756D01*
X133721333Y-97326306D01*
X133662090Y-97223694D01*
X133578306Y-97139910D01*
X133475694Y-97080667D01*
X133361244Y-97050000D01*
X133242756Y-97050000D01*
X133128306Y-97080667D01*
X133025694Y-97139910D01*
X132941910Y-97223694D01*
X132882667Y-97326306D01*
X132852000Y-97440756D01*
X132852000Y-97559244D01*
X132882667Y-97673694D01*
X132926891Y-97750292D01*
X132896121Y-97730517D01*
X132046295Y-96880691D01*
X132004568Y-96962587D01*
X131936473Y-97172164D01*
X131902000Y-97389818D01*
X131902000Y-97499500D01*
X131882315Y-97566539D01*
X131829511Y-97612294D01*
X131778000Y-97623500D01*
X131667778Y-97623500D01*
X131543897Y-97643120D01*
X131474604Y-97634165D01*
X131421152Y-97589169D01*
X131400513Y-97522417D01*
X131400500Y-97520647D01*
X131400500Y-96994869D01*
X131400500Y-96994862D01*
X131390417Y-96881448D01*
X131337237Y-96695594D01*
X131247734Y-96524249D01*
X131186652Y-96449339D01*
X131125571Y-96374428D01*
X131033700Y-96299518D01*
X130975751Y-96252266D01*
X130960491Y-96244295D01*
X132682691Y-96244295D01*
X133302000Y-96863604D01*
X133302001Y-96863604D01*
X133921306Y-96244296D01*
X133839413Y-96202568D01*
X133839410Y-96202567D01*
X133629835Y-96134473D01*
X133412181Y-96100000D01*
X133191819Y-96100000D01*
X132974164Y-96134473D01*
X132764587Y-96202568D01*
X132682691Y-96244295D01*
X130960491Y-96244295D01*
X130839995Y-96181353D01*
X130804405Y-96162762D01*
X130626506Y-96111859D01*
X130618552Y-96109583D01*
X130618551Y-96109582D01*
X130618548Y-96109582D01*
X130529662Y-96101680D01*
X130505138Y-96099500D01*
X129494862Y-96099500D01*
X129482599Y-96100590D01*
X129381451Y-96109582D01*
X129195594Y-96162762D01*
X129024250Y-96252265D01*
X128874428Y-96374428D01*
X128752265Y-96524250D01*
X128662762Y-96695594D01*
X128609582Y-96881451D01*
X128599500Y-96994863D01*
X126500500Y-96994863D01*
X126500500Y-96124073D01*
X126520185Y-96057034D01*
X126572989Y-96011279D01*
X126642147Y-96001335D01*
X126697386Y-96023755D01*
X126818650Y-96111859D01*
X127000968Y-96204755D01*
X127195582Y-96267990D01*
X127397683Y-96300000D01*
X127602317Y-96300000D01*
X127804417Y-96267990D01*
X127999031Y-96204755D01*
X128044957Y-96181353D01*
X127269483Y-95405879D01*
X127235998Y-95344556D01*
X127238859Y-95304545D01*
X127254394Y-95320080D01*
X127345606Y-95372741D01*
X127447339Y-95400000D01*
X127552661Y-95400000D01*
X127654394Y-95372741D01*
X127745606Y-95320080D01*
X127820080Y-95245606D01*
X127872741Y-95154394D01*
X127900000Y-95052661D01*
X127900000Y-94999999D01*
X128136396Y-94999999D01*
X128136396Y-95000000D01*
X128681353Y-95544957D01*
X128704755Y-95499031D01*
X128767990Y-95304417D01*
X128800000Y-95102317D01*
X128800000Y-94897682D01*
X128767989Y-94695581D01*
X128767989Y-94695578D01*
X128704758Y-94500976D01*
X128704758Y-94500975D01*
X128681354Y-94455040D01*
X128136396Y-94999999D01*
X127900000Y-94999999D01*
X127900000Y-94947339D01*
X127872741Y-94845606D01*
X127820080Y-94754394D01*
X127745606Y-94679920D01*
X127654394Y-94627259D01*
X127552661Y-94600000D01*
X127447339Y-94600000D01*
X127345606Y-94627259D01*
X127254394Y-94679920D01*
X127236756Y-94697557D01*
X127240982Y-94638468D01*
X127269483Y-94594121D01*
X128044957Y-93818646D01*
X128039012Y-93781109D01*
X128047966Y-93711816D01*
X128092961Y-93658363D01*
X128105184Y-93651227D01*
X128181610Y-93612287D01*
X128256809Y-93557652D01*
X128347213Y-93491971D01*
X128347215Y-93491968D01*
X128347219Y-93491966D01*
X128491966Y-93347219D01*
X128491968Y-93347215D01*
X128491971Y-93347213D01*
X128544732Y-93274590D01*
X128612287Y-93181610D01*
X128705220Y-92999219D01*
X128768477Y-92804534D01*
X128800500Y-92602352D01*
X128800500Y-92397648D01*
X128768477Y-92195466D01*
X128705220Y-92000781D01*
X128705218Y-92000778D01*
X128705218Y-92000776D01*
X128671503Y-91934607D01*
X128612287Y-91818390D01*
X128604556Y-91807749D01*
X128491971Y-91652786D01*
X128347213Y-91508028D01*
X128181613Y-91387715D01*
X128181612Y-91387714D01*
X128181610Y-91387713D01*
X128124653Y-91358691D01*
X127999223Y-91294781D01*
X127804534Y-91231522D01*
X127629995Y-91203878D01*
X127602352Y-91199500D01*
X127397648Y-91199500D01*
X127373329Y-91203351D01*
X127195465Y-91231522D01*
X127000776Y-91294781D01*
X126818390Y-91387712D01*
X126697385Y-91475627D01*
X126631578Y-91499106D01*
X126563524Y-91483280D01*
X126514830Y-91433174D01*
X126500500Y-91375308D01*
X126500500Y-89494863D01*
X128599500Y-89494863D01*
X128599500Y-90505136D01*
X128609582Y-90618548D01*
X128662762Y-90804405D01*
X128662763Y-90804406D01*
X128752266Y-90975751D01*
X128760946Y-90986396D01*
X128874428Y-91125571D01*
X128949339Y-91186652D01*
X129024249Y-91247734D01*
X129195594Y-91337237D01*
X129381448Y-91390417D01*
X129494862Y-91400500D01*
X130253500Y-91400500D01*
X130320539Y-91420185D01*
X130366294Y-91472989D01*
X130377500Y-91524500D01*
X130377500Y-91634222D01*
X130380440Y-91652786D01*
X130411985Y-91851952D01*
X130480103Y-92061603D01*
X130480104Y-92061606D01*
X130580187Y-92258025D01*
X130709752Y-92436358D01*
X130709756Y-92436363D01*
X130865636Y-92592243D01*
X130865641Y-92592247D01*
X130879550Y-92602352D01*
X131043978Y-92721815D01*
X131172375Y-92787237D01*
X131240393Y-92821895D01*
X131240396Y-92821896D01*
X131345221Y-92855955D01*
X131450049Y-92890015D01*
X131667778Y-92924500D01*
X131667779Y-92924500D01*
X131888221Y-92924500D01*
X131888222Y-92924500D01*
X132105951Y-92890015D01*
X132315606Y-92821895D01*
X132512022Y-92721815D01*
X132690365Y-92592242D01*
X132846242Y-92436365D01*
X132975815Y-92258022D01*
X133075895Y-92061606D01*
X133144015Y-91851951D01*
X133178500Y-91634222D01*
X133178500Y-91634220D01*
X133179262Y-91629410D01*
X133180697Y-91629637D01*
X133203270Y-91570421D01*
X133259503Y-91528953D01*
X133329229Y-91524469D01*
X133390309Y-91558394D01*
X133423353Y-91619957D01*
X133424712Y-91629414D01*
X133424738Y-91629410D01*
X133425500Y-91634221D01*
X133425500Y-91634222D01*
X133428440Y-91652786D01*
X133459985Y-91851952D01*
X133528103Y-92061603D01*
X133528104Y-92061606D01*
X133628187Y-92258025D01*
X133757752Y-92436358D01*
X133757756Y-92436363D01*
X133913636Y-92592243D01*
X133913641Y-92592247D01*
X133927550Y-92602352D01*
X134091978Y-92721815D01*
X134220375Y-92787237D01*
X134288393Y-92821895D01*
X134288396Y-92821896D01*
X134393221Y-92855955D01*
X134498049Y-92890015D01*
X134715778Y-92924500D01*
X134715779Y-92924500D01*
X134936221Y-92924500D01*
X134936222Y-92924500D01*
X135153951Y-92890015D01*
X135363606Y-92821895D01*
X135560022Y-92721815D01*
X135738365Y-92592242D01*
X135894242Y-92436365D01*
X136023815Y-92258022D01*
X136123895Y-92061606D01*
X136192015Y-91851951D01*
X136226500Y-91634222D01*
X136226500Y-91413778D01*
X136192015Y-91196049D01*
X136123895Y-90986394D01*
X136123895Y-90986393D01*
X136089237Y-90918375D01*
X136023815Y-90789978D01*
X136007260Y-90767192D01*
X135894247Y-90611641D01*
X135894243Y-90611636D01*
X135738363Y-90455756D01*
X135738358Y-90455752D01*
X135560025Y-90326187D01*
X135560024Y-90326186D01*
X135560022Y-90326185D01*
X135462130Y-90276306D01*
X135363606Y-90226104D01*
X135363603Y-90226103D01*
X135153952Y-90157985D01*
X135003558Y-90134165D01*
X134936222Y-90123500D01*
X134826000Y-90123500D01*
X134758961Y-90103815D01*
X134713206Y-90051011D01*
X134702000Y-89999500D01*
X134702000Y-89889818D01*
X134667526Y-89672164D01*
X134599429Y-89462584D01*
X134557702Y-89380691D01*
X133707878Y-90230516D01*
X133679617Y-90245947D01*
X133721333Y-90173694D01*
X133752000Y-90059244D01*
X133752000Y-89940756D01*
X133721333Y-89826306D01*
X133662090Y-89723694D01*
X133578306Y-89639910D01*
X133475694Y-89580667D01*
X133361244Y-89550000D01*
X133242756Y-89550000D01*
X133128306Y-89580667D01*
X133025694Y-89639910D01*
X132941910Y-89723694D01*
X132882667Y-89826306D01*
X132852000Y-89940756D01*
X132852000Y-90059244D01*
X132882667Y-90173694D01*
X132926891Y-90250292D01*
X132896121Y-90230517D01*
X132046295Y-89380691D01*
X132004568Y-89462587D01*
X131936473Y-89672164D01*
X131902000Y-89889818D01*
X131902000Y-89999500D01*
X131882315Y-90066539D01*
X131829511Y-90112294D01*
X131778000Y-90123500D01*
X131667778Y-90123500D01*
X131543897Y-90143120D01*
X131474604Y-90134165D01*
X131421152Y-90089169D01*
X131400513Y-90022417D01*
X131400500Y-90020647D01*
X131400500Y-89494869D01*
X131400500Y-89494862D01*
X131390417Y-89381448D01*
X131337237Y-89195594D01*
X131247734Y-89024249D01*
X131186652Y-88949339D01*
X131125571Y-88874428D01*
X131033700Y-88799518D01*
X130975751Y-88752266D01*
X130960491Y-88744295D01*
X132682691Y-88744295D01*
X133302000Y-89363604D01*
X133302001Y-89363604D01*
X133921306Y-88744296D01*
X133839413Y-88702568D01*
X133839410Y-88702567D01*
X133629835Y-88634473D01*
X133412181Y-88600000D01*
X133191819Y-88600000D01*
X132974164Y-88634473D01*
X132764587Y-88702568D01*
X132682691Y-88744295D01*
X130960491Y-88744295D01*
X130880607Y-88702567D01*
X130804405Y-88662762D01*
X130649845Y-88618537D01*
X130618552Y-88609583D01*
X130618551Y-88609582D01*
X130618548Y-88609582D01*
X130529662Y-88601680D01*
X130505138Y-88599500D01*
X129494862Y-88599500D01*
X129482599Y-88600590D01*
X129381451Y-88609582D01*
X129195594Y-88662762D01*
X129024250Y-88752265D01*
X128874428Y-88874428D01*
X128752265Y-89024250D01*
X128662762Y-89195594D01*
X128609582Y-89381451D01*
X128599500Y-89494863D01*
X126500500Y-89494863D01*
X126500500Y-81916228D01*
X127549500Y-81916228D01*
X127549500Y-82083771D01*
X127582182Y-82248074D01*
X127582184Y-82248082D01*
X127646295Y-82402860D01*
X127739373Y-82542162D01*
X127857837Y-82660626D01*
X127950494Y-82722537D01*
X127997137Y-82753703D01*
X128151918Y-82817816D01*
X128316228Y-82850499D01*
X128316232Y-82850500D01*
X128316233Y-82850500D01*
X128483768Y-82850500D01*
X128483769Y-82850499D01*
X128648082Y-82817816D01*
X128802863Y-82753703D01*
X128942162Y-82660626D01*
X129060626Y-82542162D01*
X129153703Y-82402863D01*
X129217816Y-82248082D01*
X129250500Y-82083767D01*
X129250500Y-81916233D01*
X129217816Y-81751918D01*
X129171916Y-81641108D01*
X129164448Y-81571641D01*
X129195723Y-81509162D01*
X129255811Y-81473509D01*
X129299081Y-81470299D01*
X129302300Y-81470627D01*
X129349991Y-81475500D01*
X130650008Y-81475499D01*
X130752797Y-81464999D01*
X130919334Y-81409814D01*
X131068656Y-81317712D01*
X131192712Y-81193656D01*
X131284814Y-81044334D01*
X131284814Y-81044331D01*
X131288178Y-81038879D01*
X131340126Y-80992154D01*
X131409088Y-80980931D01*
X131473170Y-81008774D01*
X131481398Y-81016294D01*
X131620213Y-81155109D01*
X131792179Y-81280048D01*
X131792181Y-81280049D01*
X131792184Y-81280051D01*
X131981588Y-81376557D01*
X132183757Y-81442246D01*
X132393713Y-81475500D01*
X132393714Y-81475500D01*
X132606286Y-81475500D01*
X132606287Y-81475500D01*
X132816243Y-81442246D01*
X133018412Y-81376557D01*
X133207816Y-81280051D01*
X133254275Y-81246297D01*
X133379786Y-81155109D01*
X133379788Y-81155106D01*
X133379792Y-81155104D01*
X133530104Y-81004792D01*
X133649991Y-80839779D01*
X133705320Y-80797115D01*
X133774933Y-80791136D01*
X133836729Y-80823741D01*
X133850627Y-80839781D01*
X133970272Y-81004459D01*
X133970276Y-81004464D01*
X134120535Y-81154723D01*
X134120540Y-81154727D01*
X134292442Y-81279620D01*
X134481779Y-81376094D01*
X134481785Y-81376096D01*
X134549999Y-81398259D01*
X134550000Y-81398259D01*
X135450000Y-81398259D01*
X135518214Y-81376096D01*
X135518220Y-81376094D01*
X135707557Y-81279620D01*
X135879459Y-81154727D01*
X135879464Y-81154723D01*
X136029723Y-81004464D01*
X136029727Y-81004459D01*
X136154620Y-80832557D01*
X136251092Y-80643222D01*
X136313875Y-80450000D01*
X135450000Y-80450000D01*
X135450000Y-81398259D01*
X134550000Y-81398259D01*
X134550000Y-80155837D01*
X134557370Y-80183343D01*
X134619905Y-80291657D01*
X134708343Y-80380095D01*
X134816657Y-80442630D01*
X134937465Y-80475000D01*
X135062535Y-80475000D01*
X135183343Y-80442630D01*
X135291657Y-80380095D01*
X135380095Y-80291657D01*
X135442630Y-80183343D01*
X135475000Y-80062535D01*
X135475000Y-79937465D01*
X135442630Y-79816657D01*
X135380095Y-79708343D01*
X135291657Y-79619905D01*
X135183343Y-79557370D01*
X135155837Y-79550000D01*
X135450000Y-79550000D01*
X136313875Y-79550000D01*
X136313874Y-79549999D01*
X136251092Y-79356777D01*
X136154620Y-79167442D01*
X136029727Y-78995540D01*
X136029723Y-78995535D01*
X135879464Y-78845276D01*
X135879459Y-78845272D01*
X135707557Y-78720379D01*
X135518222Y-78623907D01*
X135450000Y-78601740D01*
X135450000Y-79550000D01*
X135155837Y-79550000D01*
X135062535Y-79525000D01*
X134937465Y-79525000D01*
X134816657Y-79557370D01*
X134708343Y-79619905D01*
X134619905Y-79708343D01*
X134557370Y-79816657D01*
X134550000Y-79844162D01*
X134550000Y-78601740D01*
X134549999Y-78601740D01*
X134481777Y-78623907D01*
X134292442Y-78720379D01*
X134120540Y-78845272D01*
X134120535Y-78845276D01*
X133970276Y-78995535D01*
X133970272Y-78995540D01*
X133850627Y-79160218D01*
X133795297Y-79202884D01*
X133725684Y-79208863D01*
X133663889Y-79176257D01*
X133649991Y-79160218D01*
X133530109Y-78995214D01*
X133530105Y-78995209D01*
X133379786Y-78844890D01*
X133207820Y-78719951D01*
X133018414Y-78623444D01*
X133018413Y-78623443D01*
X133018412Y-78623443D01*
X132816243Y-78557754D01*
X132816241Y-78557753D01*
X132816240Y-78557753D01*
X132654957Y-78532208D01*
X132606287Y-78524500D01*
X132393713Y-78524500D01*
X132345042Y-78532208D01*
X132183760Y-78557753D01*
X131981585Y-78623444D01*
X131792179Y-78719951D01*
X131620215Y-78844889D01*
X131481398Y-78983706D01*
X131420075Y-79017190D01*
X131350383Y-79012206D01*
X131294450Y-78970334D01*
X131288178Y-78961120D01*
X131192712Y-78806344D01*
X131068657Y-78682289D01*
X131068656Y-78682288D01*
X130919334Y-78590186D01*
X130752797Y-78535001D01*
X130752795Y-78535000D01*
X130650010Y-78524500D01*
X129349998Y-78524500D01*
X129349981Y-78524501D01*
X129247203Y-78535000D01*
X129247200Y-78535001D01*
X129080668Y-78590185D01*
X129080663Y-78590187D01*
X128931342Y-78682289D01*
X128807289Y-78806342D01*
X128715187Y-78955663D01*
X128715185Y-78955668D01*
X128710325Y-78970334D01*
X128660001Y-79122203D01*
X128660001Y-79122204D01*
X128660000Y-79122204D01*
X128649500Y-79224983D01*
X128649500Y-80775001D01*
X128649501Y-80775018D01*
X128660000Y-80877796D01*
X128660001Y-80877799D01*
X128701830Y-81004028D01*
X128704232Y-81073856D01*
X128668500Y-81133898D01*
X128605980Y-81165091D01*
X128559934Y-81164650D01*
X128508015Y-81154323D01*
X128483767Y-81149500D01*
X128316233Y-81149500D01*
X128316228Y-81149500D01*
X128151925Y-81182182D01*
X128151917Y-81182184D01*
X127997139Y-81246295D01*
X127857837Y-81339373D01*
X127739373Y-81457837D01*
X127646295Y-81597139D01*
X127582184Y-81751917D01*
X127582182Y-81751925D01*
X127549500Y-81916228D01*
X126500500Y-81916228D01*
X126500500Y-76624500D01*
X126520185Y-76557461D01*
X126572989Y-76511706D01*
X126624500Y-76500500D01*
X138375500Y-76500500D01*
X138442539Y-76520185D01*
G37*
%TD.AperFunction*%
%TD*%
M02*
