M48
; DRILL file KiCad 10.0.1 date 2026-05-18T17:03:26
; FORMAT={-:-/ absolute / metric / decimal}
; #@! TF.CreationDate,2026-05-18T17:03:26-06:00
; #@! TF.GenerationSoftware,Kicad,Pcbnew,10.0.1
; #@! TF.FileFunction,Plated,1,2,PTH
FMAT,2
METRIC
; #@! TA.AperFunction,Plated,PTH,ComponentDrill
T1C0.800
; #@! TA.AperFunction,Plated,PTH,ComponentDrill
T2C0.900
; #@! TA.AperFunction,Plated,PTH,ComponentDrill
T3C0.950
%
G90
G05
T1
X127.5Y-92.5
X127.5Y-95.0
X127.5Y-100.0
X127.5Y-102.5
X127.5Y-107.5
X127.5Y-110.0
X127.5Y-115.0
X127.5Y-117.5
X127.5Y-122.0
X127.5Y-124.5
T2
X130.0Y-90.0
X130.0Y-97.5
X130.0Y-105.0
X130.0Y-112.5
X130.0Y-120.0
X131.778Y-91.524
X131.778Y-99.024
X131.778Y-106.524
X131.778Y-114.024
X131.778Y-121.524
X133.302Y-90.0
X133.302Y-97.5
X133.302Y-105.0
X133.302Y-112.5
X133.302Y-120.0
X134.826Y-91.524
X134.826Y-99.024
X134.826Y-106.524
X134.826Y-114.024
X134.826Y-121.524
T3
X130.0Y-80.0
X130.0Y-130.725
X132.5Y-80.0
X132.5Y-130.725
X135.0Y-80.0
X135.0Y-130.725
M30
