%TF.GenerationSoftware,KiCad,Pcbnew,10.0.1*%
%TF.CreationDate,2026-05-18T17:03:28-06:00*%
%TF.ProjectId,LED Holder Iso Cards,4c454420-486f-46c6-9465-722049736f20,rev?*%
%TF.SameCoordinates,Original*%
%TF.FileFunction,Legend,Bot*%
%TF.FilePolarity,Positive*%
%FSLAX46Y46*%
G04 Gerber Fmt 4.6, Leading zero omitted, Abs format (unit mm)*
G04 Created by KiCad (PCBNEW 10.0.1) date 2026-05-18 17:03:28*
%MOMM*%
%LPD*%
G01*
G04 APERTURE LIST*
%ADD10C,0.250000*%
%ADD11C,0.120000*%
G04 APERTURE END LIST*
D10*
X129871241Y-133864619D02*
X130347431Y-133864619D01*
X130347431Y-133864619D02*
X130395050Y-134340809D01*
X130395050Y-134340809D02*
X130347431Y-134293190D01*
X130347431Y-134293190D02*
X130252193Y-134245571D01*
X130252193Y-134245571D02*
X130014098Y-134245571D01*
X130014098Y-134245571D02*
X129918860Y-134293190D01*
X129918860Y-134293190D02*
X129871241Y-134340809D01*
X129871241Y-134340809D02*
X129823622Y-134436047D01*
X129823622Y-134436047D02*
X129823622Y-134674142D01*
X129823622Y-134674142D02*
X129871241Y-134769380D01*
X129871241Y-134769380D02*
X129918860Y-134817000D01*
X129918860Y-134817000D02*
X130014098Y-134864619D01*
X130014098Y-134864619D02*
X130252193Y-134864619D01*
X130252193Y-134864619D02*
X130347431Y-134817000D01*
X130347431Y-134817000D02*
X130395050Y-134769380D01*
X129537907Y-133864619D02*
X129204574Y-134864619D01*
X129204574Y-134864619D02*
X128871241Y-133864619D01*
X130121241Y-76864619D02*
X130597431Y-76864619D01*
X130597431Y-76864619D02*
X130645050Y-77340809D01*
X130645050Y-77340809D02*
X130597431Y-77293190D01*
X130597431Y-77293190D02*
X130502193Y-77245571D01*
X130502193Y-77245571D02*
X130264098Y-77245571D01*
X130264098Y-77245571D02*
X130168860Y-77293190D01*
X130168860Y-77293190D02*
X130121241Y-77340809D01*
X130121241Y-77340809D02*
X130073622Y-77436047D01*
X130073622Y-77436047D02*
X130073622Y-77674142D01*
X130073622Y-77674142D02*
X130121241Y-77769380D01*
X130121241Y-77769380D02*
X130168860Y-77817000D01*
X130168860Y-77817000D02*
X130264098Y-77864619D01*
X130264098Y-77864619D02*
X130502193Y-77864619D01*
X130502193Y-77864619D02*
X130597431Y-77817000D01*
X130597431Y-77817000D02*
X130645050Y-77769380D01*
X129787907Y-76864619D02*
X129454574Y-77864619D01*
X129454574Y-77864619D02*
X129121241Y-76864619D01*
X133097431Y-134864619D02*
X133097431Y-133864619D01*
X133097431Y-133864619D02*
X132859336Y-133864619D01*
X132859336Y-133864619D02*
X132716479Y-133912238D01*
X132716479Y-133912238D02*
X132621241Y-134007476D01*
X132621241Y-134007476D02*
X132573622Y-134102714D01*
X132573622Y-134102714D02*
X132526003Y-134293190D01*
X132526003Y-134293190D02*
X132526003Y-134436047D01*
X132526003Y-134436047D02*
X132573622Y-134626523D01*
X132573622Y-134626523D02*
X132621241Y-134721761D01*
X132621241Y-134721761D02*
X132716479Y-134817000D01*
X132716479Y-134817000D02*
X132859336Y-134864619D01*
X132859336Y-134864619D02*
X133097431Y-134864619D01*
X131906955Y-133864619D02*
X131716479Y-133864619D01*
X131716479Y-133864619D02*
X131621241Y-133912238D01*
X131621241Y-133912238D02*
X131526003Y-134007476D01*
X131526003Y-134007476D02*
X131478384Y-134197952D01*
X131478384Y-134197952D02*
X131478384Y-134531285D01*
X131478384Y-134531285D02*
X131526003Y-134721761D01*
X131526003Y-134721761D02*
X131621241Y-134817000D01*
X131621241Y-134817000D02*
X131716479Y-134864619D01*
X131716479Y-134864619D02*
X131906955Y-134864619D01*
X131906955Y-134864619D02*
X132002193Y-134817000D01*
X132002193Y-134817000D02*
X132097431Y-134721761D01*
X132097431Y-134721761D02*
X132145050Y-134531285D01*
X132145050Y-134531285D02*
X132145050Y-134197952D01*
X132145050Y-134197952D02*
X132097431Y-134007476D01*
X132097431Y-134007476D02*
X132002193Y-133912238D01*
X132002193Y-133912238D02*
X131906955Y-133864619D01*
X133347431Y-77864619D02*
X133347431Y-76864619D01*
X133347431Y-76864619D02*
X133109336Y-76864619D01*
X133109336Y-76864619D02*
X132966479Y-76912238D01*
X132966479Y-76912238D02*
X132871241Y-77007476D01*
X132871241Y-77007476D02*
X132823622Y-77102714D01*
X132823622Y-77102714D02*
X132776003Y-77293190D01*
X132776003Y-77293190D02*
X132776003Y-77436047D01*
X132776003Y-77436047D02*
X132823622Y-77626523D01*
X132823622Y-77626523D02*
X132871241Y-77721761D01*
X132871241Y-77721761D02*
X132966479Y-77817000D01*
X132966479Y-77817000D02*
X133109336Y-77864619D01*
X133109336Y-77864619D02*
X133347431Y-77864619D01*
X132347431Y-77864619D02*
X132347431Y-76864619D01*
X136323622Y-133912238D02*
X136418860Y-133864619D01*
X136418860Y-133864619D02*
X136561717Y-133864619D01*
X136561717Y-133864619D02*
X136704574Y-133912238D01*
X136704574Y-133912238D02*
X136799812Y-134007476D01*
X136799812Y-134007476D02*
X136847431Y-134102714D01*
X136847431Y-134102714D02*
X136895050Y-134293190D01*
X136895050Y-134293190D02*
X136895050Y-134436047D01*
X136895050Y-134436047D02*
X136847431Y-134626523D01*
X136847431Y-134626523D02*
X136799812Y-134721761D01*
X136799812Y-134721761D02*
X136704574Y-134817000D01*
X136704574Y-134817000D02*
X136561717Y-134864619D01*
X136561717Y-134864619D02*
X136466479Y-134864619D01*
X136466479Y-134864619D02*
X136323622Y-134817000D01*
X136323622Y-134817000D02*
X136276003Y-134769380D01*
X136276003Y-134769380D02*
X136276003Y-134436047D01*
X136276003Y-134436047D02*
X136466479Y-134436047D01*
X135847431Y-134864619D02*
X135847431Y-133864619D01*
X135847431Y-133864619D02*
X135276003Y-134864619D01*
X135276003Y-134864619D02*
X135276003Y-133864619D01*
X134799812Y-134864619D02*
X134799812Y-133864619D01*
X134799812Y-133864619D02*
X134561717Y-133864619D01*
X134561717Y-133864619D02*
X134418860Y-133912238D01*
X134418860Y-133912238D02*
X134323622Y-134007476D01*
X134323622Y-134007476D02*
X134276003Y-134102714D01*
X134276003Y-134102714D02*
X134228384Y-134293190D01*
X134228384Y-134293190D02*
X134228384Y-134436047D01*
X134228384Y-134436047D02*
X134276003Y-134626523D01*
X134276003Y-134626523D02*
X134323622Y-134721761D01*
X134323622Y-134721761D02*
X134418860Y-134817000D01*
X134418860Y-134817000D02*
X134561717Y-134864619D01*
X134561717Y-134864619D02*
X134799812Y-134864619D01*
X136573622Y-76912238D02*
X136668860Y-76864619D01*
X136668860Y-76864619D02*
X136811717Y-76864619D01*
X136811717Y-76864619D02*
X136954574Y-76912238D01*
X136954574Y-76912238D02*
X137049812Y-77007476D01*
X137049812Y-77007476D02*
X137097431Y-77102714D01*
X137097431Y-77102714D02*
X137145050Y-77293190D01*
X137145050Y-77293190D02*
X137145050Y-77436047D01*
X137145050Y-77436047D02*
X137097431Y-77626523D01*
X137097431Y-77626523D02*
X137049812Y-77721761D01*
X137049812Y-77721761D02*
X136954574Y-77817000D01*
X136954574Y-77817000D02*
X136811717Y-77864619D01*
X136811717Y-77864619D02*
X136716479Y-77864619D01*
X136716479Y-77864619D02*
X136573622Y-77817000D01*
X136573622Y-77817000D02*
X136526003Y-77769380D01*
X136526003Y-77769380D02*
X136526003Y-77436047D01*
X136526003Y-77436047D02*
X136716479Y-77436047D01*
X136097431Y-77864619D02*
X136097431Y-76864619D01*
X136097431Y-76864619D02*
X135526003Y-77864619D01*
X135526003Y-77864619D02*
X135526003Y-76864619D01*
X135049812Y-77864619D02*
X135049812Y-76864619D01*
X135049812Y-76864619D02*
X134811717Y-76864619D01*
X134811717Y-76864619D02*
X134668860Y-76912238D01*
X134668860Y-76912238D02*
X134573622Y-77007476D01*
X134573622Y-77007476D02*
X134526003Y-77102714D01*
X134526003Y-77102714D02*
X134478384Y-77293190D01*
X134478384Y-77293190D02*
X134478384Y-77436047D01*
X134478384Y-77436047D02*
X134526003Y-77626523D01*
X134526003Y-77626523D02*
X134573622Y-77721761D01*
X134573622Y-77721761D02*
X134668860Y-77817000D01*
X134668860Y-77817000D02*
X134811717Y-77864619D01*
X134811717Y-77864619D02*
X135049812Y-77864619D01*
X128114619Y-87902568D02*
X127114619Y-87902568D01*
X127114619Y-87902568D02*
X127114619Y-88140663D01*
X127114619Y-88140663D02*
X127162238Y-88283520D01*
X127162238Y-88283520D02*
X127257476Y-88378758D01*
X127257476Y-88378758D02*
X127352714Y-88426377D01*
X127352714Y-88426377D02*
X127543190Y-88473996D01*
X127543190Y-88473996D02*
X127686047Y-88473996D01*
X127686047Y-88473996D02*
X127876523Y-88426377D01*
X127876523Y-88426377D02*
X127971761Y-88378758D01*
X127971761Y-88378758D02*
X128067000Y-88283520D01*
X128067000Y-88283520D02*
X128114619Y-88140663D01*
X128114619Y-88140663D02*
X128114619Y-87902568D01*
X127114619Y-89093044D02*
X127114619Y-89283520D01*
X127114619Y-89283520D02*
X127162238Y-89378758D01*
X127162238Y-89378758D02*
X127257476Y-89473996D01*
X127257476Y-89473996D02*
X127447952Y-89521615D01*
X127447952Y-89521615D02*
X127781285Y-89521615D01*
X127781285Y-89521615D02*
X127971761Y-89473996D01*
X127971761Y-89473996D02*
X128067000Y-89378758D01*
X128067000Y-89378758D02*
X128114619Y-89283520D01*
X128114619Y-89283520D02*
X128114619Y-89093044D01*
X128114619Y-89093044D02*
X128067000Y-88997806D01*
X128067000Y-88997806D02*
X127971761Y-88902568D01*
X127971761Y-88902568D02*
X127781285Y-88854949D01*
X127781285Y-88854949D02*
X127447952Y-88854949D01*
X127447952Y-88854949D02*
X127257476Y-88902568D01*
X127257476Y-88902568D02*
X127162238Y-88997806D01*
X127162238Y-88997806D02*
X127114619Y-89093044D01*
X127114619Y-89950187D02*
X127924142Y-89950187D01*
X127924142Y-89950187D02*
X128019380Y-89997806D01*
X128019380Y-89997806D02*
X128067000Y-90045425D01*
X128067000Y-90045425D02*
X128114619Y-90140663D01*
X128114619Y-90140663D02*
X128114619Y-90331139D01*
X128114619Y-90331139D02*
X128067000Y-90426377D01*
X128067000Y-90426377D02*
X128019380Y-90473996D01*
X128019380Y-90473996D02*
X127924142Y-90521615D01*
X127924142Y-90521615D02*
X127114619Y-90521615D01*
X127114619Y-90854949D02*
X127114619Y-91426377D01*
X128114619Y-91140663D02*
X127114619Y-91140663D01*
X128114619Y-96902568D02*
X127114619Y-96902568D01*
X127114619Y-96902568D02*
X127114619Y-97140663D01*
X127114619Y-97140663D02*
X127162238Y-97283520D01*
X127162238Y-97283520D02*
X127257476Y-97378758D01*
X127257476Y-97378758D02*
X127352714Y-97426377D01*
X127352714Y-97426377D02*
X127543190Y-97473996D01*
X127543190Y-97473996D02*
X127686047Y-97473996D01*
X127686047Y-97473996D02*
X127876523Y-97426377D01*
X127876523Y-97426377D02*
X127971761Y-97378758D01*
X127971761Y-97378758D02*
X128067000Y-97283520D01*
X128067000Y-97283520D02*
X128114619Y-97140663D01*
X128114619Y-97140663D02*
X128114619Y-96902568D01*
X127114619Y-98093044D02*
X127114619Y-98283520D01*
X127114619Y-98283520D02*
X127162238Y-98378758D01*
X127162238Y-98378758D02*
X127257476Y-98473996D01*
X127257476Y-98473996D02*
X127447952Y-98521615D01*
X127447952Y-98521615D02*
X127781285Y-98521615D01*
X127781285Y-98521615D02*
X127971761Y-98473996D01*
X127971761Y-98473996D02*
X128067000Y-98378758D01*
X128067000Y-98378758D02*
X128114619Y-98283520D01*
X128114619Y-98283520D02*
X128114619Y-98093044D01*
X128114619Y-98093044D02*
X128067000Y-97997806D01*
X128067000Y-97997806D02*
X127971761Y-97902568D01*
X127971761Y-97902568D02*
X127781285Y-97854949D01*
X127781285Y-97854949D02*
X127447952Y-97854949D01*
X127447952Y-97854949D02*
X127257476Y-97902568D01*
X127257476Y-97902568D02*
X127162238Y-97997806D01*
X127162238Y-97997806D02*
X127114619Y-98093044D01*
X128114619Y-104402568D02*
X127114619Y-104402568D01*
X127114619Y-104402568D02*
X127114619Y-104640663D01*
X127114619Y-104640663D02*
X127162238Y-104783520D01*
X127162238Y-104783520D02*
X127257476Y-104878758D01*
X127257476Y-104878758D02*
X127352714Y-104926377D01*
X127352714Y-104926377D02*
X127543190Y-104973996D01*
X127543190Y-104973996D02*
X127686047Y-104973996D01*
X127686047Y-104973996D02*
X127876523Y-104926377D01*
X127876523Y-104926377D02*
X127971761Y-104878758D01*
X127971761Y-104878758D02*
X128067000Y-104783520D01*
X128067000Y-104783520D02*
X128114619Y-104640663D01*
X128114619Y-104640663D02*
X128114619Y-104402568D01*
X127114619Y-105593044D02*
X127114619Y-105783520D01*
X127114619Y-105783520D02*
X127162238Y-105878758D01*
X127162238Y-105878758D02*
X127257476Y-105973996D01*
X127257476Y-105973996D02*
X127447952Y-106021615D01*
X127447952Y-106021615D02*
X127781285Y-106021615D01*
X127781285Y-106021615D02*
X127971761Y-105973996D01*
X127971761Y-105973996D02*
X128067000Y-105878758D01*
X128067000Y-105878758D02*
X128114619Y-105783520D01*
X128114619Y-105783520D02*
X128114619Y-105593044D01*
X128114619Y-105593044D02*
X128067000Y-105497806D01*
X128067000Y-105497806D02*
X127971761Y-105402568D01*
X127971761Y-105402568D02*
X127781285Y-105354949D01*
X127781285Y-105354949D02*
X127447952Y-105354949D01*
X127447952Y-105354949D02*
X127257476Y-105402568D01*
X127257476Y-105402568D02*
X127162238Y-105497806D01*
X127162238Y-105497806D02*
X127114619Y-105593044D01*
X128114619Y-111902568D02*
X127114619Y-111902568D01*
X127114619Y-111902568D02*
X127114619Y-112140663D01*
X127114619Y-112140663D02*
X127162238Y-112283520D01*
X127162238Y-112283520D02*
X127257476Y-112378758D01*
X127257476Y-112378758D02*
X127352714Y-112426377D01*
X127352714Y-112426377D02*
X127543190Y-112473996D01*
X127543190Y-112473996D02*
X127686047Y-112473996D01*
X127686047Y-112473996D02*
X127876523Y-112426377D01*
X127876523Y-112426377D02*
X127971761Y-112378758D01*
X127971761Y-112378758D02*
X128067000Y-112283520D01*
X128067000Y-112283520D02*
X128114619Y-112140663D01*
X128114619Y-112140663D02*
X128114619Y-111902568D01*
X127114619Y-113093044D02*
X127114619Y-113283520D01*
X127114619Y-113283520D02*
X127162238Y-113378758D01*
X127162238Y-113378758D02*
X127257476Y-113473996D01*
X127257476Y-113473996D02*
X127447952Y-113521615D01*
X127447952Y-113521615D02*
X127781285Y-113521615D01*
X127781285Y-113521615D02*
X127971761Y-113473996D01*
X127971761Y-113473996D02*
X128067000Y-113378758D01*
X128067000Y-113378758D02*
X128114619Y-113283520D01*
X128114619Y-113283520D02*
X128114619Y-113093044D01*
X128114619Y-113093044D02*
X128067000Y-112997806D01*
X128067000Y-112997806D02*
X127971761Y-112902568D01*
X127971761Y-112902568D02*
X127781285Y-112854949D01*
X127781285Y-112854949D02*
X127447952Y-112854949D01*
X127447952Y-112854949D02*
X127257476Y-112902568D01*
X127257476Y-112902568D02*
X127162238Y-112997806D01*
X127162238Y-112997806D02*
X127114619Y-113093044D01*
X128114619Y-119152568D02*
X127114619Y-119152568D01*
X127114619Y-119152568D02*
X127114619Y-119390663D01*
X127114619Y-119390663D02*
X127162238Y-119533520D01*
X127162238Y-119533520D02*
X127257476Y-119628758D01*
X127257476Y-119628758D02*
X127352714Y-119676377D01*
X127352714Y-119676377D02*
X127543190Y-119723996D01*
X127543190Y-119723996D02*
X127686047Y-119723996D01*
X127686047Y-119723996D02*
X127876523Y-119676377D01*
X127876523Y-119676377D02*
X127971761Y-119628758D01*
X127971761Y-119628758D02*
X128067000Y-119533520D01*
X128067000Y-119533520D02*
X128114619Y-119390663D01*
X128114619Y-119390663D02*
X128114619Y-119152568D01*
X127114619Y-120343044D02*
X127114619Y-120533520D01*
X127114619Y-120533520D02*
X127162238Y-120628758D01*
X127162238Y-120628758D02*
X127257476Y-120723996D01*
X127257476Y-120723996D02*
X127447952Y-120771615D01*
X127447952Y-120771615D02*
X127781285Y-120771615D01*
X127781285Y-120771615D02*
X127971761Y-120723996D01*
X127971761Y-120723996D02*
X128067000Y-120628758D01*
X128067000Y-120628758D02*
X128114619Y-120533520D01*
X128114619Y-120533520D02*
X128114619Y-120343044D01*
X128114619Y-120343044D02*
X128067000Y-120247806D01*
X128067000Y-120247806D02*
X127971761Y-120152568D01*
X127971761Y-120152568D02*
X127781285Y-120104949D01*
X127781285Y-120104949D02*
X127447952Y-120104949D01*
X127447952Y-120104949D02*
X127257476Y-120152568D01*
X127257476Y-120152568D02*
X127162238Y-120247806D01*
X127162238Y-120247806D02*
X127114619Y-120343044D01*
X131364619Y-93628758D02*
X131364619Y-93152568D01*
X131364619Y-93152568D02*
X131840809Y-93104949D01*
X131840809Y-93104949D02*
X131793190Y-93152568D01*
X131793190Y-93152568D02*
X131745571Y-93247806D01*
X131745571Y-93247806D02*
X131745571Y-93485901D01*
X131745571Y-93485901D02*
X131793190Y-93581139D01*
X131793190Y-93581139D02*
X131840809Y-93628758D01*
X131840809Y-93628758D02*
X131936047Y-93676377D01*
X131936047Y-93676377D02*
X132174142Y-93676377D01*
X132174142Y-93676377D02*
X132269380Y-93628758D01*
X132269380Y-93628758D02*
X132317000Y-93581139D01*
X132317000Y-93581139D02*
X132364619Y-93485901D01*
X132364619Y-93485901D02*
X132364619Y-93247806D01*
X132364619Y-93247806D02*
X132317000Y-93152568D01*
X132317000Y-93152568D02*
X132269380Y-93104949D01*
X131364619Y-93962092D02*
X132364619Y-94295425D01*
X132364619Y-94295425D02*
X131364619Y-94628758D01*
X131364619Y-101378758D02*
X131364619Y-100902568D01*
X131364619Y-100902568D02*
X131840809Y-100854949D01*
X131840809Y-100854949D02*
X131793190Y-100902568D01*
X131793190Y-100902568D02*
X131745571Y-100997806D01*
X131745571Y-100997806D02*
X131745571Y-101235901D01*
X131745571Y-101235901D02*
X131793190Y-101331139D01*
X131793190Y-101331139D02*
X131840809Y-101378758D01*
X131840809Y-101378758D02*
X131936047Y-101426377D01*
X131936047Y-101426377D02*
X132174142Y-101426377D01*
X132174142Y-101426377D02*
X132269380Y-101378758D01*
X132269380Y-101378758D02*
X132317000Y-101331139D01*
X132317000Y-101331139D02*
X132364619Y-101235901D01*
X132364619Y-101235901D02*
X132364619Y-100997806D01*
X132364619Y-100997806D02*
X132317000Y-100902568D01*
X132317000Y-100902568D02*
X132269380Y-100854949D01*
X131364619Y-101712092D02*
X132364619Y-102045425D01*
X132364619Y-102045425D02*
X131364619Y-102378758D01*
X131364619Y-108878758D02*
X131364619Y-108402568D01*
X131364619Y-108402568D02*
X131840809Y-108354949D01*
X131840809Y-108354949D02*
X131793190Y-108402568D01*
X131793190Y-108402568D02*
X131745571Y-108497806D01*
X131745571Y-108497806D02*
X131745571Y-108735901D01*
X131745571Y-108735901D02*
X131793190Y-108831139D01*
X131793190Y-108831139D02*
X131840809Y-108878758D01*
X131840809Y-108878758D02*
X131936047Y-108926377D01*
X131936047Y-108926377D02*
X132174142Y-108926377D01*
X132174142Y-108926377D02*
X132269380Y-108878758D01*
X132269380Y-108878758D02*
X132317000Y-108831139D01*
X132317000Y-108831139D02*
X132364619Y-108735901D01*
X132364619Y-108735901D02*
X132364619Y-108497806D01*
X132364619Y-108497806D02*
X132317000Y-108402568D01*
X132317000Y-108402568D02*
X132269380Y-108354949D01*
X131364619Y-109212092D02*
X132364619Y-109545425D01*
X132364619Y-109545425D02*
X131364619Y-109878758D01*
X131364619Y-116378758D02*
X131364619Y-115902568D01*
X131364619Y-115902568D02*
X131840809Y-115854949D01*
X131840809Y-115854949D02*
X131793190Y-115902568D01*
X131793190Y-115902568D02*
X131745571Y-115997806D01*
X131745571Y-115997806D02*
X131745571Y-116235901D01*
X131745571Y-116235901D02*
X131793190Y-116331139D01*
X131793190Y-116331139D02*
X131840809Y-116378758D01*
X131840809Y-116378758D02*
X131936047Y-116426377D01*
X131936047Y-116426377D02*
X132174142Y-116426377D01*
X132174142Y-116426377D02*
X132269380Y-116378758D01*
X132269380Y-116378758D02*
X132317000Y-116331139D01*
X132317000Y-116331139D02*
X132364619Y-116235901D01*
X132364619Y-116235901D02*
X132364619Y-115997806D01*
X132364619Y-115997806D02*
X132317000Y-115902568D01*
X132317000Y-115902568D02*
X132269380Y-115854949D01*
X131364619Y-116712092D02*
X132364619Y-117045425D01*
X132364619Y-117045425D02*
X131364619Y-117378758D01*
X131364619Y-123878758D02*
X131364619Y-123402568D01*
X131364619Y-123402568D02*
X131840809Y-123354949D01*
X131840809Y-123354949D02*
X131793190Y-123402568D01*
X131793190Y-123402568D02*
X131745571Y-123497806D01*
X131745571Y-123497806D02*
X131745571Y-123735901D01*
X131745571Y-123735901D02*
X131793190Y-123831139D01*
X131793190Y-123831139D02*
X131840809Y-123878758D01*
X131840809Y-123878758D02*
X131936047Y-123926377D01*
X131936047Y-123926377D02*
X132174142Y-123926377D01*
X132174142Y-123926377D02*
X132269380Y-123878758D01*
X132269380Y-123878758D02*
X132317000Y-123831139D01*
X132317000Y-123831139D02*
X132364619Y-123735901D01*
X132364619Y-123735901D02*
X132364619Y-123497806D01*
X132364619Y-123497806D02*
X132317000Y-123402568D01*
X132317000Y-123402568D02*
X132269380Y-123354949D01*
X131364619Y-124212092D02*
X132364619Y-124545425D01*
X132364619Y-124545425D02*
X131364619Y-124878758D01*
X132912238Y-86176377D02*
X132864619Y-86081139D01*
X132864619Y-86081139D02*
X132864619Y-85938282D01*
X132864619Y-85938282D02*
X132912238Y-85795425D01*
X132912238Y-85795425D02*
X133007476Y-85700187D01*
X133007476Y-85700187D02*
X133102714Y-85652568D01*
X133102714Y-85652568D02*
X133293190Y-85604949D01*
X133293190Y-85604949D02*
X133436047Y-85604949D01*
X133436047Y-85604949D02*
X133626523Y-85652568D01*
X133626523Y-85652568D02*
X133721761Y-85700187D01*
X133721761Y-85700187D02*
X133817000Y-85795425D01*
X133817000Y-85795425D02*
X133864619Y-85938282D01*
X133864619Y-85938282D02*
X133864619Y-86033520D01*
X133864619Y-86033520D02*
X133817000Y-86176377D01*
X133817000Y-86176377D02*
X133769380Y-86223996D01*
X133769380Y-86223996D02*
X133436047Y-86223996D01*
X133436047Y-86223996D02*
X133436047Y-86033520D01*
X133864619Y-86652568D02*
X132864619Y-86652568D01*
X132864619Y-86652568D02*
X133864619Y-87223996D01*
X133864619Y-87223996D02*
X132864619Y-87223996D01*
X133864619Y-87700187D02*
X132864619Y-87700187D01*
X132864619Y-87700187D02*
X132864619Y-87938282D01*
X132864619Y-87938282D02*
X132912238Y-88081139D01*
X132912238Y-88081139D02*
X133007476Y-88176377D01*
X133007476Y-88176377D02*
X133102714Y-88223996D01*
X133102714Y-88223996D02*
X133293190Y-88271615D01*
X133293190Y-88271615D02*
X133436047Y-88271615D01*
X133436047Y-88271615D02*
X133626523Y-88223996D01*
X133626523Y-88223996D02*
X133721761Y-88176377D01*
X133721761Y-88176377D02*
X133817000Y-88081139D01*
X133817000Y-88081139D02*
X133864619Y-87938282D01*
X133864619Y-87938282D02*
X133864619Y-87700187D01*
X132912238Y-93926377D02*
X132864619Y-93831139D01*
X132864619Y-93831139D02*
X132864619Y-93688282D01*
X132864619Y-93688282D02*
X132912238Y-93545425D01*
X132912238Y-93545425D02*
X133007476Y-93450187D01*
X133007476Y-93450187D02*
X133102714Y-93402568D01*
X133102714Y-93402568D02*
X133293190Y-93354949D01*
X133293190Y-93354949D02*
X133436047Y-93354949D01*
X133436047Y-93354949D02*
X133626523Y-93402568D01*
X133626523Y-93402568D02*
X133721761Y-93450187D01*
X133721761Y-93450187D02*
X133817000Y-93545425D01*
X133817000Y-93545425D02*
X133864619Y-93688282D01*
X133864619Y-93688282D02*
X133864619Y-93783520D01*
X133864619Y-93783520D02*
X133817000Y-93926377D01*
X133817000Y-93926377D02*
X133769380Y-93973996D01*
X133769380Y-93973996D02*
X133436047Y-93973996D01*
X133436047Y-93973996D02*
X133436047Y-93783520D01*
X133864619Y-94402568D02*
X132864619Y-94402568D01*
X132864619Y-94402568D02*
X133864619Y-94973996D01*
X133864619Y-94973996D02*
X132864619Y-94973996D01*
X133864619Y-95450187D02*
X132864619Y-95450187D01*
X132864619Y-95450187D02*
X132864619Y-95688282D01*
X132864619Y-95688282D02*
X132912238Y-95831139D01*
X132912238Y-95831139D02*
X133007476Y-95926377D01*
X133007476Y-95926377D02*
X133102714Y-95973996D01*
X133102714Y-95973996D02*
X133293190Y-96021615D01*
X133293190Y-96021615D02*
X133436047Y-96021615D01*
X133436047Y-96021615D02*
X133626523Y-95973996D01*
X133626523Y-95973996D02*
X133721761Y-95926377D01*
X133721761Y-95926377D02*
X133817000Y-95831139D01*
X133817000Y-95831139D02*
X133864619Y-95688282D01*
X133864619Y-95688282D02*
X133864619Y-95450187D01*
X132912238Y-101426377D02*
X132864619Y-101331139D01*
X132864619Y-101331139D02*
X132864619Y-101188282D01*
X132864619Y-101188282D02*
X132912238Y-101045425D01*
X132912238Y-101045425D02*
X133007476Y-100950187D01*
X133007476Y-100950187D02*
X133102714Y-100902568D01*
X133102714Y-100902568D02*
X133293190Y-100854949D01*
X133293190Y-100854949D02*
X133436047Y-100854949D01*
X133436047Y-100854949D02*
X133626523Y-100902568D01*
X133626523Y-100902568D02*
X133721761Y-100950187D01*
X133721761Y-100950187D02*
X133817000Y-101045425D01*
X133817000Y-101045425D02*
X133864619Y-101188282D01*
X133864619Y-101188282D02*
X133864619Y-101283520D01*
X133864619Y-101283520D02*
X133817000Y-101426377D01*
X133817000Y-101426377D02*
X133769380Y-101473996D01*
X133769380Y-101473996D02*
X133436047Y-101473996D01*
X133436047Y-101473996D02*
X133436047Y-101283520D01*
X133864619Y-101902568D02*
X132864619Y-101902568D01*
X132864619Y-101902568D02*
X133864619Y-102473996D01*
X133864619Y-102473996D02*
X132864619Y-102473996D01*
X133864619Y-102950187D02*
X132864619Y-102950187D01*
X132864619Y-102950187D02*
X132864619Y-103188282D01*
X132864619Y-103188282D02*
X132912238Y-103331139D01*
X132912238Y-103331139D02*
X133007476Y-103426377D01*
X133007476Y-103426377D02*
X133102714Y-103473996D01*
X133102714Y-103473996D02*
X133293190Y-103521615D01*
X133293190Y-103521615D02*
X133436047Y-103521615D01*
X133436047Y-103521615D02*
X133626523Y-103473996D01*
X133626523Y-103473996D02*
X133721761Y-103426377D01*
X133721761Y-103426377D02*
X133817000Y-103331139D01*
X133817000Y-103331139D02*
X133864619Y-103188282D01*
X133864619Y-103188282D02*
X133864619Y-102950187D01*
X132912238Y-108926377D02*
X132864619Y-108831139D01*
X132864619Y-108831139D02*
X132864619Y-108688282D01*
X132864619Y-108688282D02*
X132912238Y-108545425D01*
X132912238Y-108545425D02*
X133007476Y-108450187D01*
X133007476Y-108450187D02*
X133102714Y-108402568D01*
X133102714Y-108402568D02*
X133293190Y-108354949D01*
X133293190Y-108354949D02*
X133436047Y-108354949D01*
X133436047Y-108354949D02*
X133626523Y-108402568D01*
X133626523Y-108402568D02*
X133721761Y-108450187D01*
X133721761Y-108450187D02*
X133817000Y-108545425D01*
X133817000Y-108545425D02*
X133864619Y-108688282D01*
X133864619Y-108688282D02*
X133864619Y-108783520D01*
X133864619Y-108783520D02*
X133817000Y-108926377D01*
X133817000Y-108926377D02*
X133769380Y-108973996D01*
X133769380Y-108973996D02*
X133436047Y-108973996D01*
X133436047Y-108973996D02*
X133436047Y-108783520D01*
X133864619Y-109402568D02*
X132864619Y-109402568D01*
X132864619Y-109402568D02*
X133864619Y-109973996D01*
X133864619Y-109973996D02*
X132864619Y-109973996D01*
X133864619Y-110450187D02*
X132864619Y-110450187D01*
X132864619Y-110450187D02*
X132864619Y-110688282D01*
X132864619Y-110688282D02*
X132912238Y-110831139D01*
X132912238Y-110831139D02*
X133007476Y-110926377D01*
X133007476Y-110926377D02*
X133102714Y-110973996D01*
X133102714Y-110973996D02*
X133293190Y-111021615D01*
X133293190Y-111021615D02*
X133436047Y-111021615D01*
X133436047Y-111021615D02*
X133626523Y-110973996D01*
X133626523Y-110973996D02*
X133721761Y-110926377D01*
X133721761Y-110926377D02*
X133817000Y-110831139D01*
X133817000Y-110831139D02*
X133864619Y-110688282D01*
X133864619Y-110688282D02*
X133864619Y-110450187D01*
X132912238Y-116426377D02*
X132864619Y-116331139D01*
X132864619Y-116331139D02*
X132864619Y-116188282D01*
X132864619Y-116188282D02*
X132912238Y-116045425D01*
X132912238Y-116045425D02*
X133007476Y-115950187D01*
X133007476Y-115950187D02*
X133102714Y-115902568D01*
X133102714Y-115902568D02*
X133293190Y-115854949D01*
X133293190Y-115854949D02*
X133436047Y-115854949D01*
X133436047Y-115854949D02*
X133626523Y-115902568D01*
X133626523Y-115902568D02*
X133721761Y-115950187D01*
X133721761Y-115950187D02*
X133817000Y-116045425D01*
X133817000Y-116045425D02*
X133864619Y-116188282D01*
X133864619Y-116188282D02*
X133864619Y-116283520D01*
X133864619Y-116283520D02*
X133817000Y-116426377D01*
X133817000Y-116426377D02*
X133769380Y-116473996D01*
X133769380Y-116473996D02*
X133436047Y-116473996D01*
X133436047Y-116473996D02*
X133436047Y-116283520D01*
X133864619Y-116902568D02*
X132864619Y-116902568D01*
X132864619Y-116902568D02*
X133864619Y-117473996D01*
X133864619Y-117473996D02*
X132864619Y-117473996D01*
X133864619Y-117950187D02*
X132864619Y-117950187D01*
X132864619Y-117950187D02*
X132864619Y-118188282D01*
X132864619Y-118188282D02*
X132912238Y-118331139D01*
X132912238Y-118331139D02*
X133007476Y-118426377D01*
X133007476Y-118426377D02*
X133102714Y-118473996D01*
X133102714Y-118473996D02*
X133293190Y-118521615D01*
X133293190Y-118521615D02*
X133436047Y-118521615D01*
X133436047Y-118521615D02*
X133626523Y-118473996D01*
X133626523Y-118473996D02*
X133721761Y-118426377D01*
X133721761Y-118426377D02*
X133817000Y-118331139D01*
X133817000Y-118331139D02*
X133864619Y-118188282D01*
X133864619Y-118188282D02*
X133864619Y-117950187D01*
X137364619Y-105902568D02*
X136364619Y-105902568D01*
X136364619Y-105902568D02*
X136364619Y-106140663D01*
X136364619Y-106140663D02*
X136412238Y-106283520D01*
X136412238Y-106283520D02*
X136507476Y-106378758D01*
X136507476Y-106378758D02*
X136602714Y-106426377D01*
X136602714Y-106426377D02*
X136793190Y-106473996D01*
X136793190Y-106473996D02*
X136936047Y-106473996D01*
X136936047Y-106473996D02*
X137126523Y-106426377D01*
X137126523Y-106426377D02*
X137221761Y-106378758D01*
X137221761Y-106378758D02*
X137317000Y-106283520D01*
X137317000Y-106283520D02*
X137364619Y-106140663D01*
X137364619Y-106140663D02*
X137364619Y-105902568D01*
X137364619Y-106902568D02*
X136364619Y-106902568D01*
X137364619Y-107378758D02*
X136364619Y-107378758D01*
X136364619Y-107378758D02*
X137364619Y-107950186D01*
X137364619Y-107950186D02*
X136364619Y-107950186D01*
X137364619Y-113402568D02*
X136364619Y-113402568D01*
X136364619Y-113402568D02*
X136364619Y-113640663D01*
X136364619Y-113640663D02*
X136412238Y-113783520D01*
X136412238Y-113783520D02*
X136507476Y-113878758D01*
X136507476Y-113878758D02*
X136602714Y-113926377D01*
X136602714Y-113926377D02*
X136793190Y-113973996D01*
X136793190Y-113973996D02*
X136936047Y-113973996D01*
X136936047Y-113973996D02*
X137126523Y-113926377D01*
X137126523Y-113926377D02*
X137221761Y-113878758D01*
X137221761Y-113878758D02*
X137317000Y-113783520D01*
X137317000Y-113783520D02*
X137364619Y-113640663D01*
X137364619Y-113640663D02*
X137364619Y-113402568D01*
X137364619Y-114402568D02*
X136364619Y-114402568D01*
X137364619Y-114878758D02*
X136364619Y-114878758D01*
X136364619Y-114878758D02*
X137364619Y-115450186D01*
X137364619Y-115450186D02*
X136364619Y-115450186D01*
X137364619Y-120902568D02*
X136364619Y-120902568D01*
X136364619Y-120902568D02*
X136364619Y-121140663D01*
X136364619Y-121140663D02*
X136412238Y-121283520D01*
X136412238Y-121283520D02*
X136507476Y-121378758D01*
X136507476Y-121378758D02*
X136602714Y-121426377D01*
X136602714Y-121426377D02*
X136793190Y-121473996D01*
X136793190Y-121473996D02*
X136936047Y-121473996D01*
X136936047Y-121473996D02*
X137126523Y-121426377D01*
X137126523Y-121426377D02*
X137221761Y-121378758D01*
X137221761Y-121378758D02*
X137317000Y-121283520D01*
X137317000Y-121283520D02*
X137364619Y-121140663D01*
X137364619Y-121140663D02*
X137364619Y-120902568D01*
X137364619Y-121902568D02*
X136364619Y-121902568D01*
X137364619Y-122378758D02*
X136364619Y-122378758D01*
X136364619Y-122378758D02*
X137364619Y-122950186D01*
X137364619Y-122950186D02*
X136364619Y-122950186D01*
X137364619Y-90549813D02*
X136364619Y-90549813D01*
X136364619Y-90549813D02*
X136364619Y-90787908D01*
X136364619Y-90787908D02*
X136412238Y-90930765D01*
X136412238Y-90930765D02*
X136507476Y-91026003D01*
X136507476Y-91026003D02*
X136602714Y-91073622D01*
X136602714Y-91073622D02*
X136793190Y-91121241D01*
X136793190Y-91121241D02*
X136936047Y-91121241D01*
X136936047Y-91121241D02*
X137126523Y-91073622D01*
X137126523Y-91073622D02*
X137221761Y-91026003D01*
X137221761Y-91026003D02*
X137317000Y-90930765D01*
X137317000Y-90930765D02*
X137364619Y-90787908D01*
X137364619Y-90787908D02*
X137364619Y-90549813D01*
X137364619Y-91549813D02*
X136364619Y-91549813D01*
X137364619Y-92026003D02*
X136364619Y-92026003D01*
X136364619Y-92026003D02*
X137364619Y-92597431D01*
X137364619Y-92597431D02*
X136364619Y-92597431D01*
X137364619Y-98049813D02*
X136364619Y-98049813D01*
X136364619Y-98049813D02*
X136364619Y-98287908D01*
X136364619Y-98287908D02*
X136412238Y-98430765D01*
X136412238Y-98430765D02*
X136507476Y-98526003D01*
X136507476Y-98526003D02*
X136602714Y-98573622D01*
X136602714Y-98573622D02*
X136793190Y-98621241D01*
X136793190Y-98621241D02*
X136936047Y-98621241D01*
X136936047Y-98621241D02*
X137126523Y-98573622D01*
X137126523Y-98573622D02*
X137221761Y-98526003D01*
X137221761Y-98526003D02*
X137317000Y-98430765D01*
X137317000Y-98430765D02*
X137364619Y-98287908D01*
X137364619Y-98287908D02*
X137364619Y-98049813D01*
X137364619Y-99049813D02*
X136364619Y-99049813D01*
X137364619Y-99526003D02*
X136364619Y-99526003D01*
X136364619Y-99526003D02*
X137364619Y-100097431D01*
X137364619Y-100097431D02*
X136364619Y-100097431D01*
%TO.C,C4*%
D11*
X126580000Y-115485000D02*
X126580000Y-117015000D01*
X128420000Y-115485000D02*
X128420000Y-117015000D01*
%TO.C,C3*%
X126580000Y-107985000D02*
X126580000Y-109515000D01*
X128420000Y-107985000D02*
X128420000Y-109515000D01*
%TO.C,C2*%
X126580000Y-100485000D02*
X126580000Y-102015000D01*
X128420000Y-100485000D02*
X128420000Y-102015000D01*
%TO.C,C1*%
X126580000Y-92985000D02*
X126580000Y-94515000D01*
X128420000Y-92985000D02*
X128420000Y-94515000D01*
%TO.C,C5*%
X126580000Y-122485000D02*
X126580000Y-124015000D01*
X128420000Y-124015000D02*
X128420000Y-122485000D01*
%TD*%
M02*
