M48
; DRILL file {KiCad 9.0.2} date 2025-12-27T16:53:06-0700
; FORMAT={-:-/ absolute / metric / decimal}
; #@! TF.CreationDate,2025-12-27T16:53:06-07:00
; #@! TF.GenerationSoftware,Kicad,Pcbnew,9.0.2
; #@! TF.FileFunction,Plated,1,2,PTH
FMAT,2
METRIC
; #@! TA.AperFunction,Plated,PTH,ComponentDrill
T1C0.800
; #@! TA.AperFunction,Plated,PTH,ComponentDrill
T2C0.900
; #@! TA.AperFunction,Plated,PTH,ComponentDrill
T3C0.950
%
G90
G05
T1
X132.0Y-96.0
X132.0Y-119.0
X132.0Y-142.0
X134.5Y-96.0
X134.5Y-119.0
X134.5Y-142.0
X135.0Y-163.75
X137.5Y-163.75
T2
X130.0Y-90.0
X130.0Y-113.0
X130.0Y-136.0
X130.0Y-159.0
X131.778Y-91.524
X131.778Y-114.524
X131.778Y-137.524
X131.778Y-160.524
X133.302Y-90.0
X133.302Y-113.0
X133.302Y-136.0
X133.302Y-159.0
X134.826Y-91.524
X134.826Y-114.524
X134.826Y-137.524
X134.826Y-160.524
T3
X130.0Y-80.0
X130.0Y-169.0
X132.5Y-80.0
X132.5Y-169.0
X135.0Y-80.0
X135.0Y-169.0
M30
